<svg xmlns="http://www.w3.org/2000/svg" width="92.715" height="92.683" viewBox="0 0 92.715 92.683">
  <g id="Group_251" data-name="Group 251" transform="translate(0)">
    <path id="Path_956" data-name="Path 956" d="M92.724,224.686c-.022-1.482-.016-2.989-.007-4.449.009-1.716.016-3.49-.022-5.234a17.787,17.787,0,0,0-8.6-15.308c-.521-.337-1.078-.624-1.615-.9-.058-.031-.119-.061-.177-.092a11.783,11.783,0,0,0,3.916-8.082,11.658,11.658,0,0,0-3-8.484,11.789,11.789,0,0,0-8.565-3.75,11.328,11.328,0,0,0-6.905,2.331,11.094,11.094,0,0,0-4.4,7.029,11.447,11.447,0,0,0,3.672,10.864l-4.612,3.162-.31.213a18.111,18.111,0,0,0-8.149-7.581,11.99,11.99,0,0,0,3.943-8.235A11.522,11.522,0,0,0,46.33,174.09a11.407,11.407,0,0,0-7.66,2.931,11.187,11.187,0,0,0-3.833,7.734,11.436,11.436,0,0,0,3.844,9.539c-.362.247-.73.492-1.087.728a26.493,26.493,0,0,0-3.474,2.585,25.764,25.764,0,0,0-2.8,3.254c-.276.359-.541.705-.806,1.037l-4.828-3.29a11.47,11.47,0,0,0,3.876-8.059,11.133,11.133,0,0,0-3.575-8.964,11.484,11.484,0,0,0-15.663-.245,11.175,11.175,0,0,0-3.811,7.649,11.455,11.455,0,0,0,3.961,9.708,17.429,17.429,0,0,0-9.027,9.423A24.293,24.293,0,0,0,.419,211.7c-.124.532-.252,1.082-.393,1.612l-.016.056v14.314H91.119l.1-.056a3.015,3.015,0,0,0,1.5-2.939ZM17.961,182.864h.164a7.246,7.246,0,0,1,5.048,2.261,6.853,6.853,0,0,1,1.927,4.931,7.128,7.128,0,0,1-6.986,6.957c-.074,0-.15,0-.225,0a7.3,7.3,0,0,1-5.066-2.32,6.8,6.8,0,0,1-1.864-4.911,7.167,7.167,0,0,1,7-6.916Zm10.368,39.258c0,.344,0,.689.007,1.04H4.492v-2.816c0-1.653,0-3.362,0-5.041A13.531,13.531,0,0,1,18,201.552a15.058,15.058,0,0,1,3.036.317,12.819,12.819,0,0,1,7.541,4.745.882.882,0,0,1,.13.512c-.054,1.884-.115,3.8-.173,5.65-.065,2.046-.135,4.161-.191,6.243-.027,1.026-.02,2.035-.013,3.1Zm18.106-29.411h-.13a7.19,7.19,0,0,1-7.022-7.018,6.931,6.931,0,0,1,2.017-4.961,7.086,7.086,0,0,1,5.021-2.174h.07a7.074,7.074,0,0,1,.049,14.147Zm10.786,27.444c0-.2,0-.409,0-.613,0-.478.009-.975-.011-1.466A2.195,2.195,0,0,0,55,215.789a2.218,2.218,0,0,0-2.241,2.277c-.038,1.013-.031,2.039-.025,3.029,0,.429.007.858,0,1.287v.781H32.821q0-1.893-.011-3.786c-.011-2.9-.025-5.9.027-8.841a13.556,13.556,0,0,1,12.409-13.292c.384-.034.772-.049,1.156-.049A13.587,13.587,0,0,1,59.626,208.16a12.652,12.652,0,0,1,.247,2.405c.02,3.191.018,6.438.016,9.578v3H57.221v-2.989ZM69.7,194.918a7.013,7.013,0,0,1-2.093-4.983,7.13,7.13,0,0,1,7.02-7.069h.092a7.177,7.177,0,0,1,7.038,7.04,6.966,6.966,0,0,1-2.057,4.976,7.037,7.037,0,0,1-5.005,2.133h-.025a7,7,0,0,1-4.972-2.1Zm-5.342,16.6a37.357,37.357,0,0,0-.3-3.775l-.031-.278a1.216,1.216,0,0,1,.287-1.107c2.931-3.243,6.308-4.886,10.038-4.886a14.663,14.663,0,0,1,4.233.66c5.493,1.66,8.747,5.484,9.409,11.062a47.838,47.838,0,0,1,.135,7.089c-.027.941-.056,1.909-.063,2.879H64.376v-.523q0-1.573,0-3.148c.007-2.612.011-5.313-.02-7.97Z" transform="translate(-0.01 -134.996)" fill="#45aff7"/>
    <path id="Path_957" data-name="Path 957" d="M142,55.605a3.183,3.183,0,0,0,1.044,3.445c.555.53,1.114,1.076,1.653,1.606.719.705,1.462,1.435,2.214,2.136a.905.905,0,0,1,.3,1c-.276,1.435-.514,2.854-.746,4.226-.085.5-.166.988-.247,1.46l0,.031v.031a3.526,3.526,0,0,0,.925,2.6,2.923,2.923,0,0,0,2.113.889,3.379,3.379,0,0,0,1.5-.362c1.713-.838,3.384-1.743,5.089-2.675a1.058,1.058,0,0,1,.5-.155.973.973,0,0,1,.476.148c1.341.739,2.719,1.457,4.051,2.151l.941.492a3.488,3.488,0,0,0,1.61.429,2.993,2.993,0,0,0,1.819-.636,3.127,3.127,0,0,0,1.174-3.229l-.141-.833c-.258-1.523-.528-3.1-.826-4.642a.848.848,0,0,1,.31-.918c.9-.849,1.8-1.729,2.672-2.58q.66-.647,1.323-1.291a3.117,3.117,0,0,0,.936-3.306,3.044,3.044,0,0,0-2.675-2.158c-.633-.092-1.278-.191-1.9-.287-1.206-.186-2.454-.38-3.69-.528a.815.815,0,0,1-.757-.586c-.42-.88-.86-1.767-1.284-2.625-.357-.719-.725-1.464-1.08-2.2a3.141,3.141,0,0,0-2.946-2.052h-.011a3.125,3.125,0,0,0-2.949,2.035l-.045.092c-.777,1.6-1.579,3.261-2.423,4.857a1.01,1.01,0,0,1-.588.422c-1.871.33-3.777.6-5.558.847a3.085,3.085,0,0,0-2.776,2.16Zm18.906,8.12c.2.993.366,2,.539,3.072.034.209.07.422.1.638l-.42-.211c-.829-.418-1.61-.811-2.338-1.267a4.257,4.257,0,0,0-4.907,0c-.716.449-1.493.84-2.315,1.255l-.445.225q.034-.236.067-.465a23.7,23.7,0,0,1,.469-2.594,4.2,4.2,0,0,0-1.491-4.671,23.189,23.189,0,0,1-1.893-1.873q-.148-.155-.3-.317l.6-.094c1.118-.175,2.176-.341,3.254-.481a3.357,3.357,0,0,0,2.758-2c.467-.961.943-1.922,1.451-2.942.1-.2.2-.4.3-.6l.07.139c.31.622.6,1.2.887,1.776.191.382.353.714.494,1.008,1.1,2.264,1.226,2.362,3.332,2.654.393.054.883.121,1.471.22.658.11,1.307.2,1.994.294l.085.011c-.128.132-.254.265-.382.4-.741.77-1.439,1.5-2.18,2.189a3.664,3.664,0,0,0-1.206,3.627Z" transform="translate(-109.995 -35.042)" fill="#45aff7"/>
    <path id="Path_958" data-name="Path 958" d="M123.874,26.261c1.711,1.722,3.519,3.53,5.69,5.693a3.7,3.7,0,0,0,.712.568,2.188,2.188,0,0,0,1.114.31,2.486,2.486,0,0,0,2.376-2.221l.022-.164-.09-.139c-.1-.15-.186-.305-.281-.472a5.387,5.387,0,0,0-.761-1.1c-1.523-1.572-3.1-3.137-4.626-4.651l-.869-.862a4.155,4.155,0,0,0-.858-.685,2.224,2.224,0,0,0-1.1-.308,2.148,2.148,0,0,0-1.487.642,2.085,2.085,0,0,0-.463,2.564,3.186,3.186,0,0,0,.618.826Z" transform="translate(-95.386 -17.238)" fill="#45aff7"/>
    <path id="Path_959" data-name="Path 959" d="M243.907,32.641a2.215,2.215,0,0,0,.952.227,2.472,2.472,0,0,0,1.74-.829l.777-.775c1.635-1.628,3.326-3.31,4.974-4.983a2.238,2.238,0,0,0,.24-3.317,2.12,2.12,0,0,0-1.554-.705,2.658,2.658,0,0,0-1.844.856c-2.237,2.2-4.065,4.033-5.751,5.764a3.832,3.832,0,0,0-.64.977c-.04.083-.081.159-.108.207l-.065.106v.124a2.282,2.282,0,0,0,1.275,2.349Z" transform="translate(-188.146 -17.261)" fill="#45aff7"/>
    <path id="Path_960" data-name="Path 960" d="M198.556,8.286h.04a2.2,2.2,0,0,0,2.228-2.239c.025-.451.018-.9.011-1.343,0-.189-.007-.377-.007-.564s0-.393,0-.588c.007-.429.013-.876-.013-1.318A2.264,2.264,0,0,0,198.635,0h-.047a2.253,2.253,0,0,0-2.221,2.27c-.045,1.3-.043,2.576,0,3.793a2.189,2.189,0,0,0,2.187,2.221Z" transform="translate(-152.247)" fill="#45aff7"/>
    <path id="Path_961" data-name="Path 961" d="M237.168,328.69h-.031a2.241,2.241,0,0,0-2.239,2.167,2.156,2.156,0,0,0,.62,1.545,2.26,2.26,0,0,0,1.579.7h.036a2.2,2.2,0,0,0,.034-4.408Z" transform="translate(-182.151 -254.879)" fill="#45aff7"/>
  </g>
</svg>
