<svg xmlns="http://www.w3.org/2000/svg" width="90.437" height="84.1" viewBox="0 0 90.437 84.1">
  <g id="Group_248" data-name="Group 248" transform="translate(0 0)">
    <path id="Path_939" data-name="Path 939" d="M18.271,84.1c-1.5-4.732-3.54-9.4-4.4-14.211-1.686-9.413,1.694-17.63,10.355-24.212.236-.181.469-.365.85-.659a23.591,23.591,0,0,0-11.718,2.391,17.8,17.8,0,0,0-7.832,7.4C3.678,54.16,1.879,53.531,0,52.877c3.613-6.455,9.6-10.489,18.049-12.319a25.621,25.621,0,0,1-7.763-6.868c-.629-.861-1.148-1.776-1.748-2.718,1.894-.665,3.667-1.286,5.55-1.949,3.082,5.374,8.061,8.855,15.149,10.3-.694-1.892-1.454-3.666-1.988-5.486a23.417,23.417,0,0,1,.113-13.017c.149-.55.582-.487,1.05-.487,5.63,0,11.263-.116,16.886.056a5,5,0,0,0,4.859-2.213C54.43,12.357,58.93,6.654,63.346.909c.211-.276.436-.544.731-.909,8.785,11.356,17.515,22.647,26.361,34.086H80.082V66.892H73.613C73.151,72.9,70.5,78.414,68.743,84.1Zm25.223-4.928q9.895,0,19.793.009c.629,0,.952-.1,1.1-.659.291-1.063.68-2.115,1.069-3.158,1.614-4.328,2.682-8.692,1.683-13.245-1.341-6.1-4.841-11.092-11.249-14.54a18.023,18.023,0,0,0-8.937-2.59c-2.01.027-4.027.089-6.026-.015A17.031,17.031,0,0,0,33.608,46.4C22.974,50.643,18.031,60.452,19.83,69.47c.6,3.006,1.817,5.932,2.7,8.9.2.668.578.82,1.374.817,6.531-.03,13.062-.015,19.594-.015ZM79.486,29.158C74.3,22.454,69.222,15.886,64.072,9.223c-2.871,3.74-5.652,7.358-8.534,11.115h3.925a24.184,24.184,0,0,1-3.518,21.545c.28.14.469.247.672.333,7.992,3.487,13.088,8.876,15.6,15.94.389,1.1.6,2.24.938,3.354.051.172.345.3.527.446a2.023,2.023,0,0,0,.334-.5,2.452,2.452,0,0,0,.015-.654V29.161h5.455ZM32.543,25.3a19.729,19.729,0,0,0,3.787,14.1,1.433,1.433,0,0,0,.981.359c4.114.024,8.232.006,12.346.027a1.239,1.239,0,0,0,1.174-.57,19.321,19.321,0,0,0,3.573-9.3,43.349,43.349,0,0,0,.029-4.61Z" fill="#45aff7"/>
    <path id="Path_940" data-name="Path 940" d="M104.746,193.56h-3.113v-2.091c-1.966-.526-3.82-1.019-5.813-1.551.651-1.476,1.194-2.712,1.658-3.767,1.666.389,3.232.793,4.815,1.108a3.615,3.615,0,0,0,1.542-.089c.315-.08.57-.407.85-.624-.244-.288-.431-.716-.737-.835a24.4,24.4,0,0,0-2.367-.645c-.763-.208-1.533-.4-2.281-.654a4.075,4.075,0,0,1-3.113-3.787,4.429,4.429,0,0,1,2.341-4.373A24.309,24.309,0,0,1,101.618,175V172.82h3.128v2.16l4.536,1.292c-.573,1.393-1.075,2.617-1.574,3.835-1.007-.309-1.949-.674-2.926-.87a6.986,6.986,0,0,0-2.278-.068,1.535,1.535,0,0,0-1.1.757c-.2.615.452.79.912.918,1.369.374,2.771.642,4.123,1.063,2.308.722,3.357,1.978,3.446,3.954a4.837,4.837,0,0,1-3.131,4.661c-.226.1-.452.193-.683.273a1.812,1.812,0,0,0-1.325,1.854v.912Z" transform="translate(-59.498 -121.484)" fill="#45aff7"/>
  </g>
</svg>
