<svg id="Group_249" data-name="Group 249" xmlns="http://www.w3.org/2000/svg" width="73.463" height="64.263" viewBox="0 0 73.463 64.263">
  <path id="Path_947" data-name="Path 947" d="M73.463,59.367v4.9H1.587A2.227,2.227,0,0,1,0,62.171Q.021,34.008.038,5.84a5.635,5.635,0,0,1,.649-2.6C1.9.994,4.073,0,6.876,0H66.61a6.614,6.614,0,0,1,5.56,2.344A13.734,13.734,0,0,1,73.463,5.02V40.542a1.7,1.7,0,0,0-.123.286A5.888,5.888,0,0,1,69.5,45a.735.735,0,0,0-.332.58,6.905,6.905,0,0,1-1.776,4.287c-.227.257-.469.505-.7.754a1.6,1.6,0,0,0,.147.124c.18.1.355.207.54.311a11.571,11.571,0,0,1,5.437,6.018c.284.746.436,1.528.644,2.295Zm-5.65-17.86a2.017,2.017,0,0,0,1.35-2.1q-.014-16.725,0-33.447c0-1.47-.829-2.2-2.51-2.2H6.824c-1.681,0-2.51.725-2.515,2.2v20.2c0,.174.028.344.052.621a16.141,16.141,0,0,1,6.763-3.479,8.679,8.679,0,0,1,.838-12.923,11.933,11.933,0,0,1,13.469-.961,9.427,9.427,0,0,1,4.22,5,8.471,8.471,0,0,1-1.639,8.388H40.165c.393-1.367.767-2.725,1.17-4.08.725-2.464,1.331-4.966,2.235-7.381,1.17-3.131,5.773-4.515,9.022-2.854,2.7,1.383,3.879,3.765,3.116,6.474q-2.053,7.3-4.168,14.584c-.857,2.978-3.239,4.581-6.753,4.585H34.482v4.7a1.368,1.368,0,0,0,.246-.054,9.361,9.361,0,0,1,11.248,2.568,1.123,1.123,0,0,0,.767.3c1.819.025,3.632,0,5.451.025a1.055,1.055,0,0,0,.98-.464,9.509,9.509,0,0,1,14.639.29ZM32.337,50.47a6.507,6.507,0,0,1-1.965-3.409,22,22,0,0,1-.223-3.488c-.028-3.641-.014-7.277-.014-10.918,0-1.591.8-2.278,2.628-2.282H44.882a2.2,2.2,0,0,0,2.453-1.62q2.124-7.381,4.205-14.77A1.933,1.933,0,0,0,51.564,13a2.057,2.057,0,0,0-2.07-1.45,2.125,2.125,0,0,0-2.145,1.624Q45.7,18.912,44.063,24.653c-.436,1.528-1.051,1.951-2.875,1.951-8.581,0-17.168-.021-25.749.021a14.232,14.232,0,0,0-3.8.505C7.113,28.439,4.31,31.964,4.3,36.205q-.014,11.134,0,22.272v.857a11.5,11.5,0,0,1,2.126-5.016,12.988,12.988,0,0,1,4.494-3.691c-3.8-3.956-2.335-8.466.4-10.682a9.531,9.531,0,0,1,11.224-.418,7.2,7.2,0,0,1,3.1,4.391,6.807,6.807,0,0,1-2.013,6.544c1.525,1.234,3,2.423,4.338,3.508,1.4-1.122,2.86-2.3,4.362-3.508Zm-6.512-33.3c-.033-3.086-2.965-5.629-6.469-5.612s-6.431,2.572-6.436,5.641c0,3.094,2.988,5.687,6.5,5.646,3.533-.046,6.431-2.614,6.4-5.675ZM51.7,60.457H69.12c.152-3.968-4.163-7.543-8.984-7.485C55.486,53.026,51.451,56.588,51.7,60.457Zm-25.867.008a7.212,7.212,0,0,0-4.082-6.337,9.155,9.155,0,0,0-9.136.037,7.163,7.163,0,0,0-4.007,6.3H25.839Zm21.52,0a7.207,7.207,0,0,0-4.078-6.337,9.165,9.165,0,0,0-9.136.033,7.177,7.177,0,0,0-4.011,6.3H47.354ZM60.259,41.677a4.1,4.1,0,0,0-4.3,3.753A4.084,4.084,0,0,0,60.236,49.2c2.411.017,4.6-1.76,4.608-3.753S62.679,41.673,60.259,41.677ZM21.515,45.413a4.1,4.1,0,0,0-4.31-3.736,4.1,4.1,0,0,0-4.291,3.753A4.1,4.1,0,0,0,17.258,49.2a4.083,4.083,0,0,0,4.253-3.786Zm21.52.033a4.084,4.084,0,0,0-4.267-3.769,4.107,4.107,0,0,0-4.329,3.72c-.033,2.063,1.942,3.806,4.3,3.8a4.086,4.086,0,0,0,4.291-3.749Zm6.46,8.533c1.373-1.11,2.846-2.3,4.357-3.517a7.163,7.163,0,0,1-2.226-4.983H47.354a7.117,7.117,0,0,1-2.212,4.987c1.515,1.222,2.988,2.411,4.357,3.517Z" fill="#45aff7"/>
</svg>
