<svg xmlns="http://www.w3.org/2000/svg" width="75.886" height="63.891" viewBox="0 0 75.886 63.891">
  <g id="Group_252" data-name="Group 252" transform="translate(0 0)">
    <path id="Path_948" data-name="Path 948" d="M75.891,14.081V42.09c-.053.237-.126.473-.164.715a14.743,14.743,0,0,1-1.9,5.489,15.318,15.318,0,0,1-13.784,7.861c-9.011.048-18.026.019-27.042,0a1.493,1.493,0,0,0-1.343.672c-1.517,1.981-3.068,3.928-4.624,5.88-1.247,1.57-2.754,1.575-3.991.01-1.594-2.01-3.189-4.025-4.759-6.059a1.235,1.235,0,0,0-1.048-.507,29.331,29.331,0,0,1-4.933-.372A15.458,15.458,0,0,1,.012,40.345Q0,28.083.026,15.821A15.643,15.643,0,0,1,15.9,0Q37.978-.012,60.058,0A15.506,15.506,0,0,1,75.471,12.062c.164.667.28,1.343.42,2.02ZM4.491,31.987H31.282c2.005,0,2.788.773,2.788,2.768v16.91h7.755V34.8c0-2.044.768-2.807,2.822-2.807H71.388v-7.8H44.607c-2,0-2.783-.783-2.783-2.778V4.505H34.069V21.372c0,2.044-.773,2.817-2.817,2.817H4.491v7.8Zm21.954-12.3c-1.145-1.135-2.174-2.145-3.194-3.169Q17.773,11.05,12.294,5.587a1.04,1.04,0,0,0-.841-.295A10.929,10.929,0,0,0,6.307,9.458c-2.16,3.136-1.884,6.677-1.821,10.228H26.45Zm44.9.019c0-1.8.145-3.537-.029-5.242a10.771,10.771,0,0,0-6.692-9.136.763.763,0,0,0-1.015.213q-6.82,6.849-13.664,13.678a5.987,5.987,0,0,0-.4.488h21.8ZM4.476,36.471c0,1.541-.082,3.044.014,4.537a10.963,10.963,0,0,0,6.687,9.784.847.847,0,0,0,1.145-.2q6.762-6.805,13.552-13.577c.15-.15.28-.309.493-.546Zm45.175,0-.077.164c.57.546,1.15,1.082,1.706,1.643q6.16,6.153,12.32,12.3a1.046,1.046,0,0,0,.836.3,10.934,10.934,0,0,0,5.977-5.648c1.343-2.8.981-5.774,1.024-8.755H49.651ZM29.624,39.814q-5.972,5.972-11.9,11.9a5.667,5.667,0,0,0,.575,0,2.9,2.9,0,0,1,2.836,1.362c.87,1.2,1.821,2.334,2.739,3.493.377.473.754.942,1.174,1.469,1.527-1.933,3-3.783,4.455-5.643a.848.848,0,0,0,.121-.483C29.624,47.873,29.624,43.824,29.624,39.814Zm16.707.072V51.666H58.111ZM17.787,4.481c3.923,3.923,7.871,7.875,11.794,11.8V4.481ZM58.1,4.51H46.322V16.289L58.1,4.51Z" transform="translate(-0.005 0.005)" fill="#45aff7"/>
  </g>
</svg>
