<svg xmlns="http://www.w3.org/2000/svg" width="71.509" height="71.571" viewBox="0 0 71.509 71.571">
  <g id="Group_253" data-name="Group 253" transform="translate(0)">
    <path id="Path_962" data-name="Path 962" d="M33.506,0h4.47c.179.039.357.088.538.116,1.837.286,3.7.454,5.5.868A35.7,35.7,0,0,1,70.966,29.6c.218,1.3.364,2.621.543,3.931V38c-.041.2-.091.405-.121.61-.233,1.587-.375,3.192-.707,4.756A35.764,35.764,0,1,1,29.508.551C30.835.332,32.174.181,33.506,0ZM5.157,28.052A40.148,40.148,0,0,1,31.582,39.933,40.165,40.165,0,0,1,43.459,66.356c12.448-3.033,20.786-13.434,22.824-22.878A40.156,40.156,0,0,1,39.9,31.6,40.167,40.167,0,0,1,28.022,5.18,31.533,31.533,0,0,0,5.157,28.05ZM67.2,39.239V33.73A31,31,0,0,1,37.771,4.315H32.31C32.426,21.967,47.662,38.736,67.2,39.24ZM4.274,37.82a30.581,30.581,0,0,1,20.385,9.023,30.573,30.573,0,0,1,9.03,20.37H39.3a36.114,36.114,0,0,0-12.31-25.844A35.754,35.754,0,0,0,4.274,32.23v5.588ZM42.109,4.842c.655,13.195,12.054,24.035,24.56,24.545A31.7,31.7,0,0,0,42.109,4.842ZM29.405,66.7c-.9-13.656-12.276-23.966-24.487-24.567-.123,3.158,3.813,10.949,7.7,15.1A31.41,31.41,0,0,0,29.405,66.7Z" transform="translate(0)" fill="#45aff7"/>
  </g>
</svg>
