<svg xmlns="http://www.w3.org/2000/svg" width="94.749" height="87.183" viewBox="0 0 94.749 87.183">
  <g id="Group_250" data-name="Group 250" transform="translate(0 0)">
    <path id="Path_955" data-name="Path 955" d="M94.223,18.042a2.125,2.125,0,0,0-1.574-.7,2.907,2.907,0,0,0-1.82.73l-.09.075c-1.1.911-2.249,1.855-3.353,2.811h-.012c-.793-.854-1.64-1.716-2.589-2.637a2.518,2.518,0,0,0-1.746-.749,2.124,2.124,0,0,0-1.709.854,1.868,1.868,0,0,0,.254,2.6q.791.807,1.583,1.625l.164.169a1.258,1.258,0,0,1-.155.113,10.5,10.5,0,0,0-5.026,7.769A9.782,9.782,0,0,1,74.483,36.7c-2.372,2-4.928,4.127-7.807,6.517a1.693,1.693,0,0,1-1.043.444,1.1,1.1,0,0,1-.789-.357c-.716-.719.033-1.456.282-1.667.474-.4.953-.8,1.431-1.2.568-.47,1.161-.959,1.734-1.452a1.892,1.892,0,0,0,.254-2.9,2.2,2.2,0,0,0-1.579-.666,2.429,2.429,0,0,0-1.6.617c-1.17.993-2.339,2.017-3.472,3.006-.384.339-.769.673-1.157,1.012H57.9a1.2,1.2,0,0,1,.36-.324,17.168,17.168,0,0,0,1.722-1.385c.192-.169.389-.342.585-.508,1.108-.941,1.28-2.126.438-3.014a2.1,2.1,0,0,0-1.55-.689,2.92,2.92,0,0,0-1.828.749c-.3.245-.6.489-.883.719l-.752-.816-.413-.448c.311-.26.63-.527.941-.8a1.928,1.928,0,0,0,.245-2.98,2.146,2.146,0,0,0-1.513-.621,2.633,2.633,0,0,0-1.636.613c-.4.32-.8.647-1.247,1.023l-.07.06c-.4-.44-.789-.858-1.21-1.264-.372-.357-.748-.689-1.145-1.031a5.268,5.268,0,0,0,2.221-2.882,5.024,5.024,0,0,0-.638-4.018l1.321-1.1c1.337-1.117,2.719-2.273,4.094-3.4a20.878,20.878,0,0,1,8.747-4.169,4.962,4.962,0,0,0,1.9-.933c.949-.741,1.885-1.528,2.785-2.288.164-.135.323-.271.487-.41.082.083.164.166.245.245l4.081,4.146,1.963,1.994.07.071c.086.087.172.177.262.26a2.636,2.636,0,0,0,1.775.745,2.185,2.185,0,0,0,1.362-.474,1.88,1.88,0,0,0,.736-1.339,2.167,2.167,0,0,0-.687-1.659c-2.58-2.637-4.916-5.019-7.341-7.438a1.125,1.125,0,0,1-.078-.083c.016-.015.041-.034.065-.053C74.16,5.89,74.995,5.186,75.8,4.5l.769-.651A2.542,2.542,0,0,0,77.71,1.928,2.571,2.571,0,0,0,76.422.144L76.2-.01H74.7l-.233.2c-.409.342-.818.681-1.223,1.023-.981.82-2,1.667-3,2.494a3.855,3.855,0,0,0-1.513,2.641.75.75,0,0,1-.184.29,3.68,3.68,0,0,1-.409.35c-.135.105-.274.214-.413.342a13.168,13.168,0,0,1-5.9,3.409,21.325,21.325,0,0,0-8.343,4.65c-1.26,1.065-2.5,2.1-3.82,3.191-.393.327-.785.655-1.182.982-.413-.365-.822-.73-1.231-1.091-1.354-1.2-2.634-2.329-3.926-3.5a16.787,16.787,0,0,0-7.95-4.157c-.842-.177-1.7-.309-2.531-.433-.7-.105-1.427-.214-2.122-.354a2.638,2.638,0,0,1-1.047-.489c-.5-.384-.957-.805-1.444-1.257-.225-.207-.45-.414-.679-.617l-.245-.214c-.662-.572-1.035-.926-1.026-1.565a2.613,2.613,0,0,0-1.039-1.806c-1.051-.967-2.143-1.915-3.2-2.833C21.639.9,21.243.551,20.846.2l-.237-.207H19.079l-.225.169a2.574,2.574,0,0,0-1.223,1.768,2.531,2.531,0,0,0,1.059,1.862c.258.233.515.463.773.7.773.7,1.57,1.415,2.384,2.1.037.034.07.06.094.083-.016.019-.041.041-.065.068-4.768,4.515-9.655,9.173-14.526,13.834l-.033.03-.053-.049c-.814-.76-1.664-1.509-2.482-2.231l-.658-.579a3.02,3.02,0,0,0-1.93-.929,3,3,0,0,0-1.942.967l-.241.222v1.633l.245.222c.4.357.8.722,1.19,1.087.986.907,2,1.844,3.088,2.7a5.638,5.638,0,0,0,1.816.831c.233.075.45.143.654.222a2.288,2.288,0,0,0,.454.117.9.9,0,0,1,.1.019c1.366,1.178,2.675,2.355,3.783,3.356a.551.551,0,0,1,.151.237c1.677,5.271,5.562,8.992,9.136,11.934a2.493,2.493,0,0,0,1.583.606A2.179,2.179,0,0,0,23.7,40.38a1.87,1.87,0,0,0-.09-2.912c-.724-.677-1.476-1.339-2.208-1.983l-.352-.309a17.091,17.091,0,0,1-5.112-7.258,7.708,7.708,0,0,0-2.417-3.4c-.622-.534-1.19-1.121-1.8-1.742l-.3-.312,7.063-6.727,5.95-5.662c.131.135.258.267.384.4.838.877,1.632,1.7,2.478,2.513a3.821,3.821,0,0,0,1.718.839,21.21,21.21,0,0,0,2.118.339c.159.019.315.038.474.06,2.675.346,5.439.914,7.549,2.7,2.564,2.175,5.32,4.613,8.424,7.465a1.417,1.417,0,0,1,.339,1.016.973.973,0,0,1-1.022.8,1.268,1.268,0,0,1-.83-.309c-.589-.493-1.174-1.012-1.738-1.512-.528-.467-1.076-.952-1.624-1.418a2.474,2.474,0,0,0-1.587-.6,2.2,2.2,0,0,0-1.5.583,1.864,1.864,0,0,0,.074,2.9c.135.132.27.248.4.361.053.045.1.09.151.132L43,28.784C45.072,30.62,47.19,32.5,49.3,34.379a5.23,5.23,0,0,0-2.045-.391c-.192,0-.384.008-.585.026-.045,0-.09.008-.131.008a.706.706,0,0,1-.556-.256c-1.632-1.482-2.969-2.668-4.2-3.732a2.393,2.393,0,0,0-1.554-.594,2.265,2.265,0,0,0-1.546.625,1.875,1.875,0,0,0,.065,2.822c.127.128.254.241.38.346.1.087.192.166.274.245.847.85,1.693,1.7,2.564,2.585l.523.531-.045.075c-.086,0-.176-.011-.262-.015-.593-.038-1.157-.071-1.7-.135a.873.873,0,0,1-.4-.15c-.564-.47-1.125-.974-1.664-1.46-.27-.245-.54-.485-.814-.726a2.423,2.423,0,0,0-1.624-.67,2.334,2.334,0,0,0-1.076.271,1.943,1.943,0,0,0-1.076,1.392,2.1,2.1,0,0,0,.7,1.844c.568.542,1.145,1.076,1.656,1.546l.245.226-.123.4L35.9,40.523l-2.29-2.028a3.05,3.05,0,0,0-2-.892,2.114,2.114,0,0,0-1.435.572,1.787,1.787,0,0,0-.658,1.351,2.641,2.641,0,0,0,1.084,1.87l1.754,1.558c1.031.914,2.061,1.825,3.083,2.743a2.934,2.934,0,0,1,.249.241c.025.741.029,1.475.025,2.291q-2.276-2.015-4.547-4.037-1.515-1.349-3.034-2.7a2.808,2.808,0,0,0-1.861-.809,2.138,2.138,0,0,0-1.521.651c-.875.865-.744,2.054.335,3.021.483.436.973.865,1.464,1.3.789.692,1.6,1.411,2.376,2.13.691.64,1.366,1.324,2.02,1.983.078.079.159.158.237.237a5.211,5.211,0,0,0-2.147,4.662c.061,2.622.061,5.459,0,8.669a13.969,13.969,0,0,0,3.329,9.7,7.029,7.029,0,0,1,1.914,5.749c-.033.248-.041.485-.053.715-.033.726-.074,1.155-.495,1.524a2.177,2.177,0,0,0-.626,1.5c-.07.88-.061,1.753-.049,2.491a2.078,2.078,0,0,0,2.155,2.13A2.137,2.137,0,0,0,37.4,85.032a13.538,13.538,0,0,0,.008-1.674v-.023h.065c.724.011,1.517.019,2.49.019H43.3q1.975,0,3.95,0c1.857,0,3.717.008,5.574.008,2.012,0,3.775,0,5.394-.011h0c.094,0,.164,0,.213.008a.889.889,0,0,1-.008.135,9.2,9.2,0,0,0,.008,1.806,2.119,2.119,0,0,0,2.163,1.87h.07a2.083,2.083,0,0,0,2.09-1.975c.016-.316.012-.632.012-.933,0-.286,0-.557.008-.824a3.724,3.724,0,0,0-1.137-3,.712.712,0,0,1-.049-.248c-.025-1.746-.02-3.2.012-4.575a1.461,1.461,0,0,1,.213-.685A21.6,21.6,0,0,0,64.677,63.7a2.162,2.162,0,0,0-2.135-2.415h-.061a2.159,2.159,0,0,0-2.159,2.446v.425a18.082,18.082,0,0,1-2.552,9.259,3.929,3.929,0,0,0-.515,1.84c-.037,1.151-.033,2.321-.025,3.454V79.3H38.6a1.19,1.19,0,0,1,.016-.177,9.757,9.757,0,0,0-2.838-8.582,9.018,9.018,0,0,1-2.2-4.793,8.326,8.326,0,0,1-.131-1.388c-.012-2.995-.02-6.55,0-10.2a1.07,1.07,0,0,1,1.108-1.185h.029a1.1,1.1,0,0,1,1.129,1.2c.016.779.012,1.573.008,2.344,0,.357,0,.715,0,1.072v.177c0,.177,0,.357.012.549a2.132,2.132,0,0,0,2.172,2.035h.094a2.089,2.089,0,0,0,2.073-2.066c.008-.184.008-.357.008-.527V54.226q.018-6.1.029-12.2a4.28,4.28,0,0,1,.07-.922.831.831,0,0,1,.826-.587.851.851,0,0,1,.859.67,3.952,3.952,0,0,1,.025.636V45.44q-.012,4.013,0,8.022v.154a1.825,1.825,0,0,0,.384,1.4,3.005,3.005,0,0,0,1.885.959,1.16,1.16,0,0,0,.164-.008A2.766,2.766,0,0,0,46,54.707l.02-.026a1.392,1.392,0,0,0,.217-1.072,1.5,1.5,0,0,1-.012-.188V49.293q.012-4.921.02-9.843a2.94,2.94,0,0,1,.086-.862.76.76,0,0,1,.851-.572h.049a.828.828,0,0,1,.793.707,3.757,3.757,0,0,1,.016.538v5.1q-.006,4.667-.008,9.331A2.146,2.146,0,0,0,50.2,56.054h.061a2.131,2.131,0,0,0,2.127-2.336q.006-3.674.008-7.348V42.8c0-.169,0-.327.008-.474a.9.9,0,0,1,1.783-.034,3.512,3.512,0,0,1,.012.474v3.7q-.006,3.646,0,7.288a2.179,2.179,0,1,0,4.351.008q.012-2.9.008-5.805V45.267c0-.177,0-.342.008-.5a.811.811,0,0,1,.785-.805c.037,0,.07,0,.106,0a.809.809,0,0,1,.851.677,3.606,3.606,0,0,1,.041.689v.083q0,3.11-.008,6.219,0,2.827,0,5.659c0,.064-.008.135-.012.2a1.529,1.529,0,0,0,.241,1.148,2.753,2.753,0,0,0,1.791,1.219h.094a2.9,2.9,0,0,0,1.9-1.027,1.785,1.785,0,0,0,.344-1.339c0-.068,0-.132,0-.2.012-2.521.012-5.042.016-7.566V47.574a10.025,10.025,0,0,0,1.149.071,5.344,5.344,0,0,0,3.705-1.385q2.233-1.851,4.453-3.714,1.613-1.349,3.227-2.694a15.233,15.233,0,0,0,5.071-7.694c.127-.451.221-.911.311-1.358a7.374,7.374,0,0,1,.855-2.581,8.852,8.852,0,0,1,2.151-1.96c.393-.29.8-.587,1.178-.907l.02-.019.454-.169.29-.105c.221-.083.458-.154.712-.23a6.155,6.155,0,0,0,1.832-.779,34.248,34.248,0,0,0,2.691-2.175c.319-.275.634-.549.953-.82,1.141-.959,1.313-2.081.466-3ZM52.192,37.577a7.485,7.485,0,0,0-.544-1.114c.319.286.642.572.961.858a1.911,1.911,0,0,1,.192.2l-.605.06Z" transform="translate(-0.01 0.01)" fill="#45aff7"/>
  </g>
</svg>
