<svg width="1152" height="572" viewBox="0 0 1152 572" fill="none" xmlns="http://www.w3.org/2000/svg">
<g clip-path="url(#clip0_151_41)">
<g filter="url(#filter0_d_151_41)">
<path d="M401.183 144.781V128.712C401.183 128.556 401.245 128.41 401.355 128.3L415.591 114.075C415.7 113.966 415.846 113.903 416.003 113.903H423.097C423.253 113.903 423.399 113.841 423.509 113.731L437.745 99.5057C437.854 99.3963 438 99.3338 438.157 99.3338H458.664C458.82 99.3338 458.966 99.2713 459.075 99.1619L471.268 86.9782C471.377 86.8689 471.44 86.723 471.44 86.5667V61.7047C471.44 61.5484 471.377 61.4025 471.268 61.2932L465.002 55.0321C464.773 54.8029 464.773 54.433 465.002 54.209L484.972 34.2537C485.082 34.1444 485.144 33.9985 485.144 33.8422V24.4193C485.144 24.2631 485.207 24.1172 485.316 24.0078L492.02 17.3092C492.385 16.9446 492.129 16.3143 491.608 16.3143H459.732C459.211 16.3143 458.95 15.6892 459.32 15.3194L467.098 7.5477C467.327 7.31851 467.327 6.94868 467.098 6.72469L460.54 0.171894C460.431 0.0625068 460.285 0 460.128 0H418.343C418.187 0 418.041 0.0625068 417.931 0.171894L413.756 4.34422C413.646 4.45361 413.5 4.51612 413.344 4.51612H389.193C389.037 4.51612 388.891 4.57863 388.782 4.68801L381.035 12.4284C380.926 12.5378 380.78 12.6003 380.624 12.6003H365.877C365.72 12.6003 365.574 12.5378 365.465 12.4284L361.107 8.0738C360.998 7.96441 360.852 7.90191 360.695 7.90191H343.723C343.566 7.90191 343.42 7.96441 343.311 8.0738L320.057 31.3107C319.947 31.4201 319.885 31.5659 319.885 31.7222V40.8326C319.885 40.9889 319.947 41.1347 320.057 41.2441L327.433 48.6147C327.542 48.7241 327.605 48.8699 327.605 49.0262V57.3865C327.605 57.7094 327.865 57.9699 328.189 57.9699H350.239C350.395 57.9699 350.541 58.0324 350.65 58.1418L377.762 85.2333C377.991 85.4625 377.991 85.8323 377.762 86.0563L372.221 91.5933C372.111 91.7027 372.049 91.8486 372.049 92.0048V121.237C372.049 121.393 372.111 121.539 372.221 121.649L390.246 139.661C390.356 139.77 390.502 139.833 390.658 139.833H396.267C396.439 139.833 396.595 139.906 396.71 140.036C397.549 141.026 401.204 145.302 401.204 144.787L401.183 144.781Z" fill="white"/>
<path d="M274.93 46.3176H287.832C287.988 46.3176 288.134 46.2551 288.244 46.1457L296.991 37.4051C297.22 37.176 297.22 36.8061 296.991 36.5821L292.857 32.4515C292.492 32.0869 292.748 31.4566 293.269 31.4566H304.737C304.893 31.4566 305.039 31.3941 305.149 31.2847L328.908 7.54251C329.273 7.17788 329.018 6.54761 328.497 6.54761H271.985C271.829 6.54761 271.683 6.61011 271.573 6.7195L265.719 12.5691C265.61 12.6785 265.464 12.741 265.308 12.741H247.496C247.339 12.741 247.193 12.8035 247.084 12.9129L229.991 29.9929C229.762 30.2221 229.762 30.5919 229.991 30.8159L238.045 38.8636C238.155 38.973 238.3 39.0355 238.457 39.0355H251.676C251.833 39.0355 251.979 39.098 252.088 39.2074L255.732 42.8485C255.961 43.0776 255.961 43.4423 255.732 43.6715L250.874 48.5262C250.644 48.7554 250.644 49.12 250.874 49.3492L255.831 54.3028C255.94 54.4122 256.086 54.4747 256.243 54.4747H269.082C269.285 54.4747 269.473 54.3705 269.577 54.1987C270.333 52.9485 273.434 47.8334 274.472 46.5364C274.581 46.3957 274.748 46.3228 274.925 46.3228L274.93 46.3176Z" fill="white"/>
<path d="M221.026 60.2982V50.9743C221.026 50.6513 220.765 50.3909 220.442 50.3909H210.188C210.032 50.3909 209.886 50.4534 209.776 50.5628L203.365 56.9697C203 57.3343 203.255 57.9646 203.777 57.9646H211.455C211.611 57.9646 211.757 58.0271 211.867 58.1365L216.037 62.3036C216.23 62.4964 216.516 62.5328 216.751 62.3922C218.075 61.5848 222.261 59.0689 221.031 60.2982H221.026Z" fill="white"/>
<path d="M216.944 43.4058V35.2487C216.944 34.9257 216.683 34.6653 216.36 34.6653H205.768C205.168 34.6653 204.955 35.457 205.476 35.7539C209.349 37.9417 217.611 42.7339 216.944 43.4058Z" fill="white"/>
<path d="M225.957 49.8127H233.609C233.765 49.8127 233.911 49.8753 234.021 49.9846L238.686 54.6466C239.051 55.0112 238.796 55.6415 238.274 55.6415H227.682C227.526 55.6415 227.38 55.579 227.27 55.4696L222.793 50.9952C222.407 50.6097 222.714 49.9534 223.257 50.0055C224.263 50.094 225.399 50.1357 225.644 49.9169L225.962 49.818L225.957 49.8127Z" fill="white"/>
<path d="M243.935 63.3871L238.926 58.3814C238.561 58.0168 238.816 57.3865 239.338 57.3865H256.347C256.503 57.3865 256.649 57.449 256.759 57.5584L260.788 61.5849C260.897 61.6942 261.043 61.7567 261.2 61.7567H279.908C280.232 61.7567 280.492 62.0172 280.492 62.3401V66.7104C280.492 67.0334 280.232 67.2938 279.908 67.2938H248.152C247.959 67.2938 247.782 67.2001 247.673 67.0438C247.073 66.1687 245.061 63.3038 244.493 63.4444C244.29 63.4965 244.081 63.5382 243.935 63.3871Z" fill="white"/>
<path d="M211.111 91.1818H199.689C199.533 91.1818 199.387 91.1193 199.278 91.0099L185.917 77.6595C185.808 77.5501 185.662 77.4876 185.506 77.4876H174.038C173.881 77.4876 173.735 77.4251 173.626 77.3157L162.163 65.8613C162.054 65.752 161.908 65.6895 161.751 65.6895H135.562C135.406 65.6895 135.26 65.752 135.151 65.8613L123.563 77.4407C123.333 77.6699 123.333 78.0398 123.563 78.2637L128.155 82.8528C128.265 82.9622 128.41 83.0247 128.567 83.0247H154.563C154.886 83.0247 155.147 83.2851 155.147 83.6081V88.6086C155.147 88.7649 155.209 88.9107 155.319 89.0201L160.516 94.2134C160.625 94.3228 160.771 94.3853 160.928 94.3853H171.473C171.796 94.3853 172.057 94.6457 172.057 94.9687V101.667C172.057 101.99 172.317 102.251 172.641 102.251H202.635C202.838 102.251 203.026 102.147 203.13 101.975C204.225 100.193 210.329 90.3849 211.126 91.1818H211.111Z" fill="white"/>
<path d="M227.13 78.6389L220.906 72.4195C220.796 72.3101 220.65 72.2476 220.494 72.2476H207.035C206.711 72.2476 206.451 72.508 206.451 72.831V78.7066C206.451 78.8629 206.513 79.0087 206.623 79.1181L215.026 87.5148C215.135 87.6242 215.281 87.6867 215.437 87.6867H224.638C224.914 87.6867 225.149 87.5044 225.206 87.2388C225.545 85.6969 226.671 80.6443 227.26 79.2692C227.354 79.0556 227.296 78.8108 227.13 78.6441V78.6389Z" fill="white"/>
<path d="M250.759 87.6816V76.8523C250.759 76.696 250.822 76.5502 250.931 76.4408L259.042 68.3357C259.152 68.2263 259.297 68.1638 259.454 68.1638H280.253C280.409 68.1638 280.555 68.2263 280.664 68.3357L289.505 77.17C289.615 77.2794 289.761 77.3419 289.917 77.3419H294.828C294.984 77.3419 295.13 77.4044 295.239 77.5138L315.23 97.4899C315.34 97.5993 315.486 97.6618 315.642 97.6618H319.896C320.052 97.6618 320.198 97.7243 320.307 97.8337L335.721 113.236C336.086 113.601 335.831 114.231 335.31 114.231H320.38C319.859 114.231 319.598 114.856 319.969 115.226L330.06 125.311C330.29 125.54 330.29 125.91 330.06 126.134L321.428 134.76C321.199 134.989 320.829 134.989 320.604 134.76L307.192 121.357C307.083 121.248 306.937 121.185 306.78 121.185H290.986C290.663 121.185 290.402 120.925 290.402 120.602V115.31C290.402 115.153 290.464 115.007 290.574 114.898L300.197 105.282C300.426 105.053 300.426 104.683 300.197 104.459L285.309 89.5828C285.21 89.4839 285.09 89.4266 284.955 89.4161C282.067 89.1609 249.367 86.296 250.759 87.6868V87.6816Z" fill="white"/>
<path d="M257.926 116.987L243.93 103.001C243.821 102.891 243.675 102.829 243.518 102.829H227.093C226.937 102.829 226.791 102.891 226.681 103.001L222.36 107.319C222.25 107.428 222.104 107.491 221.948 107.491H169.372C169.216 107.491 169.07 107.428 168.961 107.319L159.682 98.0471C159.572 97.9378 159.426 97.8752 159.27 97.8752H133.806C133.649 97.8752 133.503 97.8127 133.394 97.7034L123.969 88.2857C123.86 88.1763 123.714 88.1138 123.558 88.1138H107.57C107.414 88.1138 107.268 88.1763 107.158 88.2857L95.7685 99.6671C95.659 99.7765 95.513 99.839 95.3567 99.839H80.7558C80.5994 99.839 80.4534 99.7765 80.344 99.6671L69.3503 88.6815C69.2408 88.5722 69.0949 88.5096 68.9385 88.5096H23.6137C23.4573 88.5096 23.3114 88.5722 23.2019 88.6815L0.297126 111.58C0.0677656 111.809 0.0677656 112.179 0.297126 112.403L12.4637 124.56C12.693 124.79 12.693 125.154 12.4637 125.383L0.17202 137.666C-0.0573402 137.895 -0.0573402 138.265 0.17202 138.489L22.91 161.21C23.0195 161.32 23.1654 161.382 23.3218 161.382H38.2876C38.444 161.382 38.5899 161.32 38.6994 161.21L59.2011 140.724C59.3106 140.614 59.4565 140.552 59.6129 140.552H82.012C82.1684 140.552 82.3144 140.614 82.4238 140.724L135.505 193.766C135.615 193.875 135.677 194.021 135.677 194.177V222.993C135.677 223.149 135.74 223.295 135.849 223.405L169.529 257.059C169.638 257.169 169.701 257.315 169.701 257.471V277.369C169.701 277.525 169.763 277.671 169.873 277.78L200.706 308.591L207.144 315.024C207.253 315.133 207.399 315.196 207.556 315.196H231.857C232.014 315.196 232.16 315.258 232.269 315.368L240.912 324.004C241.021 324.114 241.167 324.176 241.324 324.176H252.458C252.615 324.176 252.761 324.239 252.87 324.348L259.912 331.385L274.466 345.928C274.696 346.158 275.066 346.158 275.29 345.928L279.153 342.069C279.262 341.959 279.408 341.897 279.564 341.897H289.041C289.364 341.897 289.625 341.636 289.625 341.313V338.448C289.625 338.292 289.563 338.146 289.453 338.037L286.685 335.271C286.576 335.162 286.43 335.099 286.273 335.099H276.651C276.494 335.099 276.348 335.037 276.239 334.927L268.998 327.692C268.889 327.583 268.826 327.437 268.826 327.281V318.248C268.826 318.092 268.764 317.946 268.654 317.837L256.847 306.039C256.738 305.929 256.675 305.783 256.675 305.627V298.001C256.675 297.678 256.415 297.418 256.091 297.418H247.49C247.334 297.418 247.188 297.48 247.079 297.59L240.813 303.851C240.703 303.96 240.558 304.023 240.401 304.023H225.68C225.357 304.023 225.097 303.762 225.097 303.439V277.853C225.097 277.697 225.159 277.551 225.269 277.442L235.616 267.102C235.725 266.993 235.871 266.93 236.028 266.93H265.667C265.824 266.93 265.97 266.993 266.079 267.102L274.534 275.551C274.899 275.916 275.53 275.66 275.53 275.139V261.93C275.53 261.773 275.592 261.628 275.702 261.518L292.706 244.527C292.815 244.417 292.878 244.271 292.878 244.115V234.744C292.878 234.588 292.94 234.442 293.05 234.333L306.994 220.399L318.629 208.768C318.858 208.538 319.228 208.538 319.452 208.768L327.105 216.414C327.334 216.643 327.704 216.643 327.928 216.414L340.559 203.793C340.668 203.684 340.814 203.621 340.971 203.621H366.383C366.706 203.621 366.966 203.361 366.966 203.038V192.792C366.966 192.636 366.904 192.49 366.794 192.38L360.914 186.505C360.805 186.395 360.742 186.249 360.742 186.093V174.925C360.742 174.769 360.68 174.623 360.57 174.514L332.974 146.938C332.745 146.709 332.38 146.709 332.151 146.938L323.065 156.017C322.835 156.246 322.465 156.246 322.241 156.017L313.692 147.474C313.583 147.365 313.52 147.219 313.52 147.063V140.359C313.52 140.203 313.458 140.057 313.348 139.948L305.821 132.426C305.712 132.317 305.566 132.254 305.409 132.254H290.636C290.48 132.254 290.334 132.192 290.225 132.082L275.827 117.695C275.728 117.596 275.603 117.534 275.462 117.528C273.627 117.403 260.366 116.513 258.495 117.127C258.286 117.195 258.072 117.138 257.916 116.987H257.926Z" fill="white"/>
<path d="M290.553 346.996L305.586 331.974C305.696 331.864 305.842 331.802 305.998 331.802H324.368C324.524 331.802 324.67 331.864 324.78 331.974L330.368 337.558C330.477 337.667 330.623 337.729 330.78 337.729H346.913C347.069 337.729 347.215 337.792 347.325 337.901L358.11 348.679C358.219 348.788 358.365 348.85 358.522 348.85H370.235C370.391 348.85 370.537 348.913 370.647 349.022L381.698 360.065C381.807 360.175 381.87 360.32 381.87 360.477V367.931C381.87 368.254 382.13 368.514 382.453 368.514H394.333C394.49 368.514 394.636 368.577 394.745 368.686L404.316 378.25C404.425 378.359 404.571 378.421 404.727 378.421H421.93C422.086 378.421 422.232 378.484 422.341 378.593L426.762 383.01C426.871 383.12 426.934 383.266 426.934 383.422V398.96C426.934 399.116 426.871 399.262 426.762 399.372L413.839 412.285C413.73 412.394 413.667 412.54 413.667 412.696V433.141C413.667 433.297 413.605 433.443 413.495 433.552L402.173 444.866L368.942 478.073L344.432 502.565C344.322 502.675 344.176 502.737 344.02 502.737H335.732C335.575 502.737 335.429 502.8 335.32 502.909L327.61 510.613C327.501 510.722 327.438 510.868 327.438 511.024V531.798C327.438 531.954 327.376 532.1 327.266 532.209L319.39 540.08C319.28 540.189 319.218 540.335 319.218 540.491V555.493C319.218 555.649 319.28 555.795 319.39 555.904L324.076 560.587C324.185 560.697 324.248 560.842 324.248 560.999V565.984C324.248 566.14 324.185 566.286 324.076 566.395L318.618 571.849C318.389 572.078 318.019 572.078 317.795 571.849L297.178 551.248C297.069 551.138 297.006 550.992 297.006 550.836V526.849C297.006 526.693 297.069 526.547 297.178 526.438L303.637 519.984C303.746 519.874 303.809 519.729 303.809 519.572V486.459C303.809 486.303 303.871 486.157 303.981 486.048L308.208 481.823C308.318 481.714 308.38 481.568 308.38 481.412V427.807C308.38 427.651 308.318 427.505 308.208 427.396L291.225 410.43L273.127 392.345C273.017 392.235 272.955 392.09 272.955 391.933V380.422C272.955 380.265 273.017 380.12 273.127 380.01L280.148 372.994C280.258 372.884 280.32 372.739 280.32 372.582V365.66C280.32 365.503 280.383 365.358 280.492 365.248L288.916 356.825C289.005 356.737 289.062 356.627 289.078 356.502C289.255 355.304 290.24 348.6 290.381 347.35C290.396 347.22 290.454 347.106 290.548 347.012L290.553 346.996Z" fill="white"/>
<path d="M513.716 240.417V217.607C513.716 217.284 513.976 217.024 514.3 217.024H533.884C534.04 217.024 534.186 216.961 534.296 216.852L540.129 211.023C540.358 210.794 540.358 210.429 540.129 210.2L528.708 198.787C528.478 198.558 528.478 198.188 528.708 197.964L533.665 193.011C533.774 192.901 533.92 192.839 534.077 192.839H544.038C544.362 192.839 544.622 192.578 544.622 192.255V184.973C544.622 184.65 544.883 184.39 545.206 184.39H555.459C555.616 184.39 555.762 184.327 555.871 184.218L565.442 174.655C565.551 174.545 565.697 174.483 565.854 174.483H570.618C570.775 174.483 570.92 174.42 571.03 174.311L576.227 169.117C576.336 169.008 576.482 168.946 576.639 168.946H610.506C610.829 168.946 611.09 168.685 611.09 168.362V156.418C611.09 156.095 611.35 155.835 611.674 155.835H620.421C620.744 155.835 621.004 155.574 621.004 155.251V145.005C621.004 144.849 620.942 144.703 620.832 144.594L613.305 137.072C613.196 136.963 613.133 136.817 613.133 136.661V126.363C613.133 126.207 613.196 126.061 613.305 125.951L621.906 117.357C622.271 116.992 622.016 116.362 621.494 116.362H615.416C615.26 116.362 615.114 116.424 615.005 116.534L601.425 130.103C601.316 130.212 601.253 130.358 601.253 130.514V150.35C601.253 150.506 601.191 150.652 601.081 150.761L589.384 162.45C589.155 162.679 588.784 162.679 588.56 162.45L576.863 150.761C576.754 150.652 576.608 150.589 576.451 150.589H560.948C560.625 150.589 560.365 150.329 560.365 150.006V136.265C560.365 136.109 560.427 135.963 560.537 135.853L605.674 90.7495C605.783 90.6401 605.929 90.5776 606.086 90.5776H617.846C618.002 90.5776 618.148 90.5151 618.257 90.4057L624.914 83.754C625.023 83.6446 625.169 83.5821 625.326 83.5821H641.751C641.908 83.5821 642.054 83.6446 642.163 83.754L652.901 94.4843C653.011 94.5937 653.157 94.6562 653.313 94.6562H666.241C666.397 94.6562 666.543 94.7187 666.652 94.8281L680.013 108.178C680.122 108.288 680.268 108.35 680.425 108.35H696.558C696.714 108.35 696.86 108.288 696.97 108.178L709.892 95.2656C710.002 95.1562 710.148 95.0937 710.304 95.0937H754.279C754.435 95.0937 754.581 95.0312 754.69 94.9218L772.351 77.2741C772.461 77.1647 772.607 77.1022 772.763 77.1022H804.42C804.576 77.1022 804.722 77.0397 804.832 76.9303L811.744 70.0233C811.853 69.9139 811.999 69.8514 812.156 69.8514H829.149C829.472 69.8514 829.733 69.591 829.733 69.268V59.6888C829.733 59.3659 829.994 59.1054 830.317 59.1054H855.145C855.302 59.1054 855.447 59.0429 855.557 58.9335L869.793 44.708C869.902 44.5986 870.048 44.5361 870.205 44.5361H903.54C903.697 44.5361 903.843 44.5986 903.952 44.708L915.321 56.0686C915.55 56.2978 915.55 56.6677 915.321 56.8917L905.651 66.5542C905.286 66.9188 905.542 67.5491 906.063 67.5491H960.093C960.25 67.5491 960.396 67.6116 960.505 67.721L973.719 80.9255C973.829 81.0349 973.975 81.0974 974.131 81.0974H996.822C996.979 81.0974 997.125 81.0349 997.234 80.9255L1005.27 72.8934C1005.38 72.784 1005.53 72.7215 1005.68 72.7215H1028.89C1029.04 72.7215 1029.19 72.784 1029.3 72.8934L1043.72 87.3012C1043.83 87.4106 1043.97 87.4731 1044.13 87.4731H1119.84C1120 87.4731 1120.15 87.5356 1120.25 87.645L1151.83 119.195C1152.19 119.56 1151.94 120.19 1151.42 120.19H1126.49C1126.17 120.19 1125.91 120.451 1125.91 120.774V131.936C1125.91 132.259 1125.65 132.52 1125.33 132.52H1109.82C1109.67 132.52 1109.52 132.582 1109.41 132.692L1092.85 149.245C1092.74 149.355 1092.59 149.417 1092.43 149.417H1072.85C1072.53 149.417 1072.27 149.678 1072.27 150.001V165.492C1072.27 165.648 1072.2 165.794 1072.09 165.904L1055.48 182.51C1055.11 182.874 1054.48 182.619 1054.48 182.098V156.069C1054.48 155.913 1054.54 155.767 1054.65 155.658L1073.45 136.869C1073.82 136.505 1073.56 135.874 1073.04 135.874H1052.68C1052.53 135.874 1052.38 135.937 1052.27 136.046L1040.88 147.428C1040.77 147.537 1040.62 147.599 1040.47 147.599H1011.87C1011.72 147.599 1011.57 147.662 1011.46 147.771L992.183 167.034C991.954 167.263 991.954 167.628 992.183 167.857L1001.26 176.926C1001.37 177.035 1001.43 177.181 1001.43 177.337V198.121C1001.43 198.277 1001.37 198.423 1001.26 198.532L986.71 213.07L978.135 221.639C978.025 221.748 977.879 221.811 977.723 221.811H969.315C969.158 221.811 969.012 221.873 968.903 221.983L954.693 236.182C954.463 236.411 954.093 236.411 953.869 236.182L946.509 228.827C946.399 228.718 946.253 228.655 946.097 228.655H936.427C936.104 228.655 935.844 228.916 935.844 229.239V247.642C935.844 247.798 935.906 247.944 936.016 248.053L942.964 254.997C943.074 255.106 943.136 255.252 943.136 255.408V272.696C943.136 272.853 943.074 272.999 942.964 273.108L918.965 297.09C918.855 297.199 918.709 297.262 918.553 297.262H893.527C893.37 297.262 893.224 297.324 893.115 297.434L886.046 304.497C885.817 304.726 885.817 305.096 886.046 305.32L902.446 321.707C902.555 321.816 902.618 321.962 902.618 322.119V333.286C902.618 333.443 902.555 333.589 902.446 333.698L891.66 344.475C891.431 344.704 891.061 344.704 890.837 344.475L882.21 335.854L871.544 325.197C871.18 324.832 870.549 325.088 870.549 325.608V339.693C870.549 339.85 870.611 339.995 870.721 340.105L881.167 350.544C881.277 350.653 881.339 350.799 881.339 350.955V360.67C881.339 361.19 880.714 361.451 880.344 361.081L856.292 337.047C856.182 336.938 856.12 336.792 856.12 336.636V319.202C856.12 319.045 856.057 318.899 855.948 318.79L847.764 310.612C847.654 310.503 847.592 310.357 847.592 310.201V293.329C847.592 293.006 847.331 292.746 847.008 292.746H832.892C832.736 292.746 832.59 292.808 832.48 292.917L806.583 318.795C806.474 318.905 806.411 319.051 806.411 319.207V335.62C806.411 335.776 806.349 335.922 806.239 336.032L795.162 347.1C794.797 347.465 794.167 347.21 794.167 346.689V332.604C794.167 332.448 794.104 332.302 793.995 332.193L783.548 321.754C783.439 321.645 783.376 321.499 783.376 321.342V295.897C783.376 295.376 782.751 295.116 782.38 295.485L776.646 301.215C776.417 301.444 776.047 301.444 775.823 301.215L769.093 294.491L763.14 288.542C763.031 288.433 762.885 288.37 762.728 288.37H734.934C734.413 288.37 734.152 288.995 734.522 289.365L738.797 293.641C739.026 293.871 739.026 294.235 738.797 294.464L719.994 313.253C719.885 313.362 719.739 313.425 719.583 313.425H710.445C710.288 313.425 710.142 313.487 710.033 313.597L693.269 330.349C693.039 330.578 692.669 330.578 692.445 330.349L677.724 315.639C677.615 315.529 677.552 315.383 677.552 315.227V302.892C677.552 302.736 677.49 302.59 677.38 302.481L662.274 287.386C662.164 287.276 662.102 287.13 662.102 286.974V273.764C662.102 273.608 662.039 273.462 661.93 273.353L648.371 259.804C648.142 259.575 648.142 259.211 648.371 258.981L657.311 250.048C657.541 249.819 657.541 249.454 657.311 249.225L652.062 243.98C651.953 243.87 651.807 243.808 651.65 243.808H643.388C643.232 243.808 643.086 243.745 642.976 243.636L629.908 230.577C629.798 230.468 629.652 230.405 629.496 230.405H618.659C618.336 230.405 618.075 230.666 618.075 230.989V239.485C618.075 240.005 617.449 240.266 617.079 239.896L586.418 209.257C586.053 208.893 585.422 209.148 585.422 209.669V217.925C585.422 218.081 585.485 218.227 585.594 218.336L596.041 228.775C596.15 228.884 596.213 229.03 596.213 229.187V237.151C596.213 237.672 595.587 237.932 595.217 237.562L571.697 214.06C571.468 213.831 571.098 213.831 570.874 214.06L564.9 220.029C564.79 220.139 564.644 220.201 564.488 220.201H552.196C551.873 220.201 551.612 220.462 551.612 220.785V226.077C551.612 226.233 551.55 226.379 551.44 226.488L543.741 234.182L537.33 240.589L529.761 248.152C529.583 248.329 529.312 248.376 529.088 248.262C526.951 247.157 516.275 241.667 514.102 240.933C513.867 240.854 513.716 240.636 513.716 240.386V240.417Z" fill="white"/>
<path d="M653.328 277.301L640.114 264.096C640.005 263.987 639.859 263.925 639.702 263.925H621.239C621.083 263.925 620.937 263.862 620.827 263.753L613.978 256.908C613.748 256.679 613.383 256.679 613.154 256.908L603.338 266.717C603.109 266.946 602.744 266.946 602.515 266.717L583.978 248.194L576.863 241.084C576.753 240.974 576.607 240.912 576.451 240.912H562.94C562.783 240.912 562.637 240.974 562.528 241.084L553.249 250.355C553.14 250.465 552.994 250.527 552.837 250.527H521.545C521.389 250.527 521.243 250.59 521.133 250.699L511.417 260.409C511.307 260.518 511.245 260.664 511.245 260.82V270.389C511.245 270.545 511.182 270.691 511.073 270.8L487.876 293.98C487.767 294.089 487.704 294.235 487.704 294.391V328.645C487.704 328.801 487.767 328.947 487.876 329.057L513.955 355.117C514.065 355.226 514.211 355.289 514.367 355.289H539.722C539.878 355.289 540.024 355.226 540.134 355.117L551.305 343.954C551.534 343.725 551.904 343.725 552.128 343.954L571.619 363.43C571.848 363.659 571.848 364.029 571.619 364.253L564.279 371.587C564.05 371.817 564.05 372.181 564.279 372.41L585.271 393.387C585.38 393.496 585.443 393.642 585.443 393.798V407.3C585.443 407.456 585.38 407.602 585.271 407.711L576.868 416.108C576.759 416.217 576.696 416.363 576.696 416.519V428.854C576.696 429.01 576.759 429.156 576.868 429.266L592.558 444.944C592.668 445.054 592.73 445.2 592.73 445.356V457.399C592.73 457.555 592.793 457.701 592.902 457.81L605.825 470.723C605.934 470.833 605.997 470.978 605.997 471.135V483.855C605.997 484.178 606.257 484.438 606.581 484.438H630.101C630.257 484.438 630.403 484.376 630.512 484.266L655.825 458.972C655.935 458.863 655.997 458.717 655.997 458.56V450.304C655.997 450.148 656.06 450.002 656.169 449.893L662.534 443.533C662.644 443.423 662.706 443.277 662.706 443.121V425.249C662.706 425.093 662.769 424.947 662.878 424.838L675.509 412.217C675.618 412.107 675.681 411.962 675.681 411.805V396.121C675.681 395.965 675.618 395.819 675.509 395.71L667.127 387.334C666.897 387.105 666.897 386.735 667.127 386.511L710.345 343.324C710.455 343.214 710.518 343.069 710.518 342.912V328.296C710.518 327.973 710.257 327.713 709.934 327.713H689.479C689.323 327.713 689.177 327.65 689.067 327.541L670.875 309.357L656.706 295.199C656.628 295.121 656.576 295.027 656.55 294.918C656.169 293.277 653.047 279.661 653.511 277.812C653.558 277.619 653.495 277.426 653.355 277.285L653.328 277.301Z" fill="white"/>
<path d="M684.547 449.32V442.158C684.547 442.001 684.61 441.856 684.719 441.746L689.917 436.553C690.026 436.444 690.089 436.298 690.089 436.141V420.603C690.089 420.447 690.151 420.301 690.261 420.192L698.809 411.649C698.919 411.54 699.065 411.477 699.221 411.477H709.037C709.36 411.477 709.621 411.738 709.621 412.061V424.781C709.621 424.937 709.558 425.083 709.449 425.192L701.921 432.714C701.812 432.823 701.749 432.969 701.749 433.125V450.414C701.749 450.57 701.687 450.716 701.577 450.825L692.205 460.191C691.939 460.457 691.501 460.405 691.303 460.092L684.641 449.633C684.584 449.539 684.547 449.429 684.547 449.32Z" fill="white"/>
<path d="M1005.42 398.226L1000.34 393.147C1000.23 393.038 1000.17 392.892 1000.17 392.736V388.167C1000.17 388.011 1000.11 387.865 999.996 387.756L995.675 383.438C995.566 383.328 995.42 383.266 995.263 383.266H979.808C979.651 383.266 979.505 383.203 979.396 383.094L971.233 374.937C971.003 374.708 971.003 374.338 971.233 374.114L976.821 368.53C977.05 368.301 977.42 368.301 977.644 368.53L985.953 376.833C986.183 377.062 986.553 377.062 986.777 376.833L991.442 372.171C991.552 372.061 991.698 371.999 991.854 371.999H1009.64C1009.8 371.999 1009.94 372.061 1010.05 372.171L1025.04 387.146L1036.87 398.971C1037.24 399.335 1036.98 399.966 1036.46 399.966H1026.45C1026.29 399.966 1026.14 399.903 1026.03 399.794L1017.21 390.975C1017.02 390.782 1016.72 390.746 1016.49 390.892C1014.76 392.001 1007.77 396.512 1006.25 398.215C1006.03 398.46 1005.65 398.455 1005.42 398.226H1005.42Z" fill="white"/>
<path d="M1003.33 425.937L1012.77 416.499C1013 416.27 1013.37 416.27 1013.6 416.499L1020.21 423.104C1020.32 423.213 1020.38 423.359 1020.38 423.515V433.131C1020.38 433.287 1020.44 433.433 1020.55 433.542L1034.18 447.158L1044.7 457.67C1044.81 457.779 1044.87 457.925 1044.87 458.081V471.583C1044.87 471.739 1044.81 471.885 1044.7 471.994L1034.54 482.141C1034.43 482.251 1034.37 482.397 1034.37 482.553V495.664C1034.37 495.82 1034.31 495.966 1034.2 496.075L1025.06 505.201C1024.84 505.43 1024.47 505.43 1024.24 505.201L1017.49 498.45C1017.26 498.221 1016.89 498.221 1016.66 498.45L1013.36 501.753C1013.25 501.862 1013.1 501.925 1012.95 501.925H1001.14C1000.82 501.925 1000.55 501.664 1000.55 501.341V492.262C1000.55 492.106 1000.49 491.96 1000.38 491.851L992.026 483.501C991.797 483.272 991.427 483.272 991.203 483.501L986.391 488.309C986.162 488.538 985.792 488.538 985.568 488.309L975.46 478.209C975.351 478.099 975.205 478.037 975.048 478.037H952.211C952.055 478.037 951.909 478.099 951.8 478.209L944.173 485.829C944.064 485.939 943.918 486.001 943.762 486.001H932.002C931.845 486.001 931.699 486.064 931.59 486.173L926.831 490.929C926.601 491.158 926.236 491.158 926.007 490.929L918.959 483.886C918.73 483.657 918.73 483.287 918.959 483.063L923.38 478.646C923.609 478.417 923.609 478.047 923.38 477.823L913.47 467.921C913.361 467.812 913.298 467.666 913.298 467.509V444.491C913.298 444.335 913.361 444.189 913.47 444.08L922.749 434.808C922.859 434.699 923.004 434.636 923.161 434.636H936.187C936.344 434.636 936.49 434.574 936.599 434.464L948.719 422.354L956.517 414.561C956.627 414.452 956.773 414.389 956.929 414.389H962.23C962.387 414.389 962.533 414.452 962.642 414.561L966.698 418.614C967.063 418.978 967.693 418.723 967.693 418.202V413.03C967.693 412.873 967.756 412.727 967.865 412.618L974.24 406.248C974.35 406.138 974.496 406.076 974.652 406.076H982.44C982.596 406.076 982.742 406.138 982.852 406.248L987.423 410.816C987.533 410.925 987.595 411.071 987.595 411.227V419.369C987.595 419.614 987.741 419.832 987.976 419.916C990.108 420.681 1000.56 424.479 1002.57 425.984C1002.81 426.161 1003.13 426.151 1003.34 425.942L1003.33 425.937Z" fill="white"/>
<path d="M1011.63 206.799V196.292C1011.63 196.136 1011.69 195.99 1011.8 195.881L1015.39 192.292C1015.5 192.182 1015.57 192.037 1015.57 191.88V174.498C1015.57 174.175 1015.31 173.915 1014.98 173.915H1009.88C1009.56 173.915 1009.3 174.175 1009.3 174.498V186.781C1009.3 186.937 1009.23 187.083 1009.12 187.192L1005.24 191.073C1005.13 191.182 1005.07 191.328 1005.07 191.484V205.215C1005.07 205.481 1005.24 205.71 1005.5 205.778C1006.58 206.069 1009.47 206.861 1010.86 207.346C1011.24 207.476 1011.63 207.194 1011.63 206.793V206.799Z" fill="white"/>
<path d="M1017.92 216.31L1011.9 210.299C1011.67 210.07 1011.3 210.07 1011.08 210.299L1005.08 216.295L1001.56 219.816C1001.19 220.18 1001.45 220.811 1001.97 220.811H1007.9C1008.06 220.811 1008.2 220.873 1008.31 220.983L1011.52 224.186C1011.75 224.415 1012.12 224.415 1012.34 224.186L1019.36 217.17C1019.36 217.17 1018.45 216.461 1018.15 216.393L1017.92 216.31Z" fill="white"/>
<path d="M1006.97 234.505V225.473C1006.97 225.15 1006.71 224.889 1006.39 224.889H1001.97C1001.81 224.889 1001.66 224.952 1001.56 225.061L998.834 227.78C998.725 227.889 998.662 228.035 998.662 228.192V237.469C998.662 237.625 998.599 237.771 998.49 237.88L989.722 246.642C989.613 246.751 989.467 246.813 989.31 246.813H976.894C976.737 246.813 976.591 246.876 976.482 246.985L968.939 254.523C968.574 254.887 968.829 255.518 969.351 255.518H988.945C989.102 255.518 989.248 255.455 989.357 255.346L993.845 250.861C993.955 250.751 994.101 250.689 994.257 250.689H1002.89C1003.21 250.689 1003.47 250.428 1003.47 250.105V239.646C1003.47 239.521 1003.51 239.401 1003.59 239.302C1004.27 238.396 1007.76 233.708 1006.98 234.5L1006.97 234.505Z" fill="white"/>
<path d="M918.834 379.958L923.567 375.228C923.677 375.119 923.739 374.973 923.739 374.817V371.369C923.739 371.212 923.802 371.067 923.911 370.957L928.16 366.712C928.269 366.603 928.415 366.54 928.571 366.54H931.511C932.033 366.54 932.293 365.915 931.923 365.545L927.805 361.43C927.696 361.321 927.633 361.175 927.633 361.019V353.309C927.633 353.153 927.696 353.007 927.805 352.898L930.594 350.111C930.823 349.882 930.823 349.512 930.594 349.288L927.795 346.491C927.565 346.262 927.195 346.262 926.971 346.491L918.37 355.086C918.261 355.195 918.115 355.258 917.958 355.258H913.048C912.891 355.258 912.746 355.32 912.636 355.429L904.546 363.514C904.317 363.743 903.952 363.743 903.722 363.514L901.121 360.914C900.892 360.685 900.527 360.685 900.297 360.914L896.31 364.899C896.08 365.128 896.08 365.498 896.31 365.722L903.451 372.858C903.561 372.968 903.623 373.114 903.623 373.27V378.739C903.623 379.047 903.858 379.302 904.165 379.323C906.61 379.458 916.556 380.01 918.381 380.14C918.547 380.151 918.714 380.094 918.834 379.974V379.958Z" fill="white"/>
<path d="M888.903 384.349V376.025C888.903 375.869 888.84 375.723 888.731 375.614L878.118 365.009L875.084 361.977C874.974 361.868 874.828 361.805 874.672 361.805H871.951C871.794 361.805 871.648 361.743 871.539 361.633L862.552 352.653C862.443 352.544 862.297 352.481 862.141 352.481H855.625C855.103 352.481 854.843 353.106 855.213 353.476L865.998 364.253C866.107 364.363 866.17 364.509 866.17 364.665V369.717C866.17 369.874 866.232 370.02 866.342 370.129L871.711 375.494L883.346 387.12C883.455 387.23 883.601 387.292 883.758 387.292H888.637C888.955 387.292 889.215 387.042 889.221 386.725C889.231 386.094 889.215 385.105 889.007 384.672C888.96 384.568 888.908 384.464 888.908 384.349H888.903Z" fill="white"/>
<path d="M889.742 390.678L892.812 387.61C892.922 387.501 893.068 387.438 893.224 387.438H898.572C898.729 387.438 898.875 387.501 898.984 387.61L901.705 390.329C901.815 390.439 901.96 390.501 902.117 390.501H913.731C913.887 390.501 914.033 390.564 914.143 390.673L919.027 395.554C919.392 395.918 919.136 396.549 918.615 396.549H906.344C906.188 396.549 906.042 396.486 905.933 396.377L904.197 394.642C904.087 394.533 903.941 394.47 903.785 394.47H896.883C896.81 394.47 896.743 394.46 896.675 394.434C895.976 394.158 891.639 392.444 889.898 391.621C889.539 391.449 889.455 390.97 889.742 390.683V390.678Z" fill="white"/>
<path d="M176.905 65.9342H185.99C186.147 65.9342 186.293 65.8717 186.402 65.7623L192.282 59.8866C192.392 59.7773 192.538 59.7147 192.694 59.7147H197.312C197.636 59.7147 197.896 59.4543 197.896 59.1313V54.86C197.896 54.5371 197.636 54.2766 197.312 54.2766H188.764C188.44 54.2766 188.18 54.0162 188.18 53.6933V49.8074C188.18 49.4845 187.919 49.224 187.596 49.224H179.824C179.5 49.224 179.24 49.4845 179.24 49.8074V55.9748C179.24 56.4956 178.614 56.7561 178.244 56.3863L172.411 50.5575C172.302 50.4481 172.156 50.3856 171.999 50.3856H164.321C164.165 50.3856 164.019 50.3231 163.909 50.2137L160.365 46.6717C160.255 46.5623 160.109 46.4998 159.953 46.4998H149.553C149.397 46.4998 149.251 46.5623 149.141 46.6717L142.146 53.662C141.781 54.0266 142.037 54.6569 142.558 54.6569H151.013C151.169 54.6569 151.315 54.5944 151.425 54.485L155.313 50.5992C155.543 50.37 155.913 50.37 156.137 50.5992L160.172 54.6309C160.401 54.86 160.401 55.2299 160.172 55.4539L158.274 57.3499C157.909 57.7145 158.165 58.3448 158.686 58.3448H170.493C170.816 58.3448 171.077 58.6052 171.077 58.9282V65.0278C171.077 65.3195 171.29 65.5643 171.577 65.606C173.073 65.8196 177.389 66.403 176.91 65.9238L176.905 65.9342Z" fill="white"/>
<path d="M239.468 79.1546L247.428 71.2006C247.657 70.9714 247.657 70.6015 247.428 70.3776L244.316 67.2678C244.207 67.1585 244.061 67.0959 243.904 67.0959H231.514C231.19 67.0959 230.93 67.3564 230.93 67.6793V72.6434C230.93 72.8205 231.008 72.9872 231.149 73.0966L238.686 79.1962C238.916 79.3837 239.254 79.3681 239.463 79.1546H239.468Z" fill="white"/>
<path d="M183.906 40.1553V36.6081C183.906 36.2851 183.645 36.0247 183.322 36.0247H172.099C171.942 36.0247 171.796 36.0872 171.687 36.1965L167.798 40.0824C167.433 40.447 167.689 41.0773 168.21 41.0773H174.726C175.247 41.0773 175.508 41.7024 175.138 42.0722L173.631 43.5776C173.266 43.9422 173.522 44.5725 174.043 44.5725H179.36C179.532 44.5725 179.689 44.5048 179.798 44.3693C180.424 43.6297 182.618 41.0825 183.551 40.6866C183.765 40.5929 183.9 40.3897 183.9 40.1553H183.906Z" fill="white"/>
</g>
<path d="M167.213 149C152.759 149 141 160.761 141 175.216C141 189.129 164.784 221.637 165.797 223.014L166.742 224.3C166.852 224.451 167.028 224.54 167.213 224.54C167.402 224.54 167.576 224.451 167.688 224.3L168.633 223.014C169.646 221.637 193.429 189.129 193.429 175.216C193.429 160.761 181.668 149 167.213 149ZM167.213 165.825C172.392 165.825 176.604 170.037 176.604 175.216C176.604 180.392 172.392 184.606 167.213 184.606C162.038 184.606 157.823 180.392 157.823 175.216C157.823 170.037 162.037 165.825 167.213 165.825Z" fill="#FF0000"/>
<path d="M167.213 149C152.759 149 141 160.761 141 175.216C141 189.129 164.784 221.637 165.797 223.014L166.742 224.3C166.852 224.451 167.028 224.54 167.213 224.54C167.402 224.54 167.576 224.451 167.688 224.3L168.633 223.014C169.646 221.637 193.429 189.129 193.429 175.216C193.429 160.761 181.668 149 167.213 149ZM167.213 165.825C172.392 165.825 176.604 170.037 176.604 175.216C176.604 180.392 172.392 184.606 167.213 184.606C162.038 184.606 157.823 180.392 157.823 175.216C157.823 170.037 162.037 165.825 167.213 165.825Z" fill="#FF0000"/>
<path d="M710.213 153C695.759 153 684 164.761 684 179.216C684 193.129 707.784 225.637 708.797 227.014L709.742 228.3C709.852 228.451 710.028 228.54 710.213 228.54C710.402 228.54 710.576 228.451 710.688 228.3L711.633 227.014C712.646 225.637 736.429 193.129 736.429 179.216C736.429 164.761 724.668 153 710.213 153ZM710.213 169.825C715.392 169.825 719.604 174.037 719.604 179.216C719.604 184.392 715.392 188.606 710.213 188.606C705.038 188.606 700.823 184.392 700.823 179.216C700.823 174.037 705.037 169.825 710.213 169.825Z" fill="#FF0000"/>
<path d="M710.213 153C695.759 153 684 164.761 684 179.216C684 193.129 707.784 225.637 708.797 227.014L709.742 228.3C709.852 228.451 710.028 228.54 710.213 228.54C710.402 228.54 710.576 228.451 710.688 228.3L711.633 227.014C712.646 225.637 736.429 193.129 736.429 179.216C736.429 164.761 724.668 153 710.213 153ZM710.213 169.825C715.392 169.825 719.604 174.037 719.604 179.216C719.604 184.392 715.392 188.606 710.213 188.606C705.038 188.606 700.823 184.392 700.823 179.216C700.823 174.037 705.037 169.825 710.213 169.825Z" fill="#FF0000"/>
</g>
<defs>
<filter id="filter0_d_151_41" x="-3" y="-3" width="1164" height="584.021" filterUnits="userSpaceOnUse" color-interpolation-filters="sRGB">
<feFlood flood-opacity="0" result="BackgroundImageFix"/>
<feColorMatrix in="SourceAlpha" type="matrix" values="0 0 0 0 0 0 0 0 0 0 0 0 0 0 0 0 0 0 127 0" result="hardAlpha"/>
<feOffset dx="3" dy="3"/>
<feGaussianBlur stdDeviation="3"/>
<feColorMatrix type="matrix" values="0 0 0 0 0.0588235 0 0 0 0 0.101961 0 0 0 0 0.109804 0 0 0 0.1 0"/>
<feBlend mode="normal" in2="BackgroundImageFix" result="effect1_dropShadow_151_41"/>
<feBlend mode="normal" in="SourceGraphic" in2="effect1_dropShadow_151_41" result="shape"/>
</filter>
<clipPath id="clip0_151_41">
<rect width="1152" height="572" fill="white"/>
</clipPath>
</defs>
</svg>
