<svg width="15" height="15" viewBox="0 0 19 19" fill="none" xmlns="http://www.w3.org/2000/svg">
<path d="M5.54012 0C2.48508 0 0 2.48738 0 5.54321V13.4599C0 16.5149 2.48738 19 5.54321 19H13.4599C16.5149 19 19 16.5126 19 13.4568V5.54012C19 2.48508 16.5126 0 13.4568 0H5.54012ZM15.0417 3.16667C15.4787 3.16667 15.8333 3.52133 15.8333 3.95833C15.8333 4.39533 15.4787 4.75 15.0417 4.75C14.6047 4.75 14.25 4.39533 14.25 3.95833C14.25 3.52133 14.6047 3.16667 15.0417 3.16667ZM9.5 4.75C12.1196 4.75 14.25 6.88038 14.25 9.5C14.25 12.1196 12.1196 14.25 9.5 14.25C6.88038 14.25 4.75 12.1196 4.75 9.5C4.75 6.88038 6.88038 4.75 9.5 4.75ZM9.5 6.33333C8.66015 6.33333 7.85469 6.66696 7.26083 7.26083C6.66696 7.85469 6.33333 8.66015 6.33333 9.5C6.33333 10.3399 6.66696 11.1453 7.26083 11.7392C7.85469 12.333 8.66015 12.6667 9.5 12.6667C10.3399 12.6667 11.1453 12.333 11.7392 11.7392C12.333 11.1453 12.6667 10.3399 12.6667 9.5C12.6667 8.66015 12.333 7.85469 11.7392 7.26083C11.1453 6.66696 10.3399 6.33333 9.5 6.33333Z" fill="#45AFF7"/>
</svg>
