<svg width="14" height="14" viewBox="0 0 21 22" fill="none" xmlns="http://www.w3.org/2000/svg">
<path d="M2.57497 3.28305e-05C2.06715 -0.00253743 1.57003 0.145862 1.14673 0.426387C0.723422 0.706912 0.393031 1.10691 0.19751 1.57558C0.00198935 2.04425 -0.0498416 2.56045 0.0485989 3.05864C0.147039 3.55683 0.39131 4.01452 0.750394 4.37361C1.10948 4.73269 1.56717 4.97696 2.06536 5.0754C2.56355 5.17384 3.07975 5.12201 3.54842 4.92649C4.0171 4.73097 4.41709 4.40058 4.69761 3.97727C4.97814 3.55397 5.12654 3.05685 5.12397 2.54903C5.1237 1.87308 4.85506 1.22488 4.37709 0.746911C3.89912 0.268938 3.25092 0.000297859 2.57497 3.28305e-05ZM15.019 6.75603C14.2156 6.71397 13.4168 6.90178 12.7163 7.29745C12.0159 7.69312 11.4427 8.28025 11.064 8.99003H11.002V7.05603H6.77997V21.234H11.18V14.216C11.18 12.367 11.32 10.58 13.608 10.58C15.864 10.58 15.897 12.689 15.897 14.333V21.233H20.297V13.446C20.293 9.63603 19.473 6.75603 15.018 6.75603H15.019ZM0.374968 7.05603V21.234H4.77497V7.05603H0.374968Z" fill="#45AFF7"/>
</svg>
