<svg id="b" xmlns="http://www.w3.org/2000/svg" xmlns:xlink="http://www.w3.org/1999/xlink" width="207.402" height="66.319" viewBox="0 0 207.402 66.319">
  <defs>
    <linearGradient id="linear-gradient" x1="0.5" y1="-0.203" x2="0.5" y2="1.088" gradientUnits="objectBoundingBox">
      <stop offset="0.05" stop-color="#fff"/>
      <stop offset="0.08" stop-color="#d5f1f6"/>
      <stop offset="0.11" stop-color="#b1e5ee"/>
      <stop offset="0.15" stop-color="#91dbe7"/>
      <stop offset="0.19" stop-color="#78d3e2"/>
      <stop offset="0.23" stop-color="#64ccde"/>
      <stop offset="0.28" stop-color="#56c8db"/>
      <stop offset="0.34" stop-color="#4ec5d9"/>
      <stop offset="0.45" stop-color="#4cc5d9"/>
      <stop offset="0.73" stop-color="#55b4dc"/>
      <stop offset="0.86" stop-color="#5aabdf"/>
    </linearGradient>
  </defs>
  <g id="c">
    <g id="Group_1" data-name="Group 1" transform="translate(70.007 14.268)">
      <path id="Path_1" data-name="Path 1" d="M357.776,79.91V89.5a1.6,1.6,0,0,1-3.2,0c-.014-.457,0-.91,0-1.368V76.493a3.584,3.584,0,0,1,.11-.958,1.361,1.361,0,0,1,1.287-1.029,2.013,2.013,0,0,1,1.7.567c.262.257.529.515.772.786q2.33,2.595,4.646,5.2c.1.11.2.214.334.357.119-.129.229-.238.329-.357q2.352-2.631,4.7-5.266c.2-.229.41-.462.634-.677a2.176,2.176,0,0,1,2-.577,1.435,1.435,0,0,1,1.153,1.339,5.3,5.3,0,0,1,.024.615V89.2c0,.133,0,.267,0,.4a1.451,1.451,0,0,1-1.573,1.434,1.468,1.468,0,0,1-1.62-1.434c-.01-.162,0-.324,0-.486v-9.2l-.119-.062c-.086.114-.162.234-.257.343-1.249,1.392-2.516,2.764-3.736,4.175a1.862,1.862,0,0,1-3.055,0c-1.215-1.4-2.473-2.764-3.708-4.141l-.315-.343-.091.033Z" transform="translate(-255.6 -53.261)"/>
      <path id="Path_2" data-name="Path 2" d="M159,40.369c.1.138.191.253.281.367.8.963,1.6,1.925,2.383,2.893a7.019,7.019,0,0,1,.658.934,1.384,1.384,0,0,1-.114,1.682,1.61,1.61,0,0,1-1.778.41,2.518,2.518,0,0,1-1.039-.8c-.329-.4-.643-.8-.963-1.206-.944-1.2-1.892-2.4-2.831-3.612a.549.549,0,0,0-.472-.253c-1.573.01-3.145,0-4.723,0-.071,0-.143.01-.262.019V45.1a1.586,1.586,0,0,1-2.192,1.587,1.314,1.314,0,0,1-.963-1,2.857,2.857,0,0,1-.076-.7c0-3.822-.01-7.644,0-11.466a10.371,10.371,0,0,1,.162-1.62,1.446,1.446,0,0,1,1.206-1.249,5.493,5.493,0,0,1,1.172-.176q4.039-.021,8.073,0a4.906,4.906,0,0,1,2.211.543,4.727,4.727,0,0,1,2.678,4.07,5.442,5.442,0,0,1-.2,2.092,4.7,4.7,0,0,1-2.592,2.9c-.2.1-.4.181-.624.281Zm-8.859-2.593c.119.01.176.024.234.024q3.31,0,6.615,0a3.319,3.319,0,0,0,.782-.1,1.741,1.741,0,0,0,1.353-1.311,3.007,3.007,0,0,0,0-1.525,1.63,1.63,0,0,0-1.153-1.225,3.665,3.665,0,0,0-1.034-.167c-2.087-.014-4.175-.01-6.262,0-.453,0-.515.062-.519.51-.01.763,0,1.53,0,2.292v1.53Z" transform="translate(-146.901 -30.213)"/>
      <path id="Path_3" data-name="Path 3" d="M155.049,74.5a13.227,13.227,0,0,1,4.8.724,6.929,6.929,0,0,1,2.035,1.129,3.334,3.334,0,0,1,.681.739,1.391,1.391,0,0,1-1.382,2.145,1.936,1.936,0,0,1-1.029-.353,7,7,0,0,0-3.6-1.33,13.712,13.712,0,0,0-4.475.234,3.636,3.636,0,0,0-1.406.61,1.387,1.387,0,0,0-.62,1.115.959.959,0,0,0,.772,1.082,9.654,9.654,0,0,0,1.7.253c.982.067,1.968.067,2.955.114a26.045,26.045,0,0,1,3.941.438,7.209,7.209,0,0,1,2.44.986,3.563,3.563,0,0,1,1.468,2.278,4.764,4.764,0,0,1,.038,2.273,4.187,4.187,0,0,1-1.868,2.631,7.848,7.848,0,0,1-2.94,1.139,17.933,17.933,0,0,1-8.216-.3,7.359,7.359,0,0,1-2.569-1.23,2.756,2.756,0,0,1-.586-.591,1.488,1.488,0,0,1,.01-1.735,1.467,1.467,0,0,1,1.654-.51,2.193,2.193,0,0,1,.6.276,7.38,7.38,0,0,0,3.012,1.191,14.639,14.639,0,0,0,5.614-.048,4.055,4.055,0,0,0,1.544-.629,1.718,1.718,0,0,0,.8-1.492,1.225,1.225,0,0,0-.681-1.149,3.634,3.634,0,0,0-1.6-.443c-1.339-.067-2.678-.1-4.013-.186-1.215-.081-2.435-.186-3.646-.343a6.628,6.628,0,0,1-1.511-.453,3.049,3.049,0,0,1-1.911-2.311,5.138,5.138,0,0,1-.038-2.316,4.022,4.022,0,0,1,1.754-2.5,8.009,8.009,0,0,1,2.983-1.153,16.135,16.135,0,0,1,3.3-.291Z" transform="translate(-146.9 -53.263)"/>
      <path id="Path_4" data-name="Path 4" d="M239.179,74.5a13.227,13.227,0,0,1,4.8.724,6.929,6.929,0,0,1,2.035,1.129,3.334,3.334,0,0,1,.681.739,1.391,1.391,0,0,1-1.382,2.145,1.936,1.936,0,0,1-1.029-.353,7,7,0,0,0-3.6-1.33,13.712,13.712,0,0,0-4.475.234,3.636,3.636,0,0,0-1.406.61,1.387,1.387,0,0,0-.62,1.115.959.959,0,0,0,.772,1.082,9.654,9.654,0,0,0,1.7.253c.982.067,1.968.067,2.955.114a26.045,26.045,0,0,1,3.941.438,7.209,7.209,0,0,1,2.44.986,3.563,3.563,0,0,1,1.468,2.278,4.764,4.764,0,0,1,.038,2.273,4.187,4.187,0,0,1-1.868,2.631,7.848,7.848,0,0,1-2.94,1.139,17.933,17.933,0,0,1-8.216-.3,7.359,7.359,0,0,1-2.569-1.23,2.756,2.756,0,0,1-.586-.591,1.488,1.488,0,0,1,.01-1.735,1.467,1.467,0,0,1,1.654-.51,2.193,2.193,0,0,1,.6.276,7.38,7.38,0,0,0,3.012,1.191,14.639,14.639,0,0,0,5.614-.048,4.055,4.055,0,0,0,1.544-.629,1.718,1.718,0,0,0,.8-1.492,1.225,1.225,0,0,0-.681-1.149,3.633,3.633,0,0,0-1.6-.443c-1.339-.067-2.678-.1-4.013-.186-1.215-.081-2.435-.186-3.646-.343a6.628,6.628,0,0,1-1.511-.453,3.049,3.049,0,0,1-1.911-2.311,5.139,5.139,0,0,1-.038-2.316,4.022,4.022,0,0,1,1.754-2.5,8.009,8.009,0,0,1,2.983-1.153,16.135,16.135,0,0,1,3.3-.291Z" transform="translate(-190.937 -53.263)"/>
      <path id="Path_5" data-name="Path 5" d="M408.554,74.5a13.2,13.2,0,0,1,4.789.724,6.918,6.918,0,0,1,2,1.106,3.484,3.484,0,0,1,.691.734,1.392,1.392,0,0,1-1.363,2.178,2.113,2.113,0,0,1-1.106-.405,7.223,7.223,0,0,0-3.874-1.311,13.774,13.774,0,0,0-4.122.267,3.708,3.708,0,0,0-1.406.61,1.382,1.382,0,0,0-.615,1.072.962.962,0,0,0,.777,1.12,10.119,10.119,0,0,0,1.7.253c.982.067,1.968.067,2.955.114a28.424,28.424,0,0,1,3.813.41,8.669,8.669,0,0,1,2,.681,3.523,3.523,0,0,1,1.968,2.354,4.991,4.991,0,0,1,.1,2.526,4.182,4.182,0,0,1-1.868,2.626,7.877,7.877,0,0,1-2.9,1.129,17.857,17.857,0,0,1-8.259-.3,7.206,7.206,0,0,1-2.569-1.234,2.884,2.884,0,0,1-.629-.667,1.457,1.457,0,0,1,1.673-2.173,1.916,1.916,0,0,1,.562.243,7.97,7.97,0,0,0,3.608,1.325,14.729,14.729,0,0,0,5.09-.133,4.034,4.034,0,0,0,1.539-.629,1.729,1.729,0,0,0,.791-1.449,1.26,1.26,0,0,0-.724-1.215,3.624,3.624,0,0,0-1.52-.415c-1.339-.067-2.674-.124-4.013-.176a25.9,25.9,0,0,1-3.689-.348,8.166,8.166,0,0,1-1.473-.443,3.056,3.056,0,0,1-1.949-2.33,5.071,5.071,0,0,1-.033-2.316,4.022,4.022,0,0,1,1.754-2.5,7.951,7.951,0,0,1,2.983-1.149,16.186,16.186,0,0,1,3.317-.291Z" transform="translate(-279.582 -53.258)"/>
      <path id="Path_6" data-name="Path 6" d="M317.31,81.381h8.049a3.636,3.636,0,0,1,.786.076,1.168,1.168,0,0,1,.972,1.01,2.562,2.562,0,0,1,.014.739,1.207,1.207,0,0,1-1.048,1.1,3.829,3.829,0,0,1-.7.062h-8.054a2.081,2.081,0,0,0-.043.31v2.778c0,.51.081.591.586.591h4.9c1.558,0,3.121,0,4.68,0a3.361,3.361,0,0,1,.872.1,1.107,1.107,0,0,1,.853.92,2.566,2.566,0,0,1,0,.915,1.194,1.194,0,0,1-1.01.982,3.452,3.452,0,0,1-.7.062c-3.412,0-6.829.01-10.241,0a10.247,10.247,0,0,1-1.62-.153,1.532,1.532,0,0,1-1.406-1.411,10.729,10.729,0,0,1-.138-1.4q-.014-5.075,0-10.146a9.21,9.21,0,0,1,.157-1.487,1.452,1.452,0,0,1,1.225-1.282,8.907,8.907,0,0,1,1.658-.2c3.488-.019,6.972-.01,10.461-.01.071,0,.148,0,.219,0,1.3.1,1.563.958,1.42,1.878a1.291,1.291,0,0,1-1.263,1.091c-.2.019-.41.014-.62.014h-9.312c-.7,0-.715.019-.72.724v2.292c0,.129.01.257.019.429Z" transform="translate(-234.393 -53.492)"/>
      <path id="Path_7" data-name="Path 7" d="M322.042,36.87h.572q3.753,0,7.506,0a3.634,3.634,0,0,1,.91.11,1.042,1.042,0,0,1,.8.853,3.07,3.07,0,0,1,0,1.044,1.156,1.156,0,0,1-1.02.91,4.437,4.437,0,0,1-.834.057h-7.925c-.014.153-.033.262-.033.376V42.87a1.693,1.693,0,0,0,.019.31.34.34,0,0,0,.348.329c.133,0,.267,0,.4,0h9.36a3.709,3.709,0,0,1,.829.081,1.173,1.173,0,0,1,.963,1.02,2.65,2.65,0,0,1,.014.7,1.208,1.208,0,0,1-1.02,1.12,3.456,3.456,0,0,1-.7.067c-3.427,0-6.858.01-10.284,0a10.845,10.845,0,0,1-1.706-.176,1.449,1.449,0,0,1-1.277-1.277,7.079,7.079,0,0,1-.138-1.177q-.014-5.4,0-10.808A6.773,6.773,0,0,1,319,31.752a1.354,1.354,0,0,1,1.044-1.087,7.014,7.014,0,0,1,1.258-.214c.6-.038,1.206-.024,1.811-.024h9.05a3.482,3.482,0,0,1,.915.1,1.116,1.116,0,0,1,.858.963,2.719,2.719,0,0,1,.01.786,1.2,1.2,0,0,1-1.068,1.072,4.878,4.878,0,0,1-.834.062h-9.269c-.71,0-.743.029-.748.743v2.292c0,.114.014.229.024.405Z" transform="translate(-236.885 -30.194)"/>
      <path id="Path_8" data-name="Path 8" d="M195.722,46.5a11.262,11.262,0,0,1-4.513-.867,7.484,7.484,0,0,1-4.332-4.5,9,9,0,0,1,.033-5.928,7.135,7.135,0,0,1,2.716-3.493,9.408,9.408,0,0,1,4.408-1.663,12.568,12.568,0,0,1,4.985.329,8.9,8.9,0,0,1,3.3,1.716A7.222,7.222,0,0,1,205,37.227a9.351,9.351,0,0,1-.286,3.541,7.525,7.525,0,0,1-4.3,4.8,11.192,11.192,0,0,1-4.675.939Zm-.019-2.883a7.041,7.041,0,0,0,2.43-.367,5.054,5.054,0,0,0,3.379-3.331,5.647,5.647,0,0,0,.229-1.83,4.852,4.852,0,0,0-3.155-4.713,7.265,7.265,0,0,0-5.833.033,4.632,4.632,0,0,0-2.888,3.384,7.182,7.182,0,0,0-.148,1.663,4.812,4.812,0,0,0,2.983,4.551,6.906,6.906,0,0,0,3,.605Z" transform="translate(-167.571 -29.94)"/>
      <path id="Path_9" data-name="Path 9" d="M279.017,37.42l.486-.329q4.654-3.2,9.3-6.405a4.014,4.014,0,0,1,1.325-.677,1.554,1.554,0,0,1,1.725.667,1.473,1.473,0,0,1-.219,1.792,3.792,3.792,0,0,1-.672.562q-2.938,2.03-5.89,4.051c-.133.091-.262.181-.419.3.133.124.234.224.338.319q3.167,2.781,6.329,5.566a5.72,5.72,0,0,1,.853.944,1.408,1.408,0,0,1-.014,1.687,1.469,1.469,0,0,1-1.606.553,3.028,3.028,0,0,1-.758-.348,6.579,6.579,0,0,1-.772-.586q-3.388-2.959-6.777-5.928c-.11-.1-.224-.186-.357-.3-.153.1-.3.191-.438.291-.691.477-1.368.972-2.068,1.43a.763.763,0,0,0-.381.758c.019.986.01,1.968,0,2.955,0,.162,0,.324-.014.486a1.365,1.365,0,0,1-1.172,1.253,2.688,2.688,0,0,1-.829,0,1.375,1.375,0,0,1-1.172-1.258,4.9,4.9,0,0,1-.019-.529V31.787a3.116,3.116,0,0,1,.11-.867,1.286,1.286,0,0,1,.92-.877,1.894,1.894,0,0,1,1.044-.029,1.407,1.407,0,0,1,1.115,1.268,4.138,4.138,0,0,1,.014.486V37.43Z" transform="translate(-214.371 -29.947)"/>
      <path id="Path_10" data-name="Path 10" d="M242.073,46.516a11.892,11.892,0,0,1-5.185-.953,7.449,7.449,0,0,1-4.294-4.856,9.129,9.129,0,0,1,.052-5.133,7.448,7.448,0,0,1,4.027-4.561,9.982,9.982,0,0,1,3.989-1.02,12.445,12.445,0,0,1,5.457.753,7.27,7.27,0,0,1,1.968,1.163,2.714,2.714,0,0,1,.405.405,1.419,1.419,0,0,1,.157,1.716,1.518,1.518,0,0,1-1.658.639,2.777,2.777,0,0,1-.867-.405A7.365,7.365,0,0,0,242.63,32.9a7.671,7.671,0,0,0-3.65.372,5.04,5.04,0,0,0-3.4,5.471,5.147,5.147,0,0,0,4.675,4.789,8.5,8.5,0,0,0,3.584-.191,6.534,6.534,0,0,0,2.24-1.11,2.35,2.35,0,0,1,1.067-.5,1.435,1.435,0,0,1,1.415.529,1.363,1.363,0,0,1,.162,1.492,2.431,2.431,0,0,1-.824.958,8.2,8.2,0,0,1-3.66,1.549c-.853.143-1.72.2-2.164.253Z" transform="translate(-191.576 -29.951)"/>
      <path id="Path_11" data-name="Path 11" d="M196.35,81.033c.138-.129.257-.234.376-.343q3.038-2.824,6.076-5.647a1.814,1.814,0,0,1,1.43-.558,1.548,1.548,0,0,1,1.22,2.373,2.987,2.987,0,0,1-.553.624q-3.3,3.06-6.619,6.1a.919.919,0,0,0-.334.758c.014,1.587.01,3.174,0,4.761a3.848,3.848,0,0,1-.052.743,1.331,1.331,0,0,1-.944,1.068,1.962,1.962,0,0,1-1.087.043,1.423,1.423,0,0,1-1.129-1.353c-.014-.162-.01-.324-.01-.486,0-1.616-.01-3.236,0-4.851a.793.793,0,0,0-.286-.643q-3.317-3.038-6.619-6.1a4.184,4.184,0,0,1-.434-.438,1.635,1.635,0,0,1,0-2.106,1.673,1.673,0,0,1,2.135-.234,3.576,3.576,0,0,1,.438.367q3.009,2.788,6.014,5.585c.119.11.238.214.367.329Z" transform="translate(-167.894 -53.245)"/>
      <path id="Path_12" data-name="Path 12" d="M366.631,33.443V44.819a4.389,4.389,0,0,1-.052.748,1.345,1.345,0,0,1-1.129,1.144,2.434,2.434,0,0,1-.743.024,1.419,1.419,0,0,1-1.3-1.387c-.014-.176-.01-.353-.01-.529V33.448h-5.109a4.427,4.427,0,0,1-.791-.062,1.256,1.256,0,0,1-1.091-1.206,2.751,2.751,0,0,1,0-.4,1.293,1.293,0,0,1,1.2-1.3,4.422,4.422,0,0,1,.615-.024h13.592a3.818,3.818,0,0,1,.872.091,1.139,1.139,0,0,1,.905.972,2.553,2.553,0,0,1-.01.872,1.178,1.178,0,0,1-1.006.982,4.362,4.362,0,0,1-.791.071c-1.544,0-3.088,0-4.632,0h-.519Z" transform="translate(-256.56 -30.212)"/>
      <path id="Path_13" data-name="Path 13" d="M278.106,77.961h-5.266a3.177,3.177,0,0,1-.824-.1,1.1,1.1,0,0,1-.858-.91,3.067,3.067,0,0,1-.01-.91,1.163,1.163,0,0,1,.953-.982,3.231,3.231,0,0,1,.743-.081q6.863,0,13.725,0a3.112,3.112,0,0,1,.786.091,1.206,1.206,0,0,1,.953,1.082,2.7,2.7,0,0,1,.024.438A1.33,1.33,0,0,1,287,77.956c-.176.014-.353.01-.529.01h-5.133c0,.191-.014.357-.019.529q0,5.49,0,10.98a3.173,3.173,0,0,1-.1.824,1.278,1.278,0,0,1-.891.9,1.967,1.967,0,0,1-1.172.019,1.355,1.355,0,0,1-1.02-1.2,4.957,4.957,0,0,1-.029-.705V77.966Z" transform="translate(-211.92 -53.513)"/>
    </g>
    <path id="Path_14" data-name="Path 14" d="M67.377,11.7v42.91H85.662v11.7H0V0H85.662V11.7Z" fill="url(#linear-gradient)"/>
    <g id="Group_2" data-name="Group 2" transform="translate(6.273 19.328)">
      <path id="Path_15" data-name="Path 15" d="M33.358,57.553c.176.234.319.424.472.61,1.33,1.611,2.669,3.212,3.984,4.832a11.378,11.378,0,0,1,1.1,1.563,2.3,2.3,0,0,1-.2,2.807,2.688,2.688,0,0,1-2.964.686,4.3,4.3,0,0,1-1.739-1.325c-.553-.658-1.077-1.339-1.606-2.016-1.577-2.006-3.16-4.013-4.728-6.029a.892.892,0,0,0-.786-.419c-2.631.014-5.256.01-7.887.01-.119,0-.238.014-.438.033v7.148c0,2.521-2.03,3.112-3.66,2.654A2.19,2.19,0,0,1,13.3,66.441a5.04,5.04,0,0,1-.129-1.168q-.014-9.579,0-19.153a17.194,17.194,0,0,1,.272-2.7,2.426,2.426,0,0,1,2.011-2.087,9.5,9.5,0,0,1,1.959-.3q6.741-.043,13.487-.01a8.163,8.163,0,0,1,3.689.91,7.9,7.9,0,0,1,4.475,6.8,9.054,9.054,0,0,1-.338,3.5A7.853,7.853,0,0,1,34.4,57.086c-.329.157-.662.3-1.044.467ZM18.566,53.225c.2.019.3.038.391.038,3.684,0,7.368,0,11.052-.01a5.528,5.528,0,0,0,1.311-.176,2.91,2.91,0,0,0,2.259-2.187,4.921,4.921,0,0,0-.01-2.55,2.741,2.741,0,0,0-1.925-2.049,6.313,6.313,0,0,0-1.73-.281c-3.488-.024-6.972-.019-10.461-.01-.753,0-.863.1-.872.848-.014,1.277,0,2.554-.01,3.827v2.55Z" transform="translate(-13.162 -40.796)" fill="#fff"/>
      <path id="Path_16" data-name="Path 16" d="M87.762,40.568a22.076,22.076,0,0,1,8.021,1.21,11.534,11.534,0,0,1,3.4,1.887,5.59,5.59,0,0,1,1.139,1.234,2.323,2.323,0,0,1-2.307,3.584,3.206,3.206,0,0,1-1.72-.591,11.728,11.728,0,0,0-6.009-2.221,22.928,22.928,0,0,0-7.477.391,6.264,6.264,0,0,0-2.349,1.015,2.31,2.31,0,0,0-1.034,1.859,1.6,1.6,0,0,0,1.291,1.806,16.706,16.706,0,0,0,2.831.424c1.644.11,3.288.114,4.937.2a43.653,43.653,0,0,1,6.586.729,12.052,12.052,0,0,1,4.075,1.649,5.926,5.926,0,0,1,2.45,3.8,7.979,7.979,0,0,1,.067,3.793,6.988,6.988,0,0,1-3.117,4.394,13.1,13.1,0,0,1-4.913,1.9,29.81,29.81,0,0,1-13.72-.505,12.333,12.333,0,0,1-4.294-2.054,4.791,4.791,0,0,1-.977-.986,2.482,2.482,0,0,1,.019-2.9,2.443,2.443,0,0,1,2.764-.848,3.583,3.583,0,0,1,1,.462,12.34,12.34,0,0,0,5.028,1.987,24.546,24.546,0,0,0,9.379-.076A6.7,6.7,0,0,0,95.4,61.666a2.882,2.882,0,0,0,1.33-2.488,2.06,2.06,0,0,0-1.139-1.921,6.144,6.144,0,0,0-2.678-.739c-2.235-.11-4.47-.162-6.7-.305-2.035-.133-4.065-.31-6.086-.572a10.913,10.913,0,0,1-2.526-.758,5.1,5.1,0,0,1-3.193-3.86,8.494,8.494,0,0,1-.062-3.87,6.74,6.74,0,0,1,2.926-4.184,13.261,13.261,0,0,1,4.98-1.925,27.259,27.259,0,0,1,5.519-.486Z" transform="translate(-45.087 -40.558)" fill="#fff"/>
    </g>
  </g>
</svg>
