<svg width="23" height="27" viewBox="0 0 23 33" fill="none" xmlns="http://www.w3.org/2000/svg">
<path d="M11.8033 0.638184C5.62981 0.638184 0.607422 5.6613 0.607422 11.8349C0.607422 17.7776 10.7656 31.6617 11.1981 32.2496L11.6018 32.799C11.649 32.8636 11.7242 32.9013 11.8033 32.9013C11.8836 32.9013 11.9583 32.8636 12.006 32.799L12.4094 32.2496C12.8422 31.6617 23.0001 17.7776 23.0001 11.8349C23.0001 5.6613 17.9769 0.638184 11.8033 0.638184ZM11.8033 7.82428C14.0152 7.82428 15.8139 9.62304 15.8139 11.8349C15.8139 14.0457 14.0152 15.8456 11.8033 15.8456C9.59261 15.8456 7.79262 14.0457 7.79262 11.8349C7.79262 9.62304 9.59252 7.82428 11.8033 7.82428Z" fill="#FF0000"/>
</svg>
