<svg xmlns="http://www.w3.org/2000/svg" width="144.456" height="327.347" viewBox="0 0 144.456 327.347">
  <g id="Group_245" data-name="Group 245" transform="translate(-1134.522 -254.57)">
    <path id="Path_289" data-name="Path 289" d="M1028.324,682.8c-1.047.07-3.908.977-8.165,9-5.374,10.189-13.26,40.965-13.26,40.965l23.518,8.723,3-6.42,4.955-49.478C1038.443,685.661,1028.6,682.8,1028.324,682.8Z" transform="translate(166.242 -359.211)" fill="#fe3f40"/>
    <path id="Path_290" data-name="Path 290" d="M1068.112,676.5c-6.7,0-23.378,1.954-31.055,4.466,0,0-5.653,48.781,5.094,85.767,2.443,8.3-2.024,34.4-2.024,34.4l69.647-.907s-8.235-63.087-5.164-73.275c3.14-10.189,3.21-45.71,3.21-45.71s-.488-.07-15.632-2.722A164.812,164.812,0,0,0,1068.112,676.5Z" transform="translate(157.58 -357.307)" fill="#fc7077"/>
    <path id="Path_291" data-name="Path 291" d="M1093.063,986.6s-1.535,17.8-4.4,22.75.139,13.329.279,14.446,5.932,2.791,15.213,1.814,9.072-3.14,8.375-6.56c-.768-3.42-5.653-7.886-5.932-11.166s2.861-15.074,2.861-15.074Z" transform="translate(141.91 -451)" fill="#f7a491"/>
    <path id="Path_292" data-name="Path 292" d="M1026.369,833.535s-48.083-2.652-58.83,3.838,7.607,38.452,7.607,38.452,33.5-1.535,99.026,2.233c15.493.907,16.888-40.476,13.957-43.9C1085.268,830.744,1026.369,833.535,1026.369,833.535Z" transform="translate(179.155 -404.43)" fill="#0e2e35"/>
    <path id="Path_293" data-name="Path 293" d="M1104.951,1037.239c9.491-1.047,8.374-5.722,7.607-9.212-.489-2.233-3.21-4.815-4.815-7.328-.837.7-2.233,1.884-6.35,3.071-4.327,1.256-10.189-1.256-13.957-2.792a45.464,45.464,0,0,0-1.256,12.282C1086.248,1034.448,1095.46,1038.286,1104.951,1037.239Z" transform="translate(142.305 -461.303)" fill="#0e2e35"/>
    <path id="Path_294" data-name="Path 294" d="M1098.945,868.125c-1.954,14.516-11.445,86.954-11.445,86.954l22.052,2.722s27.147-94.49,25.751-108.936-11.585-15.7-11.585-15.7S1104.039,829.6,1098.945,868.125Z" transform="translate(141.89 -404.615)" fill="#0e2e35"/>
    <path id="Path_627" data-name="Path 627" d="M1123.911,868.125c1.954,14.516,11.445,86.954,11.445,86.954L1113.3,957.8s-27.147-94.49-25.751-108.936,11.584-15.7,11.584-15.7S1118.817,829.6,1123.911,868.125Z" transform="translate(53.189 -404.615)" fill="#0e2e35"/>
    <path id="Path_295" data-name="Path 295" d="M1105.172,691.068c-6.49-2.442-9.7,56.248-10.608,80.394-11.515,1.116-31.613,0-36.638-.349-2.373-.209-7.816-2.163-10.119-2.443a21.521,21.521,0,0,0-5.722-.279c-.419.07-12.492,5.025-13.469,6.071-1.256,1.326-4.745,4.745-4.117,6.141.558,1.466,6.63-4.047,6.63-4.047l2.931-1.675c-3.7,3.629-10.677,8.3-9.7,10.049.977,1.675,7.328-3.14,11.864-6.42-3.838,3.489-8.653,9.77-7.607,10.747.977.907,6.49-6.35,12.282-8.444,2.163-.768,4.327,1.4,6,1.605,1.256.209,3.21.628,4.4.279l6.35-1.814c2.163.209,2.233,1.465,4.4,1.954,2.512.558,6.7,1.117,9.91,1.884,18.563,4.536,24.7,6.63,30.427,6.63C1119.548,791.281,1120.525,696.79,1105.172,691.068Z" transform="translate(160.995 -361.688)" fill="#f7a491"/>
    <path id="Path_296" data-name="Path 296" d="M1146.45,743.745c1.186-24.774,1.047-55.271-12.841-60.435-5.443-2.024-15.144,10.259-13.4,60.923C1127.608,744.862,1138.494,745.35,1146.45,743.745Z" transform="translate(132.07 -359.303)" fill="#fe3f40"/>
    <path id="Path_297" data-name="Path 297" d="M990.52,1009.158s3.21,5.653.7,10.328c-2.512,4.745-15.7,11.654-17.028,14.236a6.123,6.123,0,0,0-.837,4.4l39.08-9.561-3-11.794-3.629-8.165Z" transform="translate(176.412 -457.648)" fill="#f7a491"/>
    <path id="Path_298" data-name="Path 298" d="M986.459,1025.6s10.956,1.884,15.353-1.605c4.327-3.489,4.048-4.117,5.653-3.489,1.047.419,2.582,5.094,3.629,8.374a3.219,3.219,0,0,1-2.3,4.048l-40.685,10.049c-3.071.628-5.164-1.326-3.071-3.838a39.281,39.281,0,0,1,4.187-3.908C972.222,1032.51,986.459,1025.6,986.459,1025.6Z" transform="translate(179.146 -461.18)" fill="#0e2e35"/>
    <path id="Path_300" data-name="Path 300" d="M955.844,754.8h65.808a4.335,4.335,0,0,1,3.978,2.652L1045.869,807h36.289a1.8,1.8,0,0,1,1.814,1.814h0a1.8,1.8,0,0,1-1.814,1.814H978.874a7.127,7.127,0,0,1-6.56-4.257L951.936,760.8A4.26,4.26,0,0,1,955.844,754.8Z" transform="translate(182.963 -380.965)" fill="#fff"/>
    <g id="Group_24" data-name="Group 24" transform="translate(1199.482 254.57)">
      <path id="Path_302" data-name="Path 302" d="M1055.151,588.924a58.833,58.833,0,0,0,5.792-2.3,29.389,29.389,0,0,1,6.63-2.512c3.7-.558,9.979-.209,13.469,3.559,4.327,4.676,12.073.838,10.468,25.472-1.745,27.914-17.307,24.844-17.656,24.355s-13.818-17.865-13.818-17.865-4.676,10.328-4.676,9.91C1055.43,629.26,1031.354,596.949,1055.151,588.924Z" transform="translate(-1044.644 -583.898)" fill="#0e2e35"/>
      <path id="Path_303" data-name="Path 303" d="M1075.543,657.032l-1.326,9.979s-3,14.376.837,17.167,16.4-17.516,16.4-17.516l-1.326-25.263Z" transform="translate(-1053.242 -601.272)" fill="#f7a491"/>
      <path id="Path_304" data-name="Path 304" d="M1091.19,649.465c-3.21,8.584-10.817,13.888-16.19,15.981l1.117-8.444,14.585-15.7Z" transform="translate(-1053.816 -601.241)" fill="#f47458"/>
      <path id="Path_305" data-name="Path 305" d="M1071.181,601.826a13.267,13.267,0,0,0-15.283,13.469,92.158,92.158,0,0,0,1.117,12.771c1.745,11.515,9.63,21.634,14.794,20.727s18.284-10.817,15.981-27.217C1086.325,611.456,1079.765,603.222,1071.181,601.826Z" transform="translate(-1048.043 -589.263)" fill="#f7a491"/>
      <path id="Path_306" data-name="Path 306" d="M1096.356,630.715c.419,2.512,2.443,4.257,4.536,3.908s3.35-2.722,2.931-5.234-2.443-4.257-4.536-3.908S1095.868,628.2,1096.356,630.715Z" transform="translate(-1060.238 -596.448)" fill="#f7a491"/>
      <path id="Path_307" data-name="Path 307" d="M1086.327,616.617s-6.281,1.535-8.584-2.512-10.677-12.771-21.285-9.142,9.351-8.793,10.189-8.793,11.026-.07,11.026-.07,7.816,6.42,8.1,7.188c.279.7,2.512,8.444,2.512,8.444Z" transform="translate(-1047.277 -587.585)" fill="#0e2e35"/>
    </g>
    <path id="Path_373" data-name="Path 373" d="M1020.264,807.642h-16.749L982.3,762.7h16.749Z" transform="translate(173.675 -383.352)" fill="#ebebeb"/>
  </g>
</svg>
