<svg xmlns="http://www.w3.org/2000/svg" xmlns:xlink="http://www.w3.org/1999/xlink" width="410.629" height="410.965" viewBox="0 0 410.629 410.965">
  <defs>
    <linearGradient id="linear-gradient" x1="0.283" y1="0.267" x2="2.424" y2="2.989" gradientUnits="objectBoundingBox">
      <stop offset="0" stop-color="#4fbeda"/>
      <stop offset="0.275" stop-color="#458ebf"/>
      <stop offset="1" stop-color="#285f6d"/>
    </linearGradient>
    <filter id="Path_680" x="0" y="0" width="410.629" height="410.965" filterUnits="userSpaceOnUse">
      <feOffset dy="3" input="SourceAlpha"/>
      <feGaussianBlur stdDeviation="3" result="blur"/>
      <feFlood flood-opacity="0.49"/>
      <feComposite operator="in" in2="blur"/>
      <feComposite in="SourceGraphic"/>
    </filter>
  </defs>
  <g id="Group_248" data-name="Group 248" transform="translate(-548.685 -1531)">
    <g id="c" transform="translate(557.685 1537)">
      <g transform="matrix(1, 0, 0, 1, -9, -6)" filter="url(#Path_680)">
        <path id="Path_680-2" data-name="Path 680" d="M281.048,69.814a232.436,232.436,0,0,0,3.815-34.9c.215-10.818-1.04-15.211-1.586-16.6C276.605,1.473,252.625-4.919,229.817,4.065,211.848,11.184,199.081,26.51,198.8,41.341a24.721,24.721,0,0,0,1.718,9.645c.875,2.23,2,5.235,3.3,8.8,2.031,5.5,4.558,12.337,7.482,19.687,3.815,9.662,1.949,18.877-4.856,24.823-6.325,5.5-16.334,7.762-28.192,6.342a621.531,621.531,0,0,1-76.17-13.84c4.261,20.661,7.515,41.718,9.695,62.742,1.255,12.139-2.494,22.379-10.553,28.985-7.861,6.441-19.026,8.77-31.429,6.54-25.715-4.624-45.368-4.624-51.479-2.23C7.32,197.2.3,209.353,0,224.564A56.944,56.944,0,0,0,4.066,246.3c9.017,22.808,30.075,35.954,46.921,29.3,2.263-.892,5.318-2.031,8.968-3.369,5.467-2.015,12.255-4.525,19.521-7.415,7.762-3.072,15.244-2.543,21.057,1.486,7.019,4.872,10.768,14.055,10.537,25.9a56.687,56.687,0,0,1-.4,5.681,628.545,628.545,0,0,1-14.7,79.456,620.332,620.332,0,0,0,77.755,14.335c8.935,1.074,16.416-.38,20.545-3.98,3.683-3.2,4.393-8.01,2.131-13.675-2.857-7.25-5.368-14.022-7.382-19.455-1.371-3.683-2.51-6.788-3.419-9.051a34.417,34.417,0,0,1-2.395-13.46c.363-19.009,15.343-37.622,37.276-46.31,27.895-11,57.639-2.1,66.326,19.835,1.685,4.244,2.461,11.082,2.3,20.347a241.237,241.237,0,0,1-3.98,36.483c-1.9,10.57.429,19.984,6.243,25.318,4.476,4.1,10.867,5.846,18.514,5.054a617.923,617.923,0,0,0,66.574-10.5,621.406,621.406,0,0,0,14.88-79.968c1.255-10.5-1.024-18.91-5.929-22.3-3.848-2.659-8.505-1.685-11.743-.4-7.482,2.973-14.385,5.533-19.951,7.581-3.468,1.288-6.392,2.362-8.572,3.221-21.916,8.638-48.721-7-59.77-34.881a66.678,66.678,0,0,1-4.74-25.549c.363-19.29,9.777-34.9,24.575-40.76,11.049-4.327,37.507-1.8,56.83,1.685,9.529,1.7,17.853.132,23.436-4.459,5.4-4.443,7.861-11.594,6.97-20.314a622.364,622.364,0,0,0-10.14-64.625,630.594,630.594,0,0,1-65.715,10.306c-10.553,1.09-19.637-1.552-26.26-7.647-6.705-6.177-10.289-15.508-10.091-26.293a52.471,52.471,0,0,1,.809-8.043Z" transform="translate(9.01 6)" fill="url(#linear-gradient)"/>
      </g>
    </g>
    <text id="Approach_" data-name="Approach
" transform="translate(676 1739.141)" fill="#fff" font-size="30" font-family="SegoeUI-Bold, Segoe UI" font-weight="700"><tspan x="0" y="32">Approach</tspan></text>
  </g>
</svg>
