<svg xmlns="http://www.w3.org/2000/svg" xmlns:xlink="http://www.w3.org/1999/xlink" width="413.442" height="410.95" viewBox="0 0 413.442 410.95">
  <defs>
    <linearGradient id="linear-gradient" x1="0.283" y1="0.267" x2="2.424" y2="2.989" gradientUnits="objectBoundingBox">
      <stop offset="0" stop-color="#4fbeda"/>
      <stop offset="0.275" stop-color="#458ebf"/>
      <stop offset="1" stop-color="#285f6d"/>
    </linearGradient>
    <filter id="Path_682" x="0" y="0" width="413.442" height="410.95" filterUnits="userSpaceOnUse">
      <feOffset dy="3" input="SourceAlpha"/>
      <feGaussianBlur stdDeviation="3" result="blur"/>
      <feFlood flood-opacity="0.49"/>
      <feComposite operator="in" in2="blur"/>
      <feComposite in="SourceGraphic"/>
    </filter>
  </defs>
  <g id="Group_249" data-name="Group 249" transform="translate(-844.15 -1613.605)">
    <g transform="matrix(1, 0, 0, 1, 844.15, 1613.6)" filter="url(#Path_682)">
      <path id="Path_682-2" data-name="Path 682" d="M183.411,217.426c7.465,17.837,23.039,30.289,37.87,30.289a24.8,24.8,0,0,0,9.6-1.9c2.263-.941,5.335-2.147,8.968-3.567,5.4-2.114,12.122-4.757,19.307-7.762,9.579-4.013,18.844-2.312,24.905,4.377,5.632,6.226,8.076,16.185,6.87,28.076a619.469,619.469,0,0,1-12.387,76.417,630.868,630.868,0,0,1,62.544-10.884c12.106-1.486,22.428,2.064,29.183,9.992,6.59,7.729,9.133,18.844,7.135,31.3-4.145,25.83-3.749,45.451-1.239,51.512,4.558,10.917,16.846,17.688,32.073,17.688a56.921,56.921,0,0,0,21.652-4.476c22.61-9.463,35.36-30.752,28.39-47.466-.925-2.23-2.114-5.268-3.534-8.852-2.13-5.434-4.773-12.188-7.812-19.406-3.221-7.713-2.841-15.194,1.09-21.09,4.723-7.1,13.84-11.016,25.665-11.016,1.833,0,3.749.1,5.7.281a628.738,628.738,0,0,1,79.72,13.163,615.72,615.72,0,0,0,12.833-78.019s.033-.529.1-1.519c.05-.628.1-1.255.116-1.85,1.222-19.538,6.656-119.374-6.177-163.025h0c-2.081-12.056-4.525-24.129-7.333-36.1a617.3,617.3,0,0,0-80.232-13.328c-10.537-1.057-18.877,1.371-22.18,6.342-2.593,3.9-1.519,8.539-.165,11.743,3.072,7.316,5.731,14.1,7.878,19.571,1.387,3.534,2.56,6.524,3.468,8.72,9.051,21.751-6.078,48.869-33.725,60.43A67.053,67.053,0,0,1,408.22,162.3c-19.29,0-35.079-9.117-41.223-23.8-4.542-10.95-2.51-37.474.611-56.846,1.519-9.562-.215-17.853-4.905-23.353-4.542-5.318-11.743-7.63-20.43-6.573a623.374,623.374,0,0,0-64.427,11.379,638.731,638.731,0,0,1,11.577,65.5c1.288,10.537-1.189,19.67-7.151,26.392-6.045,6.821-15.31,10.586-26.095,10.586a49.983,49.983,0,0,1-8.043-.661,229.918,229.918,0,0,0-34.98-3.138c-10.8,0-15.161,1.321-16.549,1.9-16.714,6.986-22.659,31.1-13.229,53.725Z" transform="translate(-169.9 -44.01)" fill="url(#linear-gradient)"/>
    </g>
    <text id="_Team_" data-name="
Team
" transform="translate(1035.587 1746.206)" fill="#fff" font-size="30" font-family="SegoeUI-Bold, Segoe UI" font-weight="700"><tspan x="0" y="32"></tspan><tspan x="0" y="72">Team</tspan><tspan x="0" y="112"></tspan></text>
  </g>
</svg>
