<svg xmlns="http://www.w3.org/2000/svg" xmlns:xlink="http://www.w3.org/1999/xlink" width="410.974" height="411.28" viewBox="0 0 410.974 411.28">
  <defs>
    <linearGradient id="linear-gradient" x1="0.283" y1="0.267" x2="2.424" y2="2.989" gradientUnits="objectBoundingBox">
      <stop offset="0" stop-color="#4fbeda"/>
      <stop offset="0.275" stop-color="#458ebf"/>
      <stop offset="1" stop-color="#285f6d"/>
    </linearGradient>
    <filter id="Path_679" x="0" y="0" width="410.974" height="411.28" filterUnits="userSpaceOnUse">
      <feOffset dy="3" input="SourceAlpha"/>
      <feGaussianBlur stdDeviation="3" result="blur"/>
      <feFlood flood-opacity="0.49"/>
      <feComposite operator="in" in2="blur"/>
      <feComposite in="SourceGraphic"/>
    </filter>
  </defs>
  <g id="Group_251" data-name="Group 251" transform="translate(-924.459 -1907.432)">
    <g transform="matrix(1, 0, 0, 1, 924.46, 1907.43)" filter="url(#Path_679)">
      <path id="Path_679-2" data-name="Path 679" d="M551.272,422.719a229.9,229.9,0,0,0,34.963,3.138c10.818,0,15.178-1.321,16.549-1.9,16.73-6.986,22.659-31.082,13.229-53.725-7.448-17.837-23.023-30.289-37.87-30.289a24.945,24.945,0,0,0-9.612,1.9c-2.246.941-5.3,2.131-8.935,3.551-5.417,2.114-12.139,4.756-19.34,7.779-9.562,4-18.828,2.312-24.889-4.377-5.632-6.21-8.093-16.185-6.92-28.076A624.867,624.867,0,0,1,521.627,241a617.177,617.177,0,0,0-78.019-12.833c-10.5-1.057-18.877,1.371-22.18,6.342-2.576,3.9-1.519,8.538-.165,11.743,2.989,7.168,5.615,13.857,7.729,19.241,1.453,3.683,2.675,6.788,3.617,9.067,9.051,21.751-6.078,48.853-33.741,60.43a66.927,66.927,0,0,1-25.467,5.235h0c-19.29,0-35.1-9.117-41.223-23.782-4.558-10.8-2.527-37.375.611-56.846,1.519-9.562-.215-17.853-4.889-23.336-4.542-5.318-11.743-7.63-20.43-6.557a615.618,615.618,0,0,0-66.359,11.776,621.58,621.58,0,0,0-13.345,80.232c-.892,8.951.694,16.4,4.377,20.463,3.27,3.617,8.093,4.245,13.708,1.866,7.349-3.088,14.17-5.747,19.637-7.894,3.518-1.371,6.474-2.527,8.654-3.452a34.631,34.631,0,0,1,13.411-2.659c19.009,0,37.9,14.616,47.02,36.384,11.528,27.68,3.2,57.59-18.563,66.69-4.261,1.767-11.115,2.659-20.364,2.659a238.936,238.936,0,0,1-36.483-3.27c-10.6-1.685-19.967.809-25.2,6.722-4.03,4.542-5.665,10.983-4.723,18.613a624.956,624.956,0,0,0,11.379,64.427,633.448,633.448,0,0,1,65.5-11.561,44.72,44.72,0,0,1,5.285-.33c9.876,0,18.134,3.567,23.9,10.322,6.59,7.729,9.133,18.844,7.151,31.313-4.145,25.814-3.766,45.451-1.239,51.512,4.558,10.9,16.862,17.688,32.073,17.688a57.212,57.212,0,0,0,21.652-4.459c22.61-9.463,35.36-30.768,28.407-47.482-.925-2.23-2.114-5.268-3.518-8.852-2.13-5.434-4.773-12.188-7.812-19.422-3.221-7.713-2.841-15.194,1.074-21.09,4.723-7.085,13.807-11,25.6-11,1.866,0,3.8.1,5.78.3a618.45,618.45,0,0,1,76.417,12.387A630.546,630.546,0,0,1,510,459.053c-1.288-10.537,1.189-19.653,7.151-26.392,6.045-6.821,15.31-10.586,26.094-10.586a50.329,50.329,0,0,1,8.06.661Z" transform="translate(-218.52 -221.92)" fill="url(#linear-gradient)"/>
    </g>
    <text id="Delivery_" data-name="Delivery
" transform="translate(1069.897 2074.124)" fill="#fff" font-size="30" font-family="SegoeUI-Bold, Segoe UI" font-weight="700"><tspan x="0" y="32">Delivery</tspan><tspan x="0" y="72"></tspan></text>
  </g>
</svg>
