<?xml version="1.0" encoding="UTF-8"?><svg xmlns="http://www.w3.org/2000/svg" viewBox="0 0 1847.73 1848.16"><defs><style>.d{fill:#ef4445;}</style></defs><g id="a"/><g id="b"><g id="c"><path class="d" d="M210.28,1844.13c9.42-2.2,18.94-4.96,28.62-8.45,26.02-9.27,62.11-24.64,108.46-46.02l119.86-54,1040.7-469c33.26-14.88,73.33-32.77,120.01-53.66,46.76-20.99,85.54-43.27,116.44-67.01,30.9-23.66,55.87-54.8,74.97-93.43,17.47-35.29,26.92-78.06,28.4-128.49-1.49-50.42-10.94-93.2-28.4-128.49-19.1-38.63-44.07-69.77-74.97-93.43-30.9-23.74-69.68-46.02-116.44-67.01-46.67-20.89-86.75-38.78-120.01-53.66L467.21,112.5l-119.86-54c-46.35-21.38-82.44-36.75-108.46-46.02-9.68-3.49-19.2-6.26-28.62-8.45,0,0-70.22-18.74-130.02,24.64-2.02,1.46-3.7,2.89-5.22,4.34-8.63,7.34-17.04,15.82-25.12,25.5C16.68,98.51,0,144.44,0,196.57c0,61.31,15.53,105.54,46.76,132.44,31.14,27,91.3,59.52,180.43,97.66l158.72,67.89,341.83,138.55,47.64,19.53,661.52,271.43-661.52,271.43-47.64,19.53-341.83,138.55-158.72,67.89c-89.12,38.14-149.28,70.66-180.43,97.66C15.53,1546.04,0,1590.28,0,1651.58,0,1703.71,16.68,1749.65,49.92,1789.66c8.07,9.68,16.49,18.16,25.12,25.5,1.53,1.45,3.2,2.88,5.22,4.34,59.79,43.38,130.02,24.64,130.02,24.64Z"/></g></g></svg>