<svg xmlns="http://www.w3.org/2000/svg" width="102.969" height="135.125" viewBox="0 0 102.969 135.125">
  <g id="b" transform="translate(-0.005 0)">
    <g id="c" transform="translate(0.005 0)">
      <g id="Group_253" data-name="Group 253">
        <g id="Group_257" data-name="Group 257">
          <path id="Path_816" data-name="Path 816" d="M12.683,135.125a32.34,32.34,0,0,1-5.146-1.873A13.994,13.994,0,0,1,.029,120.378C-.017,110.792.017,101.206.017,91.62q0-38.322,0-76.644C.023,7.78,4.436,2.035,11.228.425a16.649,16.649,0,0,1,3.786-.4C30.843,0,46.673.02,62.5,0A15.11,15.11,0,0,1,73.342,4.333Q85.535,15.917,97.783,27.442a15.706,15.706,0,0,1,5.174,12.072c-.04,26.779-.081,53.558.017,80.337.032,8.678-6.252,14.366-12.368,15.087-.117.014-.224.124-.335.187ZM61.769,7.925H15.245c-4.627,0-7.312,2.664-7.312,7.26q0,52.381,0,104.762c0,4.592,2.69,7.259,7.315,7.259q36.217,0,72.436,0c4.679,0,7.334-2.67,7.334-7.374q0-39.384,0-78.769V39.591H93.406q-10.819,0-21.638,0c-6.188,0-10-3.838-10-10.06q0-10.028,0-20.055V7.924ZM90.714,31.676,69.769,11.869c-.046.422-.08.586-.081.751q0,8.632,0,17.263c0,1.368.434,1.785,1.829,1.789,3.426.012,6.853,0,10.279,0h8.916Z" transform="translate(-0.005)" fill="#45aff7"/>
          <path id="Path_817" data-name="Path 817" d="M174.432,430.362q-14.305,0-28.609-.005c-3.1,0-5.1-2.737-3.978-5.421a3.829,3.829,0,0,1,3.7-2.483c1.669-.033,3.34-.007,5.01-.007q26.3,0,52.6,0c3.185,0,5.215,2.761,4.019,5.482a3.986,3.986,0,0,1-4.009,2.436q-14.371-.019-28.741-.005Z" transform="translate(-123.847 -369.657)" fill="#45aff7"/>
          <path id="Path_818" data-name="Path 818" d="M174.527,599.389q-14.371,0-28.741-.006c-3.091-.005-5.09-2.767-3.944-5.444a3.883,3.883,0,0,1,3.852-2.466q4.944-.006,9.888,0,23.8,0,47.594,0c3.172,0,5.2,2.794,3.987,5.5a4.008,4.008,0,0,1-4.027,2.414q-12.393-.023-24.786-.006h-3.823Z" transform="translate(-123.834 -517.571)" fill="#45aff7"/>
          <path id="Path_819" data-name="Path 819" d="M155.143,768.352c-3.035,0-6.07.009-9.1,0-2.574-.009-4.359-1.618-4.382-3.921-.024-2.351,1.785-3.989,4.44-3.992q9.1-.009,18.208,0c2.636,0,4.489,1.667,4.465,3.984s-1.857,3.923-4.523,3.929c-3.035.006-6.07,0-9.1,0Z" transform="translate(-123.96 -665.424)" fill="#45aff7"/>
        </g>
      </g>
    </g>
  </g>
</svg>
