<svg xmlns="http://www.w3.org/2000/svg" width="140.988" height="140.942" viewBox="0 0 140.988 140.942">
  <g id="Group_254" data-name="Group 254" transform="translate(0 -0.001)">
    <path id="Path_820" data-name="Path 820" d="M396.48,32.207c-.447,1.952-.793,3.934-1.362,5.85a29.135,29.135,0,0,1-7.6,12.416q-17.915,17.9-35.829,35.807c-9.411,9.358-22.375,11.634-34.168,5.825a37.269,37.269,0,0,1-7.569-5.4,5.626,5.626,0,0,1-.307-8.142,5.74,5.74,0,0,1,8.157-.421,18.94,18.94,0,0,0,9.72,5.083,17.372,17.372,0,0,0,14.6-4.052c.454-.386.882-.8,1.3-1.225q17.866-17.853,35.724-35.717c6.6-6.617,7.424-16.2,2.051-23.405a17.486,17.486,0,0,0-25.768-2.571c-4.492,4.122-8.686,8.57-13.009,12.876-2.471,2.46-4.917,4.946-7.4,7.391-2.629,2.585-6.2,2.694-8.6.305s-2.314-5.975.3-8.594c6.741-6.756,13.465-13.528,20.29-20.2A28.035,28.035,0,0,1,363.507.251,4.08,4.08,0,0,0,364.266,0h5.506a8,8,0,0,0,.915.253c11.912,1.834,20.007,8.394,24.158,19.7a58.312,58.312,0,0,1,1.635,6.753v5.506Z" transform="translate(-255.493 0.001)" fill="#45aff7"/>
    <path id="Path_821" data-name="Path 821" d="M63.439,287.219a28.887,28.887,0,0,1,19.7,8.384,5.818,5.818,0,0,1,.427,8.277,5.728,5.728,0,0,1-8.254.389c-3.829-3.508-8.183-5.473-13.441-5.258a16.7,16.7,0,0,0-10.865,4.371c-2.238,2.034-4.334,4.226-6.475,6.366Q30.855,323.414,17.193,337.1c-6.9,6.946-7.239,17.359-.875,24.468a17.419,17.419,0,0,0,24.8,1.285c5.787-5.424,11.285-11.16,16.9-16.772,1.751-1.751,3.745-2.609,6.222-1.892a5.827,5.827,0,0,1,2.989,9.195,6.482,6.482,0,0,1-.534.628c-5.919,5.888-11.668,11.959-17.8,17.623-15.953,14.748-42.6,6.7-47.855-14.373-2.578-10.336-.437-19.739,6.942-27.393,11.428-11.853,23.171-23.405,34.918-34.946,5.223-5.129,12.462-7.72,20.53-7.7Z" transform="translate(0 -238.215)" fill="#45aff7"/>
  </g>
</svg>
