<svg xmlns="http://www.w3.org/2000/svg" width="171.511" height="135.125" viewBox="0 0 171.511 135.125">
  <g id="b" transform="translate(0.01 -0.006)">
    <g id="c" transform="translate(-0.01 0.005)">
      <g id="Group_255" data-name="Group 255">
        <path id="Path_813" data-name="Path 813" d="M-.008,55.876c.721-2.981,1.55-5.9,3.472-8.4A18.553,18.553,0,0,1,19.089,39.9c9.429.04,18.861.011,28.29.011H49.5V36.88c0-5.97-.015-11.942,0-17.912C49.538,7.794,57.288.027,68.481.021q42.018-.028,84.036,0c11.151.011,18.933,7.849,18.939,19,.011,15.4-.11,30.8.044,46.2.093,9.244-5.575,16.956-14.134,18.838-1.137.251-1.156.947-1.154,1.837.017,5.858,0,11.718.011,17.576,0,1.913-.359,3.666-1.968,4.924-2.12,1.658-4.71,1.462-6.968-.608-4.563-4.187-9.1-8.408-13.64-12.617-3.479-3.223-6.947-6.459-10.446-9.659a2.733,2.733,0,0,0-1.531-.829c-5.183-.061-10.366-.038-15.785-.038,0,1.544.03,2.974-.006,4.4-.08,3.284.171,6.63-.363,9.843a17.783,17.783,0,0,1-17.775,14.912c-13.783.055-27.565,0-41.348.059a4.475,4.475,0,0,0-2.654.985c-7.2,6.086-14.347,12.239-21.494,18.391-1.8,1.548-3.753,2.491-6.107,1.447-2.4-1.065-3.135-3.1-3.107-5.6.053-4.911-.008-9.822.036-14.731a1.524,1.524,0,0,0-1.154-1.7C5.4,110.128,1.553,105.371.252,98.528a6.033,6.033,0,0,0-.262-.787V55.878Zm145.89,36.743a4.781,4.781,0,0,0,.135-.631q.01-5.692.015-11.383c.008-4.23,1.9-6.295,6.109-6.141,5.628.2,9.246-3.525,9.206-9.223q-.158-22.934,0-45.867c.036-5.738-3.66-9.3-9.25-9.183-9.035.192-18.078.051-27.118.051q-28.291,0-56.581.006c-5.3,0-8.723,3.164-8.74,8.233-.053,15.9-.027,31.807-.011,47.708A8.049,8.049,0,0,0,62.5,72.543a8.968,8.968,0,0,0,6.244,1.89c18.078-.017,36.159.006,54.237-.03a7.546,7.546,0,0,1,5.582,2.15c3.749,3.588,7.592,7.075,11.4,10.6,1.913,1.772,3.831,3.538,5.917,5.466ZM49.5,50.237c-.675-.038-1.164-.089-1.654-.089-9.708,0-19.414-.021-29.122,0-5.219.013-8.529,3.173-8.56,8.406q-.111,18.324,0,36.652c.027,4.841,2.776,7.765,7.558,8.408,4.124.555,5.455,2.086,5.464,6.295.006,2.877,0,5.755,0,8.948.643-.477,1.042-.74,1.4-1.048,4.7-4.027,9.425-8.031,14.085-12.108a7.786,7.786,0,0,1,5.466-2.05c7.141.061,14.281.023,21.422.023s14.281.021,21.422-.008c4.451-.019,7.955-2.253,8.381-6.126.464-4.213.105-8.516.105-12.9H93.706c-8.423,0-16.849.015-25.272,0-11.153-.023-18.9-7.8-18.937-18.977-.013-4.519,0-9.037,0-13.556V50.237Z" transform="translate(0.01 -0.004)" fill="#45aff7"/>
        <path id="Path_814" data-name="Path 814" d="M394.507,132.29q13.973,0,27.944,0a18.658,18.658,0,0,1,2,.078,4.95,4.95,0,0,1,4.584,4.877,5.042,5.042,0,0,1-4.474,5.181,14.026,14.026,0,0,1-1.837.059q-28.279,0-56.558-.011a9.958,9.958,0,0,1-2.8-.321,5.027,5.027,0,0,1,.861-9.748,17.6,17.6,0,0,1,2.335-.112q13.973-.009,27.944,0Z" transform="translate(-283.996 -104.384)" fill="#45aff7"/>
        <path id="Path_815" data-name="Path 815" d="M394.51,231.861h27.776c.5,0,1-.017,1.506.011,3.152.175,5.259,2.249,5.24,5.147-.019,2.816-2.1,4.858-5.158,5.061-.333.021-.669.013-1,.013q-28.443,0-56.889,0c-3.924,0-6.28-2.156-6.056-5.491a4.862,4.862,0,0,1,3.822-4.506,11.973,11.973,0,0,1,2.489-.224q14.138-.022,28.278-.008Z" transform="translate(-283.986 -182.946)" fill="#45aff7"/>
      </g>
    </g>
  </g>
</svg>
