<svg xmlns="http://www.w3.org/2000/svg" width="123.461" height="156.624" viewBox="0 0 123.461 156.624">
  <g id="Group_256" data-name="Group 256" transform="translate(0)">
    <path id="Path_822" data-name="Path 822" d="M65.979,0c2.557.394,5.133.688,7.665,1.2a60.985,60.985,0,0,1,33.19,18.552,59.891,59.891,0,0,1,15.91,32.758A60.6,60.6,0,0,1,111.7,97.971a58.28,58.28,0,0,1-14.3,14.12,2.415,2.415,0,0,0-1.093,2.292q.038,18.593.013,37.184c0,2.645-1.074,4.457-3.27,4.858a6.919,6.919,0,0,1-3.8-.5c-8.718-3.829-17.393-7.761-26.056-11.709a3.263,3.263,0,0,0-2.991,0q-13,5.922-26.038,11.751c-2.872,1.291-5.454.653-6.559-1.748a7.283,7.283,0,0,1-.511-2.962q-.05-18.361.006-36.725a2.893,2.893,0,0,0-1.354-2.622C8.308,98.87-.523,81.419.028,59.663.46,42.494,7.43,28,20.038,16.323A60.965,60.965,0,0,1,54.869.359c.849-.1,1.694-.24,2.54-.359ZM61.748,9.069C32.8,8.927,9.128,32.583,8.992,61.772A52.7,52.7,0,1,0,61.745,9.066ZM36.1,145.135c.768-.325,1.324-.549,1.871-.795,7.01-3.147,14.035-6.261,21.015-9.471a6,6,0,0,1,5.4-.008c7.075,3.249,14.193,6.405,21.3,9.592.488.219.989.407,1.556.638V118.075c-17.09,7.346-34.093,7.3-51.139-.006Z" transform="translate(-0.003)" fill="#45aff7"/>
    <path id="Path_823" data-name="Path 823" d="M159.9,101.24a4.849,4.849,0,0,1,4.173,2.622c2.822,4.547,5.686,9.066,8.474,13.632a2.294,2.294,0,0,0,2.177,1.245c5.4.136,10.806.352,16.206.557,3.929.15,5.917,3.475,4.1,6.985-2.532,4.883-5.187,9.7-7.707,14.591a2.58,2.58,0,0,0-.008,2.048c2.444,4.755,5,9.457,7.494,14.187,2.123,4.019.223,7.285-4.319,7.448-5.25.188-10.5.388-15.749.509a2.431,2.431,0,0,0-2.275,1.377c-2.622,4.309-5.49,8.478-7.942,12.879-2.4,4.3-6.922,4.2-9.269-.065-2.426-4.413-5.308-8.576-7.944-12.877a2.323,2.323,0,0,0-2.157-1.308c-5.252-.121-10.5-.336-15.749-.5-1.685-.054-3.252-.378-4.342-1.821-1.335-1.767-1.172-3.571-.169-5.437,2.53-4.712,5-9.459,7.556-14.153a2.3,2.3,0,0,0-.008-2.511c-2.511-4.605-4.96-9.246-7.413-13.884-2.177-4.117-.267-7.333,4.392-7.479,5.352-.169,10.7-.352,16.051-.615a2.4,2.4,0,0,0,1.621-1.007c2.914-4.549,5.759-9.139,8.608-13.728a4.93,4.93,0,0,1,4.2-2.682Zm23.614,54.86.194-.607c-1.639-3.091-3.11-6.288-4.968-9.242a7.314,7.314,0,0,1-.031-8.649c1.863-2.958,3.335-6.159,5.062-9.411-.672-.063-1.16-.131-1.648-.152-3.669-.146-7.335-.325-11-.4a5.067,5.067,0,0,1-4.513-2.63c-1.948-3.168-3.929-6.315-5.907-9.465-.229-.365-.507-.7-.851-1.166-2.28,3.646-4.478,7.129-6.641,10.635a5.043,5.043,0,0,1-4.516,2.624c-3.16.048-6.32.2-9.477.319-1,.038-1.994.113-3.2.181,1.539,2.9,2.947,5.6,4.4,8.282,3.106,5.742,3.074,5.258-.031,11.019-1.443,2.676-2.851,5.371-4.357,8.209.678.042,1.164.083,1.652.1,3.567.127,7.133.277,10.7.361a5.553,5.553,0,0,1,5.006,2.92c1.85,3.108,3.806,6.151,5.727,9.217.227.363.509.695.861,1.172,2.15-3.437,4.286-6.664,6.215-10.007a6,6,0,0,1,5.717-3.323c3.871.05,7.742.013,11.613.013Z" transform="translate(-98.218 -80.125)" fill="#45aff7"/>
  </g>
</svg>
