<?xml version="1.0" encoding="UTF-8"?><svg xmlns="http://www.w3.org/2000/svg" xmlns:xlink="http://www.w3.org/1999/xlink" viewBox="0 0 585.18 536.69"><defs><style>.f{fill:#ed4444;}.g{fill:url(#d);}.h{fill:url(#e);}</style><linearGradient id="d" x1="4611.84" y1="701.39" x2="5102.13" y2="701.39" gradientTransform="translate(-4611.84 -287.28)" gradientUnits="userSpaceOnUse"><stop offset=".41" stop-color="#4cc5d9"/><stop offset=".42" stop-color="#4cc4d9"/><stop offset=".59" stop-color="#5aabdf"/></linearGradient><linearGradient id="e" x1="214.42" y1="230.53" x2="375.47" y2="230.53" gradientTransform="matrix(1, 0, 0, 1, 0, 0)" xlink:href="#d"/></defs><g id="a"/><g id="b"><g id="c"><path class="g" d="M382.67,291.55c.05,61.57-41.55,117.63-103.96,133.33-54.04,13.63-108.67-6.78-141.24-47.71-11.84-14.86-20.77-32.43-25.72-52.05-2.82-11.23-4.19-22.5-4.2-33.58H0c-.12,13.37,10.57,24.29,23.93,24.52l.14-.03c11.19,.19,20.9,7.94,23.34,18.91,.45,2.02,.89,4.05,1.4,6.02,.5,2.01,1.07,4.06,1.65,6.04,3.08,10.75-1.85,22.25-11.62,27.71l-.05,.02c-11.75,6.54-15.96,21.36-9.45,33.1l3.35,6.07c5.54,9.8,16.84,14.39,27.25,11.78,2.07-.53,4-1.32,5.93-2.38,9.8-5.46,22.11-3.61,29.66,4.7,2.83,3.03,5.69,6.02,8.67,8.88,8.04,7.81,9.6,20.17,3.83,29.83l-.05,.08c-6.92,11.56-3.14,26.5,8.42,33.36l5.98,3.64c5.74,3.42,12.39,4.19,18.45,2.68,6.01-1.51,11.48-5.34,14.97-11.19,5.77-9.63,17.4-14.18,28.07-10.74,3.95,1.26,7.94,2.38,11.95,3.42,10.89,2.71,18.35,12.67,18.14,23.84l.02,.08c-.19,13.43,10.55,24.49,24.01,24.68l6.96,.12c13.46,.19,24.52-10.55,24.69-23.99l-.02-.05c.19-11.27,7.98-20.99,18.91-23.36,2.02-.45,4.05-.9,6.04-1.42,2.07-.5,4.05-1.06,6.04-1.62,10.8-3.1,22.22,1.77,27.71,11.59l.02,.06c6.6,11.72,21.43,15.95,33.16,9.43l6.04-3.35c11.75-6.58,15.96-21.43,9.38-33.14l-.03-.06c-3.84-6.86-4.03-14.98-.95-21.82,1.31-2.89,3.19-5.57,5.63-7.8,3.07-2.82,6.08-5.71,8.96-8.7,7.78-8.08,20.12-9.59,29.77-3.87l.08,.11c1.96,1.17,4.03,2.02,6.13,2.58,10.29,2.77,21.55-1.46,27.23-11.05l3.56-5.96c1.31-2.16,2.22-4.47,2.79-6.8,2.46-10.05-1.81-20.96-11.19-26.58l-.03-.06c-9.63-5.69-14.11-17.33-10.74-28.01,1.26-3.97,2.37-8,3.42-12.01,2.18-8.73,9.09-15.31,17.51-17.43,2.07-.51,4.2-.75,6.38-.75,13.44,.19,24.52-10.53,24.73-23.92l.02-1.34,.12-5.59v-.26h-107.61Z"/><path class="f" d="M578.83,40.32c-12.94,7.06-27.25,9.54-42.31,5.55-9.28-2.46-18.11-6.18-26.64-9.99-11.16-4.97-21.63-10.85-32.75-15.87-18.23-8.22-37.26-11.12-57.97-3.15,.4-3.34,.72-5.9,1-8.47,.55-5.16-1.92-8.08-7.08-8.39h0c-1.85-.1-3.47,.95-3.64,2.37l-43.63,351.36c-.1,.82,.66,1.58,1.73,1.67h.02c4.91,.39,8.26-2.31,8.99-7.25,.11-.75,.2-1.51,.29-2.27,6.4-51.41,21.78-162.9,28-214.32,.36-3.01,1.78-4.58,5.1-5.83,10.37-3.91,21.39-5.85,32.28-2.78,11.26,3.17,22.12,7.37,32.61,11.86,11.08,4.75,21.21,10.82,32.31,15.53,20.03,8.52,40.17,10.03,59.66-1.4,3.38-1.98,5.2-4.1,5.6-7.49,2.88-24.65,6.04-49.29,9.08-73.93,1.24-10.1,2.42-20.2,3.69-30.81-2.54,1.44-4.42,2.55-6.35,3.6Zm-162.44-14.37c.14-1.03,1.26-2.31,2.42-2.88,9.46-4.63,19.7-6.86,31.42-5.61-.98,8.22-1.93,16.19-2.82,23.77,10.41,3.34,20.4,6.54,31.06,9.96,1.02-7.53,2.08-15.41,3.25-24.09,10.3,5.11,19.91,9.84,29.42,14.68,.77,.39,1.32,1.59,1.23,2.35-.84,7.52-1.85,15.03-2.9,23.3-10.5-5.2-20.14-9.98-30.41-15.06-1.38,8.51-2.69,16.6-4,24.68-9.75-4.4-19.52-8.77-31.16-9.55,1.02-8.26,2.03-16.51,3.07-24.96-12.1-1.53-22.67,1.36-33.44,6.45,.98-8.15,1.81-15.6,2.88-23.05Zm56.1,77.46c-.95,7.06-1.98,14.77-3.03,22.48-10.5-3.27-20.66-6.43-31.53-9.81,.87-7.37,1.82-15.45,2.79-23.74-12.25-1.63-22.64,1.3-33.42,6.46,1.07-8.42,2.01-16.13,3.08-23.83,.08-.63,.8-1.42,1.52-1.76,9.78-4.69,20.05-7.81,31.9-5.58-.85,8.06-1.69,16.11-2.45,23.41,10.65,3.34,20.65,6.47,31.1,9.75,.93-7.68,1.89-15.55,2.84-23.43,10.45,4.96,20.89,9.93,31.34,14.9-1.22,8.22-2.43,16.44-3.64,24.67-10.05-4.45-20.09-8.91-30.5-13.52Zm102.05-33.88c-.16,1.02-2.16,2.09-3.6,2.76-9.09,4.26-18.97,6.04-29.9,5-1.02,8.22-2,16.2-3.03,24.52,12.25,1.64,22.77-1.15,33.48-6.48-1,8.32-1.82,16.09-3.01,23.82-.16,1.02-2.05,2.09-3.44,2.76-9.02,4.36-18.95,6.02-30.1,5.23-1.08,8.33-2.14,16.38-3.22,24.68-11-1.2-20.54-4.45-29.42-8.8-1.26-.61-1.83-2.82-1.7-4.22,.69-7.21,1.71-14.39,2.61-21.59,9.88,4.2,19.72,8.48,31.58,9.42,.99-8.36,1.93-16.28,2.71-22.8-11.11-4.2-20.96-7.91-30.8-11.63,.83-8.06,1.66-16.13,2.5-24.22,10.65,3.44,20.55,6.62,31.43,10.13,1.25-9.31,2.34-17.4,3.45-25.75,12.13,.93,22.81-1.37,33.6-6.83-1.05,8.5-1.89,16.27-3.13,24Z"/><path class="h" d="M228.13,231.78c14.56,11.13,29.59,9.66,44.55,1.36,8.29-4.6,15.85-10.5,24.12-15.13,7.83-4.38,15.94-8.46,24.35-11.55,8.13-2.99,16.36-1.1,24.1,2.7,2.48,1.22,3.54,2.75,3.81,5.68,4.65,50.07,9.46,100.13,14.23,150.2,.07,.74,.14,1.47,.22,2.21,.54,4.81,3.05,7.44,6.71,7.06,3.8-.4,5.65-3.27,5.18-8.32-8.58-90.71-17.17-181.41-25.77-272.11-.47-4.98-2.85-7.44-6.71-7.14-3.85,.3-5.7,3.14-5.29,8.17,.21,2.5,.45,4.99,.75,8.24-15.46-7.76-29.67-4.94-43.28,3.07-8.31,4.89-16.12,10.61-24.45,15.46-6.37,3.71-12.96,7.33-19.89,9.73-11.24,3.88-21.93,1.48-31.59-5.4-1.44-1.03-2.84-2.1-4.74-3.51,.95,10.33,1.83,20.17,2.76,30,2.27,24,4.63,47.99,6.78,72,.29,3.3,1.66,5.37,4.18,7.29Zm89.49-103.62c.77,8.23,1.53,16.27,2.29,24.31-8.69,.76-15.99,5.02-23.27,9.3-.98-7.87-1.96-15.74-2.99-24.03-7.66,4.95-14.86,9.6-22.7,14.67-.79-8.05-1.54-15.36-2.17-22.69-.06-.75,.34-1.91,.92-2.29,7.1-4.71,14.28-9.32,21.96-14.3,.87,8.45,1.67,16.13,2.43,23.46,7.97-3.33,15.42-6.46,23.19-9.71-.67-7.38-1.38-15.14-2.11-23.15,8.75-1.22,16.39,.94,23.45,5.46,.87,.56,1.7,1.8,1.81,2.81,.8,7.24,1.41,14.51,2.15,22.44-8.04-4.96-15.94-7.78-24.97-6.29Zm-19.07,59.27l-22.77,13.17c-.91-8.01-1.81-16.02-2.72-24.02,7.8-4.84,15.6-9.67,23.4-14.51,.71,7.67,1.43,15.34,2.12,22.82,7.8-3.19,15.27-6.24,23.22-9.49-.57-7.11-1.2-14.95-1.83-22.8,8.84-2.18,16.51,.86,23.81,5.43,.54,.34,1.07,1.1,1.14,1.71,.79,7.5,1.5,15.01,2.3,23.21-8.05-5.03-15.8-7.88-24.95-6.3,.73,8.07,1.44,15.94,2.08,23.12-8.11,3.29-15.69,6.37-23.54,9.56-.77-7.51-1.55-15.01-2.26-21.89Zm-71.66,15.32c-.89-7.53-1.5-15.09-2.25-23.2,8,5.2,15.85,7.91,24.99,6.32-.77-8.11-1.5-15.88-2.26-23.88-8.16,1.02-15.54-.72-22.33-4.86-1.08-.66-2.57-1.69-2.69-2.69-.92-7.53-1.55-15.1-2.34-23.37,8.06,5.31,16.03,7.55,25.09,6.64,.83,8.13,1.64,16.01,2.57,25.07,8.13-3.42,15.52-6.52,23.47-9.86,.62,7.88,1.24,15.73,1.86,23.58-7.35,3.62-14.7,7.24-22.99,11.33,.58,6.35,1.28,14.06,2.02,22.2,8.85-.92,16.2-5.08,23.57-9.17,.68,7,1.44,14,1.95,21.02,.1,1.37-.32,3.51-1.26,4.12-6.64,4.24-13.76,7.4-21.97,8.57-.81-8.09-1.59-15.93-2.4-24.03-8.33,.76-15.74-.86-22.47-5.1-1.04-.65-2.45-1.69-2.57-2.69Z"/></g></g></svg>