<?xml version="1.0" encoding="UTF-8"?><svg xmlns="http://www.w3.org/2000/svg" xmlns:xlink="http://www.w3.org/1999/xlink" viewBox="0 0 408.09 641.99"><defs><style>.f{fill:#ed4444;}.g{fill:url(#d);}.h{fill:url(#e);}</style><linearGradient id="d" x1="4077.41" y1="1333.8" x2="4567.7" y2="1333.8" gradientTransform="translate(-1058.95 4719.4) rotate(-90)" gradientUnits="userSpaceOnUse"><stop offset=".41" stop-color="#4cc5d9"/><stop offset=".42" stop-color="#4cc4d9"/><stop offset=".59" stop-color="#5aabdf"/></linearGradient><linearGradient id="e" x1="0" y1="253.74" x2="177.26" y2="253.74" gradientTransform="matrix(1, 0, 0, 1, 0, 0)" xlink:href="#d"/></defs><g id="a"/><g id="b"><g id="c"><path class="g" d="M152.28,259.31c61.57-.05,117.63,41.55,133.33,103.96,13.63,54.04-6.78,108.67-47.71,141.24-14.86,11.84-32.43,20.77-52.05,25.72-11.23,2.82-22.5,4.19-33.58,4.2v107.55c13.37,.12,24.29-10.57,24.52-23.93l-.03-.14c.19-11.19,7.94-20.9,18.91-23.34,2.02-.45,4.05-.89,6.02-1.4,2.01-.5,4.06-1.07,6.04-1.65,10.75-3.08,22.25,1.85,27.71,11.62l.02,.05c6.54,11.75,21.36,15.96,33.1,9.45l6.07-3.35c9.8-5.54,14.39-16.84,11.78-27.25-.53-2.07-1.32-4-2.38-5.93-5.46-9.8-3.61-22.11,4.7-29.66,3.03-2.83,6.02-5.69,8.88-8.67,7.81-8.04,20.17-9.6,29.83-3.83l.08,.05c11.56,6.92,26.5,3.14,33.36-8.42l3.64-5.98c3.42-5.74,4.19-12.39,2.68-18.45-1.51-6.01-5.34-11.48-11.19-14.97-9.63-5.77-14.18-17.4-10.74-28.07,1.26-3.95,2.38-7.94,3.42-11.95,2.71-10.89,12.67-18.35,23.84-18.14l.08-.02c13.43,.19,24.49-10.55,24.68-24.01l.12-6.96c.19-13.46-10.55-24.52-23.99-24.69l-.05,.02c-11.27-.19-20.99-7.98-23.36-18.91-.45-2.02-.9-4.05-1.42-6.04-.5-2.07-1.06-4.05-1.62-6.04-3.1-10.8,1.77-22.22,11.59-27.71l.06-.02c11.72-6.6,15.95-21.43,9.43-33.16l-3.35-6.04c-6.58-11.75-21.43-15.96-33.14-9.38l-.06,.03c-6.86,3.84-14.98,4.03-21.82,.95-2.89-1.31-5.57-3.19-7.8-5.63-2.82-3.07-5.71-6.08-8.7-8.96-8.08-7.78-9.59-20.12-3.87-29.77l.11-.08c1.17-1.96,2.02-4.03,2.58-6.13,2.77-10.29-1.46-21.55-11.05-27.23l-5.96-3.56c-2.16-1.31-4.47-2.22-6.8-2.79-10.05-2.46-20.96,1.81-26.58,11.19l-.06,.03c-5.69,9.63-17.33,14.11-28.01,10.74-3.97-1.26-8-2.37-12.01-3.42-8.73-2.18-15.31-9.09-17.43-17.51-.51-2.07-.75-4.2-.75-6.38,.19-13.44-10.53-24.52-23.92-24.73l-1.34-.02-5.59-.12h-.26v107.61Z"/><path class="f" d="M401.1,44.38c-14.24,7.78-29.99,10.5-46.57,6.11-10.22-2.7-19.93-6.8-29.32-11-12.29-5.47-23.81-11.95-36.05-17.47-20.06-9.05-41.01-12.24-63.8-3.46,.43-3.67,.8-6.5,1.1-9.32,.61-5.68-2.11-8.9-7.79-9.23h0c-2.04-.11-3.82,1.04-4,2.6l-48.03,386.74c-.11,.9,.72,1.74,1.9,1.84h.02c5.4,.43,9.1-2.54,9.89-7.98,.12-.83,.22-1.66,.32-2.5,7.04-56.58,23.98-179.3,30.82-235.9,.4-3.31,1.96-5.04,5.62-6.42,11.42-4.31,23.54-6.44,35.53-3.06,12.39,3.49,24.35,8.11,35.89,13.05,12.2,5.23,23.35,11.9,35.56,17.1,22.05,9.38,44.21,11.04,65.67-1.54,3.72-2.18,5.73-4.51,6.16-8.24,3.16-27.14,6.64-54.26,9.99-81.38,1.37-11.12,2.67-22.23,4.06-33.91-2.79,1.59-4.87,2.81-6.99,3.97Zm-178.8-15.81c.16-1.14,1.39-2.54,2.67-3.17,10.41-5.1,21.68-7.55,34.58-6.17-1.08,9.05-2.12,17.82-3.11,26.16,11.46,3.67,22.45,7.2,34.19,10.97,1.12-8.29,2.29-16.96,3.57-26.52,11.34,5.63,21.91,10.83,32.38,16.16,.85,.43,1.45,1.75,1.35,2.59-.93,8.28-2.04,16.54-3.19,25.65-11.56-5.73-22.17-10.98-33.47-16.58-1.52,9.37-2.96,18.27-4.4,27.16-10.73-4.85-21.49-9.65-34.3-10.51,1.12-9.09,2.24-18.18,3.38-27.47-13.32-1.69-24.96,1.5-36.81,7.1,1.08-8.97,1.99-17.18,3.17-25.37Zm61.75,85.26c-1.05,7.78-2.18,16.26-3.33,24.75-11.56-3.6-22.75-7.08-34.7-10.8,.95-8.11,2-17.01,3.07-26.13-13.48-1.79-24.92,1.43-36.78,7.12,1.18-9.27,2.21-17.76,3.39-26.23,.09-.7,.88-1.56,1.67-1.94,10.76-5.16,22.07-8.6,35.11-6.14-.93,8.88-1.86,17.74-2.7,25.77,11.72,3.67,22.73,7.12,34.23,10.73,1.03-8.46,2.08-17.12,3.13-25.79,11.5,5.46,22.99,10.93,34.5,16.4-1.34,9.05-2.67,18.1-4.01,27.15-11.06-4.9-22.12-9.8-33.57-14.88Zm112.33-37.3c-.18,1.13-2.38,2.3-3.96,3.04-10,4.69-20.89,6.65-32.91,5.5-1.12,9.05-2.2,17.83-3.34,26.99,13.48,1.81,25.06-1.27,36.85-7.14-1.1,9.16-2.01,17.71-3.31,26.21-.18,1.13-2.26,2.3-3.78,3.04-9.93,4.8-20.86,6.63-33.13,5.76-1.19,9.17-2.35,18.03-3.54,27.16-12.1-1.32-22.61-4.9-32.39-9.69-1.39-.67-2.02-3.1-1.87-4.65,.76-7.93,1.88-15.84,2.88-23.76,10.87,4.63,21.71,9.33,34.76,10.36,1.09-9.2,2.13-17.92,2.98-25.1-12.23-4.62-23.07-8.71-33.9-12.8,.92-8.88,1.83-17.75,2.75-26.65,11.72,3.78,22.62,7.29,34.6,11.15,1.38-10.25,2.57-19.15,3.79-28.34,13.35,1.03,25.1-1.5,36.99-7.51-1.16,9.36-2.08,17.91-3.44,26.42Z"/><path class="h" d="M15.09,255.12c16.03,12.25,32.57,10.63,49.03,1.5,9.12-5.06,17.45-11.56,26.55-16.65,8.62-4.82,17.55-9.31,26.8-12.71,8.95-3.29,18-1.21,26.53,2.98,2.73,1.34,3.9,3.03,4.2,6.25,5.12,55.12,10.41,110.22,15.66,165.32,.08,.81,.15,1.62,.24,2.43,.6,5.3,3.35,8.19,7.38,7.77,4.18-.44,6.22-3.6,5.7-9.16-9.44-99.84-18.9-199.68-28.37-299.51-.52-5.49-3.14-8.19-7.39-7.86-4.24,.33-6.27,3.45-5.82,8.99,.23,2.75,.5,5.49,.82,9.07-17.02-8.54-32.66-5.43-47.63,3.38-9.14,5.38-17.75,11.68-26.91,17.02-7.02,4.08-14.27,8.07-21.9,10.71-12.38,4.27-24.13,1.62-34.77-5.95-1.58-1.13-3.13-2.31-5.22-3.86,1.04,11.37,2.01,22.2,3.03,33.02,2.5,26.42,5.1,52.82,7.46,79.25,.32,3.63,1.83,5.91,4.6,8.03Zm98.5-114.05c.85,9.06,1.69,17.9,2.52,26.75-9.57,.84-17.6,5.52-25.61,10.24-1.08-8.66-2.15-17.33-3.29-26.45-8.43,5.45-16.36,10.57-24.99,16.14-.87-8.86-1.69-16.91-2.39-24.97-.07-.83,.37-2.1,1.01-2.52,7.82-5.19,15.71-10.26,24.17-15.74,.96,9.3,1.84,17.75,2.67,25.82,8.77-3.67,16.97-7.11,25.53-10.69-.74-8.12-1.52-16.66-2.32-25.48,9.63-1.34,18.04,1.04,25.81,6.01,.96,.61,1.87,1.98,1.99,3.09,.88,7.97,1.56,15.97,2.36,24.7-8.85-5.46-17.54-8.56-27.48-6.92Zm-20.99,65.24l-25.06,14.5c-1-8.81-1.99-17.63-2.99-26.44,8.58-5.32,17.17-10.65,25.75-15.97,.79,8.44,1.57,16.88,2.34,25.11,8.59-3.51,16.8-6.87,25.56-10.44-.63-7.82-1.32-16.45-2.02-25.09,9.73-2.4,18.17,.95,26.21,5.97,.59,.37,1.18,1.21,1.25,1.88,.87,8.26,1.65,16.52,2.53,25.55-8.86-5.54-17.4-8.68-27.46-6.93,.8,8.89,1.58,17.55,2.29,25.44-8.92,3.62-17.27,7.01-25.91,10.52-.85-8.27-1.7-16.52-2.48-24.1ZM13.73,223.17c-.98-8.29-1.65-16.61-2.48-25.53,8.8,5.72,17.44,8.71,27.51,6.95-.85-8.93-1.66-17.47-2.49-26.29-8.98,1.12-17.1-.79-24.57-5.35-1.18-.72-2.82-1.86-2.96-2.96-1.01-8.29-1.7-16.62-2.57-25.73,8.87,5.85,17.65,8.32,27.61,7.31,.92,8.95,1.81,17.62,2.83,27.6,8.95-3.76,17.08-7.18,25.84-10.86,.68,8.67,1.37,17.31,2.05,25.95-8.09,3.98-16.18,7.97-25.31,12.47,.64,6.99,1.41,15.48,2.22,24.44,9.74-1.01,17.83-5.59,25.95-10.1,.74,7.71,1.58,15.41,2.15,23.14,.11,1.51-.36,3.87-1.39,4.53-7.31,4.67-15.14,8.15-24.18,9.44-.89-8.9-1.75-17.53-2.64-26.45-9.16,.84-17.32-.94-24.73-5.61-1.14-.72-2.69-1.86-2.82-2.96Z"/></g></g></svg>