<svg xmlns="http://www.w3.org/2000/svg" xmlns:xlink="http://www.w3.org/1999/xlink" width="112.088" height="112.02" viewBox="0 0 112.088 112.02">
  <defs>
    <linearGradient id="linear-gradient" y1="0.5" x2="1" y2="0.5" gradientUnits="objectBoundingBox">
      <stop offset="0.415" stop-color="#3abbd1"/>
      <stop offset="0.442" stop-color="#3ab5d2"/>
      <stop offset="0.59" stop-color="#3c9cd9"/>
    </linearGradient>
  </defs>
  <g id="Group_253" data-name="Group 253" transform="translate(-260.686 -1660.975)">
    <g id="Group_254" data-name="Group 254">
      <path id="Path_721" data-name="Path 721" d="M-580.637,291.033c.362-.214.3-.629.424-.947a6.948,6.948,0,0,1,6.477-4.52q39.767-.008,79.536,0a6.983,6.983,0,0,1,6.963,7.172c.022,8.606.007,17.211.007,25.816,0,5-.026,9.991.024,14.987.01.9-.276,1.106-1.095,1.044a16.907,16.907,0,0,0-2.623,0c-.827.066-1.1-.154-1.092-1.047.043-6.673.024-13.346.024-20.019,0-6.6-.074-13.2.032-19.8.05-3.124-1.283-3.486-3.452-3.482q-30.578.045-61.156.018-8.15,0-16.3,0c-2.338,0-3.07.731-3.07,3.069q0,27.239,0,54.478c0,2.34.733,3.073,3.068,3.074,9.481,0,18.963.016,28.444-.021.951,0,1.314.2,1.2,1.193-.137,1.144.474,2.691-.241,3.343-.625.57-2.153.25-3.268.156-1.061-.091-1.239.324-1.214,1.269.062,2.405.044,4.813.005,7.22-.01.676.193.87.864.861,2.516-.036,5.033,0,7.549-.028.66-.009,1,.088.924.866-.121,1.255.514,2.951-.249,3.657-.674.624-2.35.18-3.584.182-4.631.007-9.263-.021-13.894.024-.828.009-1.069-.2-1-1.018a25.547,25.547,0,0,0,.009-2.952c-.021-.561.148-.78.735-.757,1.056.039,2.116-.019,3.172.022.594.023.823-.122.813-.774-.038-2.589-.049-5.178.006-7.766.016-.753-.291-.793-.887-.791q-9.791.026-19.583.011c-3.831,0-6.1-1.622-7.353-5.252-.029-.086-.136-.145-.206-.217Z" transform="translate(841.323 1375.413)" opacity="0.28" fill="url(#linear-gradient)"/>
      <path id="Path_722" data-name="Path 722" d="M-467.023,408.771c-.592-.52-1.215-1.01-1.773-1.566q-6.546-6.521-13.073-13.064c-1.91-1.91-1.91-2.818.029-4.738a11.935,11.935,0,0,1,.984-.788c-1.591-1.576-3.062-2.991-4.478-4.458-.448-.463-.72-.37-1.165-.025a25.228,25.228,0,0,1-16.444,5.361,25.453,25.453,0,0,1-24.039-20.652,25.281,25.281,0,0,1,18.42-29.253c13.636-3.806,28.35,5.1,31.251,18.9a25.1,25.1,0,0,1-4.734,21.2c-.289.382-.478.644-.029,1.084,1.482,1.45,2.918,2.949,4.459,4.518.463-.51.835-.961,1.25-1.368,1.4-1.374,2.58-1.381,3.969,0q6.626,6.6,13.231,13.215c.412.412.842.812,1.21,1.262a2.152,2.152,0,0,1,.02,2.987,89.545,89.545,0,0,1-7.559,7.381Zm-35.024-65.313a20.662,20.662,0,0,0-20.683,20.663,20.615,20.615,0,0,0,20.7,20.625,20.558,20.558,0,0,0,20.6-20.7A20.6,20.6,0,0,0-502.047,343.458Zm35.869,59.647c.9-.921,1.761-1.856,2.683-2.732.393-.373.339-.559-.018-.914q-5.422-5.382-10.808-10.794l-3.127,3.182Z" transform="translate(830.112 1364.224)" opacity="0.28" fill="url(#linear-gradient)"/>
      <path id="Path_723" data-name="Path 723" d="M-533.405,304.422a3.328,3.328,0,0,1-.249,1.725c-.575,1.057-.073,1.664.671,2.369,1.8,1.7,3.53,3.481,5.266,5.251a1.028,1.028,0,0,0,1.3.336,6.236,6.236,0,0,1,4.689.005.957.957,0,0,0,1.217-.289c1.944-1.974,3.892-3.945,5.885-5.87a1.069,1.069,0,0,0,.251-1.325,6.955,6.955,0,0,1,4.667-8.979,6.921,6.921,0,0,1,8.734,4.964,6.607,6.607,0,0,1-1.9,6.8,6.537,6.537,0,0,1-6.946,1.629,1.377,1.377,0,0,0-1.674.418q-2.739,2.827-5.567,5.567a1.215,1.215,0,0,0-.388,1.487,6.871,6.871,0,0,1-2.482,7.85,7.061,7.061,0,0,1-8.167.111,6.958,6.958,0,0,1-2.642-7.915,1.306,1.306,0,0,0-.414-1.592q-2.822-2.745-5.569-5.567a1.173,1.173,0,0,0-1.492-.392,5.764,5.764,0,0,1-4.37.013,1.261,1.261,0,0,0-1.581.421c-2.607,2.652-5.274,5.245-7.861,7.916-.623.643-.962.579-1.494-.036a19.864,19.864,0,0,0-2.01-2.008c-.533-.462-.456-.729.014-1.191,2.73-2.684,5.416-5.412,8.14-8.1a1.15,1.15,0,0,0,.343-1.385,6.66,6.66,0,0,1,2-7.521,6.591,6.591,0,0,1,7.43-1.149A6.766,6.766,0,0,1-533.405,304.422Zm-4.732-.093a2.324,2.324,0,0,0-2.295-2.281,2.331,2.331,0,0,0-2.27,2.306,2.238,2.238,0,0,0,2.349,2.295A2.239,2.239,0,0,0-538.137,304.329Zm30.423,2.323a2.337,2.337,0,0,0,2.294-2.286,2.425,2.425,0,0,0-2.294-2.321,2.34,2.34,0,0,0-2.308,2.379A2.237,2.237,0,0,0-507.714,306.652Zm-16.335,11.776a2.332,2.332,0,0,0-2.354,2.222,2.418,2.418,0,0,0,2.339,2.382,2.336,2.336,0,0,0,2.263-2.316A2.235,2.235,0,0,0-524.049,318.427Z" transform="translate(836.115 1372.941)" opacity="0.28" fill="url(#linear-gradient)"/>
    </g>
  </g>
</svg>
