<svg xmlns="http://www.w3.org/2000/svg" xmlns:xlink="http://www.w3.org/1999/xlink" width="61.932" height="67.16" viewBox="0 0 61.932 67.16">
  <defs>
    <linearGradient id="linear-gradient" y1="0.5" x2="1" y2="0.5" gradientUnits="objectBoundingBox">
      <stop offset="0.415" stop-color="#3abbd1"/>
      <stop offset="0.442" stop-color="#3ab5d2"/>
      <stop offset="0.59" stop-color="#3c9cd9"/>
    </linearGradient>
  </defs>
  <g id="Group_255" data-name="Group 255" transform="translate(-563.42 -1826.87)">
    <path id="Path_711" data-name="Path 711" d="M-166.53,482.7a8.745,8.745,0,0,1,2.81,1.253,6.315,6.315,0,0,1,2.313,3.394.987.987,0,0,1-.628,1.31c-.535.187-1.013-.086-1.261-.721a4.469,4.469,0,0,0-4.777-3.269H-202.3c-3.067,0-4.884,1.815-4.884,4.881q0,23.474,0,46.947a4.426,4.426,0,0,0,3,4.513c.663.281.939.777.732,1.317a1.052,1.052,0,0,1-1.465.547,6.32,6.32,0,0,1-4.232-5.88q-.012-24,0-48a6.339,6.339,0,0,1,4.551-6.045c.192-.057.442-.019.56-.252Z" transform="translate(772.578 1344.174)" opacity="0.36" fill="url(#linear-gradient)"/>
    <path id="Path_712" data-name="Path 712" d="M-155.671,531.311c1.7-1.7,3.27-3.284,4.848-4.858a4.364,4.364,0,0,1,6.6-.029c.374.368.746.738,1.111,1.114a4.344,4.344,0,0,1-.032,6.367q-5.04,5.068-10.105,10.111c-2.782,2.782-5.574,5.554-8.341,8.351a8.685,8.685,0,0,1-3.884,2.311c-.9.253-1.8.525-2.7.751a3.382,3.382,0,0,1-4.06-4.055c.2-.8.436-1.588.675-2.451h-.825q-10.656,0-21.311,0a4,4,0,0,1-.843-.07.88.88,0,0,1-.744-.936.9.9,0,0,1,.722-.958,3.142,3.142,0,0,1,.778-.064q11.18,0,22.36.009a.932.932,0,0,0,.977-.544,6.939,6.939,0,0,1,1.328-1.611q5.5-5.491,11-10.98a1.449,1.449,0,0,0,.478-1.135q-.021-16.984-.01-33.967c0-.241-.008-.482.013-.721a.91.91,0,0,1,.935-.905.942.942,0,0,1,1.018.826,3.014,3.014,0,0,1,.018.654q0,15.967,0,31.934Zm-8.323,20.454a2.085,2.085,0,0,0,.689-.524q5.5-5.483,11-10.966c.261-.258.268-.394,0-.654q-2.082-2.041-4.123-4.124c-.267-.273-.407-.239-.657.015-1.485,1.511-2.988,3-4.484,4.5q-3.288,3.293-6.578,6.581c-.4.394-.442.654.011,1.081,1.287,1.213,2.515,2.489,3.767,3.738C-164.247,551.539-164.117,551.652-163.995,551.766Zm16.349-24.829a2.45,2.45,0,0,0-1.5.658c-.733.719-1.449,1.455-2.187,2.169-.2.192-.224.3-.013.51q2.145,2.118,4.263,4.263c.2.207.316.192.509-.009.713-.738,1.453-1.451,2.169-2.188a2.327,2.327,0,0,0,.657-1.6C-143.7,529.278-146.078,526.911-147.646,526.937Zm-.637,9.238c-.077-.087-.132-.155-.193-.216q-2.153-2.154-4.3-4.31c-.157-.158-.265-.169-.426,0-.626.64-1.258,1.275-1.9,1.9-.185.179-.18.289,0,.47q2.141,2.12,4.261,4.261c.195.2.314.225.519.012.6-.63,1.231-1.239,1.846-1.859A2.54,2.54,0,0,0-148.282,536.175ZM-169.538,549.2q-.343,1.156-.686,2.309c-.031.1-.057.21-.08.316a1.4,1.4,0,0,0,1.538,1.7c.939-.2,1.852-.517,2.775-.783Z" transform="translate(767.094 1338.504)" opacity="0.36" fill="url(#linear-gradient)"/>
    <path id="Path_713" data-name="Path 713" d="M-178.424,490.224c3.211,0,6.423.063,9.632-.021a3.753,3.753,0,0,1,4,4.057,19.242,19.242,0,0,1-.08,2.419,3.558,3.558,0,0,1-3.567,3.015q-9.927.009-19.855,0a3.534,3.534,0,0,1-3.671-3.124,11.061,11.061,0,0,1,0-3.2,3.518,3.518,0,0,1,3.717-3.142C-184.977,490.214-181.7,490.225-178.424,490.224Zm.018,1.991q-4.916,0-9.834,0A1.592,1.592,0,0,0-190,493.889c-.024.568-.007,1.136-.005,1.7,0,1.6.528,2.128,2.114,2.128h18.947c.175,0,.351.008.524-.005a1.6,1.6,0,0,0,1.587-1.655c.019-.655.01-1.311,0-1.966-.01-1.29-.6-1.878-1.876-1.879Q-173.555,492.213-178.407,492.216Z" transform="translate(765.828 1341.206)" opacity="0.36" fill="url(#linear-gradient)"/>
    <path id="Path_714" data-name="Path 714" d="M-187.92,557.463a4.336,4.336,0,0,1-4.367,4.279,4.337,4.337,0,0,1-4.279-4.368A4.336,4.336,0,0,1-192.2,553.1,4.334,4.334,0,0,1-187.92,557.463Zm-4.343-2.354a2.326,2.326,0,0,0-2.319,2.33,2.328,2.328,0,0,0,2.359,2.29,2.327,2.327,0,0,0,2.319-2.33A2.328,2.328,0,0,0-192.263,555.108Z" transform="translate(767.6 1316.34)" opacity="0.36" fill="url(#linear-gradient)"/>
    <path id="Path_715" data-name="Path 715" d="M-192.274,532.559a4.308,4.308,0,0,1,4.354,4.277,4.365,4.365,0,0,1-4.292,4.368,4.366,4.366,0,0,1-4.355-4.306A4.3,4.3,0,0,1-192.274,532.559Zm.016,6.614a2.328,2.328,0,0,0,2.354-2.295,2.356,2.356,0,0,0-2.323-2.338,2.354,2.354,0,0,0-2.353,2.307A2.326,2.326,0,0,0-192.258,539.173Z" transform="translate(767.6 1324.46)" opacity="0.36" fill="url(#linear-gradient)"/>
    <path id="Path_716" data-name="Path 716" d="M-164.668,519.463q-3.737,0-7.474,0a3.008,3.008,0,0,1-.778-.077.874.874,0,0,1-.674-.86.939.939,0,0,1,.542-.962,1.736,1.736,0,0,1,.833-.126q7.606,0,15.212,0c.065,0,.131,0,.2,0,.724.027,1.2.446,1.18,1.042a1.046,1.046,0,0,1-1.169.979C-159.423,519.469-162.046,519.462-164.668,519.463Z" transform="translate(758.519 1330.439)" opacity="0.36" fill="url(#linear-gradient)"/>
    <path id="Path_717" data-name="Path 717" d="M-164.637,540.008h-7.474a5.466,5.466,0,0,1-.589-.015.9.9,0,0,1-.886-.942.946.946,0,0,1,.824-1.017,1.856,1.856,0,0,1,.457-.016h15.341a2.352,2.352,0,0,1,.458.013.99.99,0,0,1,.875.989.95.95,0,0,1-.942.972c-.917.029-1.835.016-2.753.016Q-161.983,540.01-164.637,540.008Z" transform="translate(758.515 1322.304)" opacity="0.36" fill="url(#linear-gradient)"/>
    <path id="Path_718" data-name="Path 718" d="M-164.676,560.586c-2.622,0-5.245,0-7.867,0a.951.951,0,0,1-1.03-.726.949.949,0,0,1,.459-1.124,1.112,1.112,0,0,1,.631-.122q7.834,0,15.668,0c.732,0,1.2.41,1.177,1.013-.021.581-.467.952-1.172.953Q-160.742,560.59-164.676,560.586Z" transform="translate(758.525 1314.157)" opacity="0.36" fill="url(#linear-gradient)"/>
    <path id="Path_719" data-name="Path 719" d="M-194.459,519.053a.948.948,0,0,1-.753-.331c-.728-.725-1.461-1.445-2.177-2.181a1,1,0,0,1-.1-1.458.97.97,0,0,1,1.5.046c.4.374.8.752,1.156,1.162.284.325.458.311.762,0,1.481-1.517,2.989-3.007,4.49-4.505.568-.567,1.157-.645,1.6-.222.472.449.4,1.038-.2,1.649q-2.663,2.67-5.332,5.333A1.2,1.2,0,0,1-194.459,519.053Z" transform="translate(768.072 1332.867)" opacity="0.36" fill="url(#linear-gradient)"/>
  </g>
</svg>
