<svg xmlns="http://www.w3.org/2000/svg" xmlns:xlink="http://www.w3.org/1999/xlink" width="66.524" height="79.839" viewBox="0 0 66.524 79.839">
  <defs>
    <linearGradient id="linear-gradient" y1="0.5" x2="1" y2="0.5" gradientUnits="objectBoundingBox">
      <stop offset="0.415" stop-color="#3abbd1"/>
      <stop offset="0.442" stop-color="#3ab5d2"/>
      <stop offset="0.59" stop-color="#3c9cd9"/>
    </linearGradient>
    <linearGradient id="linear-gradient-7" x1="0" y1="0.5" x2="1" y2="0.5" xlink:href="#linear-gradient"/>
    <linearGradient id="linear-gradient-9" x1="0" y1="0.5" x2="1" y2="0.5" xlink:href="#linear-gradient"/>
  </defs>
  <g id="Group_254" data-name="Group 254" transform="translate(-1052.082 -1707.107)">
    <path id="Path_734" data-name="Path 734" d="M478.837,432.666a8.655,8.655,0,0,1,3.975,1.992,5.245,5.245,0,0,1,1.767,4.073c-.047,3.507-.029,7.015,0,10.522.005.594-.169.737-.746.731-1.969-.02-1.969,0-1.969-1.986,0-1.3-.035-2.6.014-3.9.025-.656-.186-.821-.83-.821q-17.5.029-34.994.014c-2,0-4,.023-6-.013-.594-.011-.75.178-.739.753.035,1.74-.013,3.481.026,5.222.014.6-.173.735-.748.728-1.967-.021-1.967,0-1.967-1.989q0-3.975,0-7.95c0-3.931,1.692-6.174,5.475-7.269.04-.011.065-.072.1-.11ZM460.6,440.628h19.324c1.908,0,1.833,0,1.933-1.9a2.79,2.79,0,0,0-1.536-2.66,5.067,5.067,0,0,0-2.813-.757c-11.246.008-22.493.033-33.739-.016a4.142,4.142,0,0,0-4.439,4.457c.046.732.243.891.933.889C447.043,440.619,453.822,440.628,460.6,440.628Z" transform="translate(624.75 1274.441)" fill="url(#linear-gradient)"/>
    <path id="Path_735" data-name="Path 735" d="M455.08,504.938q-16.172,0-32.343.014c-.681,0-.924-.129-.923-.881q.038-20.459,0-40.92c0-.706.2-.851.873-.851q32.383.026,64.766,0c.656,0,.884.122.883.842q-.035,20.5,0,41c0,.659-.2.813-.833.811Q471.292,504.923,455.08,504.938Zm-.045-2.73q14.848,0,29.7.018c.764,0,.938-.219.936-.958q-.039-13.68,0-27.359c0-.694-.154-.918-.892-.917q-29.7.032-59.39,0c-.731,0-.9.213-.895.914q.033,13.64.014,27.281c0,1.021,0,1.021.994,1.021Zm-.015-31.855h6.547c7.741,0,15.483-.009,23.225.015.678,0,.91-.157.873-.86-.06-1.14-.016-2.286-.016-3.429,0-1.036,0-1.036-1.057-1.036h-59a4.293,4.293,0,0,1-.467,0c-.468-.053-.642.132-.632.615.026,1.272.055,2.549-.009,3.818-.037.742.224.895.919.893Q440.212,470.336,455.021,470.353Z" transform="translate(630.268 1263.4)" fill="url(#linear-gradient)"/>
    <path id="Path_736" data-name="Path 736" d="M464.571,540.242c.072-1.237.072-1.237,1.329-1.237,5.039,0,10.077-.015,15.116.017.7,0,.875-.2.856-.876-.047-1.713.006-3.429-.028-5.143-.011-.558.176-.688.708-.686,2.006.006,2.006-.013,2.006,2.026,0,2.727.005,5.455,0,8.182-.01,4.3-2.831,7.108-7.139,7.108q-16.986,0-33.971,0a6.625,6.625,0,0,1-6.629-5.175,7.716,7.716,0,0,1-.191-1.7c-.018-3.247,0-6.494-.021-9.74,0-.54.142-.7.693-.7,2.02,0,2.02-.018,2.02,2.012,0,1.273.037,2.547-.015,3.818-.028.675.152.881.856.876,5.038-.032,10.077-.017,15.115-.017,1.258,0,1.258,0,1.329,1.237a3.49,3.49,0,0,0-.045.385c-.01,1.092.169,1.043-1.051,1.043h-11.3c-1.4,0-2.806,0-4.209,0-.263,0-.634-.1-.634.351a6.915,6.915,0,0,0,.121,2.089,3.985,3.985,0,0,0,4.072,2.865c11.3,0,22.6-.023,33.9.02a4.119,4.119,0,0,0,4.386-4.429c-.045-.686-.168-.922-.9-.917-4.91.034-9.821.018-14.731.018C464.711,541.67,464.711,541.67,464.571,540.242Z" transform="translate(624.756 1237.312)" fill="url(#linear-gradient)"/>
    <path id="Path_739" data-name="Path 739" d="M495.786,498.49a1.194,1.194,0,0,1-.417,1.045c-1.823,1.813-3.634,3.638-5.461,5.447a1.4,1.4,0,0,1-2.016.107,1.325,1.325,0,0,1,.161-1.991c1.334-1.347,2.651-2.714,4.034-4.008.531-.5.441-.745-.028-1.193-1.334-1.273-2.62-2.595-3.921-3.9-.759-.762-.823-1.5-.2-2.1a1.39,1.39,0,0,1,2.062.216q2.624,2.61,5.236,5.231A1.4,1.4,0,0,1,495.786,498.49Z" transform="translate(605.788 1252.508)" fill="url(#linear-gradient)"/>
    <path id="Path_740" data-name="Path 740" d="M448.954,498.57a1.4,1.4,0,0,1,.5-1.182c1.783-1.776,3.555-3.563,5.343-5.335a1.279,1.279,0,0,1,1.985-.131c.63.628.594,1.29-.137,2.027-1.371,1.382-2.738,2.767-4.135,4.121-.349.339-.338.52,0,.851,1.377,1.338,2.726,2.7,4.08,4.066.767.772.815,1.452.163,2.086-.6.579-1.31.511-2.042-.218-1.766-1.757-3.522-3.524-5.287-5.281A1.179,1.179,0,0,1,448.954,498.57Z" transform="translate(620.158 1252.516)" fill="url(#linear-gradient)"/>
    <path id="Path_741" data-name="Path 741" d="M468.933,505.519a1.337,1.337,0,0,1-1.338-1.954c.8-1.481,1.663-2.927,2.5-4.385q2.017-3.5,4.042-7a1.342,1.342,0,0,1,1.882-.675,1.3,1.3,0,0,1,.446,1.933q-3.277,5.734-6.589,11.447A1.191,1.191,0,0,1,468.933,505.519Z" transform="translate(613.272 1252.582)" fill="url(#linear-gradient)"/>
    <path id="Path_742" data-name="Path 742" d="M430.33,469.967c0-1.26,0-1.26,1.278-1.26,1.377,0,1.377,0,1.377,1.394,0,1.262,0,1.262-1.277,1.262C430.33,471.363,430.33,471.363,430.33,469.967Z" transform="translate(627.095 1261.012)" fill="url(#linear-gradient-7)"/>
    <path id="Path_743" data-name="Path 743" d="M440.167,468.707c1.279,0,1.279,0,1.279,1.258,0,1.4,0,1.4-1.373,1.4-1.28,0-1.28,0-1.28-1.259C438.793,468.707,438.793,468.707,440.167,468.707Z" transform="translate(623.941 1261.012)" fill="url(#linear-gradient-7)"/>
    <path id="Path_744" data-name="Path 744" d="M449.9,470.092c0,1.271,0,1.271-1.27,1.271-1.386,0-1.386,0-1.386-1.387,0-1.269,0-1.269,1.269-1.269C449.9,468.707,449.9,468.707,449.9,470.092Z" transform="translate(620.791 1261.012)" fill="url(#linear-gradient-9)"/>
  </g>
</svg>
