<svg xmlns="http://www.w3.org/2000/svg" xmlns:xlink="http://www.w3.org/1999/xlink" width="232.738" height="232.735" viewBox="0 0 232.738 232.735">
  <defs>
    <linearGradient id="linear-gradient" y1="0.5" x2="1" y2="0.5" gradientUnits="objectBoundingBox">
      <stop offset="0.415" stop-color="#3abbd1"/>
      <stop offset="0.442" stop-color="#3ab5d2"/>
      <stop offset="0.59" stop-color="#3c9cd9"/>
    </linearGradient>
  </defs>
  <g id="Group_252" data-name="Group 252" transform="translate(-473.401 -1742.952)">
    <path id="Path_687" data-name="Path 687" d="M-88.386,508.308l-.031,0a11.646,11.646,0,0,1-9.864-10.459c-.053-.991-.17-2-.278-2.979s-.222-1.963-.362-2.941a11.564,11.564,0,0,1,7.249-12.4l.029,0a11.694,11.694,0,0,0,6.59-15.127l-1.231-3.1a11.613,11.613,0,0,0-12.108-7.31,10.758,10.758,0,0,0-2.985.748,11.6,11.6,0,0,1-13.765-4.116c-1.116-1.625-2.323-3.244-3.552-4.8a11.557,11.557,0,0,1,.1-14.363l0-.028a11.628,11.628,0,0,0-1.851-16.366l-2.6-2.07a11.649,11.649,0,0,0-16.362,1.852l-.026.031a11.569,11.569,0,0,1-13.978,3.3c-1.791-.851-3.638-1.663-5.473-2.39a11.61,11.61,0,0,1-7.085-12.5l0-.028a11.617,11.617,0,0,0-9.771-13.246l-3.268-.479a11.651,11.651,0,0,0-13.275,9.769l.007.062a11.565,11.565,0,0,1-10.464,9.836c-.985.081-1.967.193-2.978.306-.98.114-1.962.22-2.938.363a11.6,11.6,0,0,1-12.4-7.251l-.009-.058a11.644,11.644,0,0,0-15.094-6.592l-3.1,1.232a11.649,11.649,0,0,0-6.6,15.1v.028a11.574,11.574,0,0,1-4.112,13.767c-1.628,1.118-3.212,2.325-4.773,3.55a11.607,11.607,0,0,1-14.39-.094v-.029a11.715,11.715,0,0,0-16.4,1.855l-2.072,2.6a11.656,11.656,0,0,0,1.853,16.392l.029,0a11.556,11.556,0,0,1,3.279,14.007q-1.272,2.693-2.364,5.442a11.489,11.489,0,0,1-9.422,7.149,12.275,12.275,0,0,1-3.073-.06,11.655,11.655,0,0,0-13.279,9.773l-.473,3.3a11.653,11.653,0,0,0,9.771,13.275l.06-.009a11.621,11.621,0,0,1,9.862,10.464c.086.981.165,1.967.275,2.945s.257,1.991.4,2.971a11.615,11.615,0,0,1-7.278,12.4l-.031.006a11.643,11.643,0,0,0-6.592,15.092l1.2,3.077a11.716,11.716,0,0,0,12.166,7.332,11.7,11.7,0,0,0,2.96-.74,11.546,11.546,0,0,1,13.762,4.113c1.146,1.622,2.324,3.215,3.55,4.772a11.615,11.615,0,0,1-.1,14.4l-.028.028a11.627,11.627,0,0,0,1.854,16.364l2.607,2.1a11.592,11.592,0,0,0,8.577,2.445,11.608,11.608,0,0,0,7.809-4.329,11.577,11.577,0,0,1,14.007-3.308c1.79.853,3.6,1.64,5.447,2.4a11.524,11.524,0,0,1,7.081,12.466l0,.031a11.648,11.648,0,0,0,9.8,13.242l3.3.5a11.651,11.651,0,0,0,13.244-9.8l-.006-.031a11.587,11.587,0,0,1,10.46-9.862c.982-.082,1.971-.165,2.949-.275,1.011-.115,1.993-.255,2.969-.392a11.557,11.557,0,0,1,12.4,7.276l0,.028a11.694,11.694,0,0,0,15.125,6.591l3.081-1.2a11.661,11.661,0,0,0,6.56-15.126V599.2a11.544,11.544,0,0,1,4.113-13.734c1.622-1.149,3.244-2.324,4.8-3.552a11.557,11.557,0,0,1,14.358.072l.039.055a11.655,11.655,0,0,0,16.359-1.884l2.073-2.6a11.626,11.626,0,0,0-1.853-16.365l0-.031a11.553,11.553,0,0,1-3.3-13.974c.846-1.8,1.632-3.639,2.39-5.478a11.52,11.52,0,0,1,9.42-7.145,12.292,12.292,0,0,1,3.076.058,11.648,11.648,0,0,0,13.247-9.771l.509-3.268A11.67,11.67,0,0,0-88.386,508.308Zm-99.045,62.85a65.806,65.806,0,0,1-72.791-58,65.813,65.813,0,0,1,57.995-72.791,65.812,65.812,0,0,1,72.791,58A65.809,65.809,0,0,1-187.431,571.158Z" transform="translate(784.595 1353.55)" fill="url(#linear-gradient)"/>
    <path id="Path_688" data-name="Path 688" d="M-125.833,497.934q-3,4.255-5.99,8.525L-134.312,510a3.924,3.924,0,0,0-.426,4.1,5.264,5.264,0,0,0,4.374,2.774,4.662,4.662,0,0,0,4.292-2.233l2.982-4.708a62.2,62.2,0,0,1-13.825,61.306c-.026.026-.047.052-.073.078-15.332,16.023-40.769,21.172-63.291,12.807a55.846,55.846,0,0,1-29.249-24.613,3.6,3.6,0,0,0-3.12-1.806h0a3.613,3.613,0,0,0-3.112,5.432,64.812,64.812,0,0,0,42.681,30.91c23.261,5.065,46.8-1.959,62.091-18a60.6,60.6,0,0,0,5.117-6.136,70.592,70.592,0,0,0,10.537-60.855,21.253,21.253,0,0,0,5.06,1.933,2.612,2.612,0,0,0,2.5-.9,2.182,2.182,0,0,0,.364-2.276c-2.214-5.2-7.752-8.6-12.2-11.347l-.306-.187C-122.092,494.941-124.533,496.1-125.833,497.934Z" transform="translate(768.816 1331.17)" fill="#e82a34"/>
  </g>
</svg>
