<svg xmlns="http://www.w3.org/2000/svg" xmlns:xlink="http://www.w3.org/1999/xlink" width="1230.864" height="1244.083" viewBox="0 0 1230.864 1244.083">
  <defs>
    <linearGradient id="linear-gradient" x1="-0.002" y1="0.501" x2="0.998" y2="0.501" gradientUnits="objectBoundingBox">
      <stop offset="0" stop-color="#a4a4a4"/>
      <stop offset="0.158" stop-color="#1dd5e6"/>
      <stop offset="0.388" stop-color="#2bc7ec"/>
      <stop offset="0.863" stop-color="#45aff7"/>
      <stop offset="1" stop-color="#45aff7"/>
    </linearGradient>
  </defs>
  <path id="Path_884" data-name="Path 884" d="M1718.362,1678.123l294.5,183.12,56.636-90.617c16.991-26.43,47.2-41.532,77.4-37.756,16.991,0,33.983,1.887,50.971,1.887,30.208-1.887,60.412,15.1,75.515,43.42l50.971,92.5,305.825-164.243-50.968-92.5c-15.1-28.318-11.327-60.411,5.665-86.84,9.439-15.1,18.875-30.205,26.427-43.42,15.1-28.317,43.423-45.308,75.515-43.42l105.72,3.776,11.324-347.362-105.715-3.776a86.073,86.073,0,0,1-71.74-49.083q-5.665-11.326-11.327-22.654c-3.776-7.552-7.552-15.1-13.212-22.655a80.342,80.342,0,0,1,0-86.839l56.631-90.616L2364,637.927l-56.635,90.616c-16.988,26.43-47.2,41.533-77.4,37.756-16.992-1.888-33.983-1.888-50.971-1.888-30.2,0-60.408-15.1-75.512-43.42L2052.511,626.6,1746.682,790.842l50.971,94.392c15.1,28.317,13.212,60.41-5.665,86.839a332.476,332.476,0,0,0-26.431,43.421,86.467,86.467,0,0,1-75.511,43.419l-105.72-3.776L1573,1402.5l105.719,3.776c30.2,1.887,58.522,18.878,71.739,47.2q5.663,11.328,11.327,22.654c3.773,7.552,7.552,15.1,13.212,22.655a80.34,80.34,0,0,1,0,86.84Zm217.1-294.5c-73.627-137.811-20.767-309.6,117.043-383.23s309.605-20.766,383.232,117.045,22.652,309.606-117.043,383.23c-135.923,73.625-307.721,22.653-383.232-117.046Z" transform="translate(-1573 -626.6)" opacity="0.04" fill="url(#linear-gradient)"/>
</svg>
