<svg xmlns="http://www.w3.org/2000/svg" xmlns:xlink="http://www.w3.org/1999/xlink" width="329.956" height="203.555" viewBox="0 0 329.956 203.555">
  <defs>
    <linearGradient id="linear-gradient" x1="0.5" x2="0.432" y2="1.644" gradientUnits="objectBoundingBox">
      <stop offset="0" stop-color="#50b9da"/>
      <stop offset="1" stop-color="#28466d" stop-opacity="0.741"/>
    </linearGradient>
  </defs>
  <g id="b" transform="translate(0 -0.014)">
    <g id="c" transform="translate(0 0.014)">
      <path id="Path_804" data-name="Path 804" d="M0,132.871c1.674-2.886,4.192-3.56,7.368-3.141,11.278,1.49,22.572,2.859,33.859,4.278,6.019.757,9.7-1.974,10.458-8.04q4.85-38.819,9.595-77.648c.946-7.668,1.852-15.344,2.886-23,.9-6.63-1.774-10.279-8.362-11.111-11.5-1.455-23-2.874-34.5-4.357-3.791-.489-5.626-2.527-5.213-5.566.4-2.954,2.89-4.441,6.6-3.976,11.288,1.416,22.57,2.882,33.867,4.219,11.986,1.421,18.408,9.179,17.317,21.09-.048.513-.006,1.036-.006,1.882,4.874.325,9.664.715,14.463.881.633.022,1.523-.977,1.925-1.708,1.606-2.91,3.02-5.924,4.589-8.855,4.461-8.339,12.108-11.94,21.264-9.9,3.449.767,6.85,1.785,10.231,2.822,3.3,1.014,4.676,3.17,4.01,5.95-.68,2.832-3.139,4.15-6.622,3.329-2.92-.689-5.773-1.652-8.679-2.4-5.781-1.5-9.149,0-11.937,5.286-2.05,3.891-4.105,7.782-6.007,11.746a5.856,5.856,0,0,1-6.428,3.671c-5.972-.484-11.962-.757-18.257-1.136L61.584,125.131c5.8.419,11.231.844,16.667,1.163a3.08,3.08,0,0,0,2.006-.778c7.548-6.822,21.806-4.639,26.36,6.534a3.072,3.072,0,0,0,.572.706c12.834-1.609,17.231.512,22.557,10.849,12.666-1.194,18.593,2.305,22.045,13.093a61.692,61.692,0,0,1,6.281.544c11.3,2.1,17.356,14.947,11.279,24.691A114.956,114.956,0,0,1,156.742,198.6c-8.454,9.248-24.008,5.417-27.836-6.537-.294-.918-.533-1.854-.791-2.759-12.2-1.2-14.623-3.02-19.4-14.583-6.428.225-12.085-1.654-15.822-7.262-1.452-2.178-1.663-5.585-3.526-6.973s-5.221-.583-7.7-1.409c-8.331-2.775-12.919-12.053-10.433-20.561.265-.908.553-1.809.891-2.908-1.789-.111-3.386-.128-4.962-.322-4.466-.547-8.314-.972-11.775,3.64-3.426,4.565-9.222,5.479-14.993,4.737-11.284-1.452-22.564-2.93-33.868-4.21-2.731-.31-4.893-1.179-6.523-3.36V132.87Zm161.955,41.721c-.154-4.095-1.606-6.286-4.451-7.483-2.954-1.245-6.022-.526-8.331,2.309-3.242,3.982-6.308,8.112-9.353,12.248-2.919,3.965-2.567,8.354.732,10.865,3.358,2.558,7.607,1.766,10.658-2.127,2.971-3.789,5.908-7.613,8.684-11.547a23.722,23.722,0,0,0,2.062-4.266Zm-35.941,5.215c1.476-.754,3.389-1.148,4.352-2.322,3.865-4.708,7.642-9.518,11.034-14.571,1.906-2.837.764-6.573-1.846-8.625-2.7-2.127-6.77-2.255-9.061.436A122.04,122.04,0,0,0,119.479,169.3c-2.834,4.565.923,10.089,6.536,10.505Zm-5.488-30.562c-.02-3.341-1.6-5.9-4.085-7.006-2.681-1.191-5.556-1.176-7.466,1.02a96.7,96.7,0,0,0-8.84,11.812c-1.735,2.749-.516,6.374,2.023,8.356,2.648,2.067,6.562,2.276,8.826-.265a144.488,144.488,0,0,0,8.917-11.744,5.5,5.5,0,0,0,.627-2.173ZM98.049,137.394a6.3,6.3,0,0,0-3.85-5.23c-2.628-1.242-5.406-1.279-7.456.8a36.5,36.5,0,0,0-5.761,7.587c-1.4,2.483-.866,5.2,1.09,7.431a6.75,6.75,0,0,0,7.26,2.108c3.662-.968,8.773-7.972,8.715-12.694Z" transform="translate(0 -0.192)" fill="url(#linear-gradient)"/>
      <path id="Path_805" data-name="Path 805" d="M723.374,73.986c-2.877,3.726-5.739,7.453-8.622,11.163-10.442,13.446-24.378,17.812-40.6,12.728-9.2-2.883-12.748-11.556-7.916-19.952q16.452-28.6,33.138-57.058c4.32-7.4,10.826-11.358,19.4-12.028C724.445,8.4,730.1,7.767,735.761,7.2c4.146-.416,6.755,1.145,7.055,4.264.29,3.016-1.777,4.914-5.865,5.327-5.875.593-11.746,1.217-17.628,1.714a13.973,13.973,0,0,0-11.547,7.149Q691.15,54.147,674.628,82.7c-1.671,2.888-.977,4.588,2.042,5.827,9.467,3.885,21.006,1.493,27.738-6.232,4.717-5.415,8.917-11.281,13.349-16.946,3.635-4.646,5.91-4.762,10.236-.664,6.391,6.055,13.712,10.339,22.652,11.179,11.057,1.04,19.684-4.067,27.393-11.234,2.039-1.9,3.863-4.025,5.751-6.08,2.871-3.124,5.761-3.7,8.032-1.546,2.156,2.04,1.809,4.916-.821,7.932-7.349,8.42-15.546,15.665-27.067,19.33l43.332,37.36c7.04-3.813,14.529-.817,22.167-2.295q-5.335-43.382-10.7-87.053a37.436,37.436,0,0,0-5.648.62c-4.836,1.3-8.909-.08-13.071-2.6-7.616-4.6-15.537-8.7-23.218-13.2a19.631,19.631,0,0,0-13.563-2.7,39.923,39.923,0,0,1-5.776.408,4.408,4.408,0,0,1-4.834-4.184,4.288,4.288,0,0,1,3.811-5.118c8.329-1.3,16.557-2.1,24.344,2.715,6.93,4.283,14.389,7.725,21.21,12.161,4.965,3.229,9.824,3.692,15.409,1.933a45.133,45.133,0,0,1,.926-4.767c2.264-7.565,7.47-11.934,15.183-12.993C845.511,2.9,857.561,1.521,869.6.072c3.258-.391,5.611,1.231,6.027,3.954.453,2.965-1.316,5.152-4.8,5.6-11.706,1.515-23.424,2.945-35.136,4.424-6.187.781-8.961,4.511-8.194,10.689q5.432,43.768,10.794,87.547c.578,4.686,1.165,9.371,1.809,14.05.718,5.227,4.369,8.165,9.663,7.55,11.085-1.288,22.154-2.715,33.232-4.088.213-.026.422-.082.635-.112,4.955-.715,7.676.66,8.034,4.056.333,3.152-1.811,4.884-6.805,5.512-11.285,1.419-22.567,2.877-33.859,4.255-9.085,1.108-16.537-3.546-19.783-12.047a3.619,3.619,0,0,0-2.517-1.985c-3.742-.222-7.5-.094-12.2-.094,1.408,1.3,2.265,2.1,3.131,2.894,7.158,6.54,7.744,15.072,1.661,22.629-5.818,7.229-12.906,10.347-22.154,7.476-.824-.256-2.27.541-3.05,1.259-3.375,3.105-6.286,6.815-9.978,9.445-4.307,3.068-9.5,3.2-14.518,1.506-1.772-.6-2.677-.153-3.773,1.147a79.41,79.41,0,0,1-6.955,7.587,16.649,16.649,0,0,1-14.01,4.2,4.313,4.313,0,0,1-4.013-4.643c0-2.461,1.352-4.589,3.7-4.484,7.695.344,10.862-5.42,15.09-10.374-3.8-3.3-7.582-6.437-11.187-9.761-2.939-2.711-2.4-6.724.909-8.228,2.477-1.127,4.349.054,6.126,1.581,4.4,3.78,8.753,7.61,13.184,11.35,5.079,4.287,9.656,3.953,14.01-.965,1.694-1.912,3.316-3.887,5.166-6.063-3.537-3.053-6.936-5.986-10.333-8.92-.894-.772-1.823-1.51-2.657-2.344-2.191-2.193-2.472-4.893-.78-6.91,1.846-2.2,4.572-2.426,7.152-.273,5.112,4.264,10.025,8.769,15.192,12.963a14.653,14.653,0,0,0,5.873,2.968c4.494.972,10.461-3.437,11.328-7.981.535-2.794-.92-4.683-2.9-6.382q-14.662-12.6-29.288-25.235-15.374-13.248-30.774-26.471a6.317,6.317,0,0,0-2.95-1.717c-9.6-1.091-17.821-5.227-25.278-11.139a6.562,6.562,0,0,0-1.056-.518Z" transform="translate(-561.74 -0.014)" fill="url(#linear-gradient)"/>
    </g>
  </g>
</svg>
