<svg xmlns="http://www.w3.org/2000/svg" xmlns:xlink="http://www.w3.org/1999/xlink" width="264.603" height="263.698" viewBox="0 0 264.603 263.698">
  <defs>
    <linearGradient id="linear-gradient" y1="0.5" x2="1" y2="0.5" gradientUnits="objectBoundingBox">
      <stop offset="0.41" stop-color="#4bc4d8"/>
      <stop offset="0.42" stop-color="#4bc3d8"/>
      <stop offset="0.59" stop-color="#59aade"/>
    </linearGradient>
    <linearGradient id="linear-gradient-3" x1="0" y1="0.5" x2="1" y2="0.5" xlink:href="#linear-gradient"/>
    <linearGradient id="linear-gradient-4" x1="0" y1="0.5" x2="1" y2="0.5" xlink:href="#linear-gradient"/>
    <linearGradient id="linear-gradient-5" x1="0" y1="0.5" x2="1" y2="0.5" xlink:href="#linear-gradient"/>
  </defs>
  <g id="b" transform="translate(0 -0.003)">
    <g id="c" transform="translate(0 0.003)">
      <g id="Group_246" data-name="Group 246">
        <path id="Path_794" data-name="Path 794" d="M100.493,851.668c-4.561,3.836-8.521,8.271-12.7,12.467-1.255,1.268-2.106,1.227-3.4.279-3.11-2.273-6.275-4.491-9.442-6.694-3.989-2.775-7.322-1.52-8.424,3.25-.906,3.919-1.646,7.865-2.426,11.812-.307,1.561-.991,2.3-2.775,2.245-4.561-.126-9.12-.1-13.695-.014-1.743.042-2.37-.669-2.664-2.329-.725-3.96-1.6-7.893-2.51-11.812-1.074-4.644-4.338-5.885-8.242-3.165-3.235,2.245-6.5,4.476-9.65,6.847-1.478,1.1-2.371.948-3.626-.39q-4.957-5.25-10.237-10.222c-1.437-1.367-1.45-2.385-.32-3.905,2.371-3.165,4.588-6.442,6.861-9.665,2.482-3.556,1.464-6.987-2.664-7.935A132.62,132.62,0,0,0,0,829.5V810.865a100.934,100.934,0,0,0,15.089-3c3.444-.851,4.392-4.1,2.412-7.14q-3.578-5.524-7.391-10.864a1.649,1.649,0,0,1,.237-2.594Q16,781.745,21.5,776.112a1.859,1.859,0,0,1,2.872-.209c3.277,2.356,6.624,4.615,9.985,6.861,3.877,2.594,7,1.408,8.061-3.082.865-3.667,1.854-7.322,2.356-11.045.32-2.4,1.338-3.068,3.514-2.818a21.427,21.427,0,0,0,2.845.014c1.464,2.329.962,5.007,1.214,7.5A85.426,85.426,0,0,0,56.7,792.93c.475,1.367,1.241,2.678.991,4.212-.083.1-.181.2-.265.279-1.284,1.185-3.041.823-4.532,1.046-9.107,1.338-15.188,6.444-18.032,14.992-2.887,8.647-.613,16.456,5.8,22.759,10.167,9.971,27.808,6.9,34.39-5.732.768-1.464,1.144-3.124,2.2-4.449a.991.991,0,0,1,.112-.153c.027-.014.042-.014.07-.027,1.1-.419,1.687.488,2.356,1.045a129.2,129.2,0,0,0,10.515,7.922,26.936,26.936,0,0,1,10.111,13.388c.405,1.115.865,2.287.07,3.458Z" transform="translate(0 -660.984)" fill="#ee4345"/>
        <path id="Path_795" data-name="Path 795" d="M533.715,273.747c-6.025,18.422-16.945,33.149-33.121,43.873-9.107,6.039-13.472,14.393-13.136,25.312.14,4.561-.014,9.134.027,13.695.07,6.652-2.5,11.672-8.7,14.531a7.718,7.718,0,0,1-5.494,1.757q-17.529.021-35.045-.014c-1.966-.014-3.989-.014-5.494-1.646-6.095-2.664-8.926-7.307-8.926-13.945s.39-13.359-.307-20.012a3.6,3.6,0,0,0-.432-1.98,23.289,23.289,0,0,0-9.372-15.424c-4.476-3.43-9.163-6.6-13.5-10.222H400.2a1.01,1.01,0,0,1-.349.014,2.755,2.755,0,0,1-1.8-1.171c-6.75-7.14-12.746-14.81-16.9-23.792a7.872,7.872,0,0,1-1.13-3.654c-2.273-6.555-4.5-13.136-5.341-20.053-.46-3.822-.642-7.685-.948-11.533.265-14.825,3.737-28.812,11.408-41.586,12.258-20.416,30.095-33.2,53.287-38.532a84.847,84.847,0,0,1,24.907-1.52,12.982,12.982,0,0,1,2.009.419c-.153,1.966-1.966,2.469-3.194,3.361-1.743,1.268-1.84,2.356-.543,4.016,2.9,3.737,5.816,7.489,8.507,11.393a9.781,9.781,0,0,1-3.654,14.7c-2.273,1.13-4.685,1.018-7.1.669-4.169-.6-8.368-1.115-12.523-1.813-1.994-.349-2.942.14-3.235,2.356-.879,6.75-1.827,13.5-2.887,20.222-.293,1.9.181,2.8,2.273,3.068,4.616.586,9.246,1.171,13.821,2.022,5.732,1.06,9.079,5.2,8.674,10.668a9.36,9.36,0,0,1-3.877,7.014c-3.849,2.915-7.685,5.843-11.589,8.674-1.451,1.045-1.617,1.924-.5,3.361q6.3,8.2,12.411,16.54c1.255,1.7,2.4,1.883,4.059.586,3.333-2.594,6.721-5.1,10.125-7.615a11.518,11.518,0,0,1,5.829-2.579c7.154-.642,11.868,4.449,10.864,11.854q-.858,6.275-1.813,12.537c-.5,3.333-.39,3.458,2.942,3.919,6.4.878,12.789,1.854,19.189,2.705,2.845.376,2.872.279,3.347-2.455.809-4.588,1.255-9.232,2.133-13.792,1.268-6.5,7.14-10.152,12.844-8.032,1.018.376,2.2.669,2.273,2.106Z" transform="translate(-322.59 -144.634)" fill="#eaeaea"/>
        <path id="Path_796" data-name="Path 796" d="M1000.926,105.509c-4.7-.628-9.372-1.381-14.057-1.994-4.3-.572-7.28-2.831-8.3-7.014-1-4.1.7-7.406,4.045-9.888,4-2.984,7.949-6.052,12.021-8.953,1.325-.948,1.325-1.59.376-2.831-4.658-6.08-9.287-12.2-13.778-18.422-1.2-1.66-1.966-1.492-3.389-.363-3.989,3.138-8.075,6.178-12.188,9.149-3.32,2.371-6.9,2.719-10.4.473-3.57-2.3-4.685-5.746-4.059-9.874.753-4.923,1.394-9.874,2.189-14.81.223-1.423-.07-2.009-1.576-2.2-7.753-1.032-15.522-2.064-23.261-3.277-1.7-.265-2.106.307-2.286,1.716-.363,2.817-.739,5.634-1.158,8.437a75.483,75.483,0,0,1-1.338,8.145c-1.883,7.084-10.32,9.316-15.215,3.89A122.327,122.327,0,0,1,899.124,45.4c-1.507-2.176-2.482-2.5-4.644-.739-4.128,3.361-8.535,6.388-12.83,9.553-1.631,1.268-3.18,2.635-4.895,3.766-1.394.921-1.268,1.59-.32,2.8,3.082,3.933,6.025,7.978,9.009,11.979a9.616,9.616,0,0,1,2.246,6.944c-.642,5.787-5.453,9-11.868,8.019-4.769-.739-9.553-1.311-14.323-2.079-1.3-.223-1.854-.042-2.05,1.367-1.061,7.935-2.148,15.87-3.361,23.792-.237,1.534.39,1.73,1.59,1.883,4.854.655,9.706,1.394,14.573,2.063,4.672.642,7.922,3.041,8.758,6.847.948,4.323-.642,7.712-4.212,10.305-4.045,2.942-7.978,6.025-12.021,8.967-1.061.768-1.2,1.3-.363,2.385q7.217,9.456,14.267,19.022c.865,1.185,1.464,1.268,2.622.376,3.946-3.068,7.976-6.025,11.979-9.023,3.389-2.566,7.028-3.207,10.836-1.1,3.487,1.924,4.978,5.717,4.309,10.264-.739,4.937-1.381,9.888-2.217,14.81-.237,1.437.181,1.716,1.492,1.9q11.778,1.611,23.513,3.431c1.827.293,1.953-.642,2.133-1.939.683-4.951,1.367-9.9,2.12-14.839,1.144-7.614,8.507-10.85,14.559-6.457a12.271,12.271,0,0,1,3.012,3.165c2.775,3.723,5.593,7.433,8.339,11.185.8,1.074,1.367,1.422,2.635.46q9.308-7.176,18.812-14.127c1.311-.962,1.325-1.576.363-2.818-3.194-4.072-6.275-8.228-9.33-12.4a8.963,8.963,0,0,1-.656-10.4c1.953-3.374,5.634-4.839,9.8-4.212,5.021.753,10.055,1.423,15.062,2.217,1.478.237,1.91-.209,2.092-1.674.976-7.516,1.91-15.033,3.235-22.495.46-2.552-.572-2.845-2.469-3.1Zm-47.3,24.517a6.381,6.381,0,0,0,.405-2.761,83.169,83.169,0,0,0-18.283-44.194c-1.646-2.036-3.221-4.253-5.662-5.523,12.021-.419,23.736,7.28,28.9,18.981C963.887,107.658,961.6,121.965,953.623,130.026Z" transform="translate(-738.9 -30.59)" fill="url(#linear-gradient)"/>
        <path id="Path_797" data-name="Path 797" d="M850.86,1789.278c-.07,2.818.271,5.642-.494,8.439a13.654,13.654,0,0,1-12.552,9.695c-6.442.015-12.886.04-19.328-.007a13.179,13.179,0,0,1-12.685-11.292,36.263,36.263,0,0,1-.382-6.9,3.744,3.744,0,0,1,2.667-.722q20.062-.056,40.125,0A3.692,3.692,0,0,1,850.86,1789.278Z" transform="translate(-695.186 -1543.733)" fill="#eaeaea"/>
        <path id="Path_798" data-name="Path 798" d="M850.84,1730.555l-45.441-.064q-.014-4.323-.029-8.645c.64-1.341,1.9-1.371,3.1-1.377q19.739-.086,39.477-.007a3.239,3.239,0,0,1,2.823.96Q850.806,1725.989,850.84,1730.555Z" transform="translate(-695.165 -1485.01)" fill="url(#linear-gradient)"/>
        <path id="Path_799" data-name="Path 799" d="M850.443,1665.344q-21.583-.026-43.167-.059a3.856,3.856,0,0,0-2.235.482q-.025-5.109-.052-10.219a22.8,22.8,0,0,0,6.626.858q15.889-.056,31.776,0a24.466,24.466,0,0,0,7.634-.948C849.952,1658.7,850.874,1662.064,850.443,1665.344Z" transform="translate(-694.837 -1428.932)" fill="#eaeaea"/>
        <path id="Path_800" data-name="Path 800" d="M190.367,294.076a2.573,2.573,0,0,1-3.473,2.254,6.172,6.172,0,0,1-1.307-.624q-6.564-3.994-13.114-8.006a2.682,2.682,0,0,1-1.613-2.194c-.01-1.794,2.267-2.807,4.167-1.8,1.4.746,2.708,1.63,4.056,2.454q4.84,2.958,9.681,5.913c.9.547,1.568,1.193,1.6,2Z" transform="translate(-147.479 -244.542)" fill="url(#linear-gradient-3)"/>
        <path id="Path_801" data-name="Path 801" d="M364,31.967a4.535,4.535,0,0,1-3.747,4.555,4.449,4.449,0,0,1-5.038-3.446c-1.349-4.795-2.514-9.642-3.755-14.465-1.092-4.242-2.241-8.47-3.259-12.731A4.48,4.48,0,0,1,351.344.2a4.21,4.21,0,0,1,5.438,3.053c2.51,9.284,4.83,18.621,7.213,27.939a3.227,3.227,0,0,1,.008.772Z" transform="translate(-300.414 -0.003)" fill="url(#linear-gradient-4)"/>
        <path id="Path_802" data-name="Path 802" d="M183.24,508.3c1.039.011,1.747,1.512,1.891,3.757.14,2.187-.4,4.362-1.364,5.051-1.487,1.059-3,1.916-4.494,2.875-1.921,1.229-3.84,2.488-5.761,3.707-1.349.855-2.3-.3-2.589-3.082-.264-2.573.358-4.792,1.672-5.657,3.316-2.183,6.638-4.3,9.959-6.418A2.27,2.27,0,0,1,183.24,508.3Z" transform="translate(-147.483 -438.746)" fill="url(#linear-gradient-5)"/>
      </g>
      <path id="Path_803" data-name="Path 803" d="M1217.251,395.565a29.389,29.389,0,0,1-24.07,10.92c-12.983-.266-22.829-6.388-28.394-18.2-5.494-11.672-4.156-23.08,3.793-33.275a29.478,29.478,0,0,1,25.13-11.924c2.441,1.268,4.016,3.487,5.662,5.523a83.168,83.168,0,0,1,18.283,44.194A6.386,6.386,0,0,1,1217.251,395.565Z" transform="translate(-1002.529 -296.128)" fill="#eaeaea"/>
    </g>
  </g>
</svg>
