<svg xmlns="http://www.w3.org/2000/svg" xmlns:xlink="http://www.w3.org/1999/xlink" width="186.072" height="208.007" viewBox="0 0 186.072 208.007">
  <defs>
    <linearGradient id="linear-gradient" x1="1.588" y1="0.5" x2="-0.22" y2="0.5" gradientUnits="objectBoundingBox">
      <stop offset="0" stop-color="#ee4345" stop-opacity="0.431"/>
      <stop offset="0.16" stop-color="#ee4345"/>
      <stop offset="0.36" stop-color="#ee4547"/>
      <stop offset="0.49" stop-color="#ee4e4f"/>
      <stop offset="0.6" stop-color="#f05c5e"/>
      <stop offset="0.69" stop-color="#f27072"/>
      <stop offset="0.77" stop-color="#f48b8c"/>
      <stop offset="0.85" stop-color="#f7acac"/>
      <stop offset="0.93" stop-color="#fad1d2"/>
      <stop offset="1" stop-color="#fefdfd"/>
      <stop offset="1" stop-color="#fff"/>
    </linearGradient>
  </defs>
  <g id="b" transform="translate(-0.002)">
    <g id="c" transform="translate(0.002)">
      <g id="Group_79" data-name="Group 79">
        <path id="Path_755" data-name="Path 755" d="M95.881,208.007h-7.7a21.613,21.613,0,0,0-2.115-.543c-4.985-.773-10.063-1.153-14.948-2.338a90,90,0,0,1-51.723-33.764C2.286,148.887-3.341,123.539,1.874,95.8a88.07,88.07,0,0,1,11.3-29.335c.719-1.192.751-1.964-.346-2.921-1.473-1.289-2.806-2.737-4.172-4.147-6.331-6.533-6.388-15.175-.1-21.741,2.525-2.637,5.125-5.206,7.723-7.772,6.782-6.7,15.474-6.687,22.266.055,1.718,1.705,3.322,3.528,4.584,4.877,6.482-2.944,12.332-5.889,18.4-8.282a83.122,83.122,0,0,1,24.006-5.269c.543-.044,1.487-.551,1.5-.877.121-2.739.069-5.484.069-8.384-3.2,0-6.1.055-8.992-.016A5.832,5.832,0,0,1,72.682,8.39a5.182,5.182,0,0,1,.949-6.025A19.846,19.846,0,0,1,76.824,0h32.033l1.613.765a5.842,5.842,0,0,1,2.32,8.733,6.36,6.36,0,0,1-5.469,2.546c-2.742.021-5.484,0-8.255,0-.057.785-.116,1.25-.118,1.716-.01,2.031.032,4.063-.013,6.092-.024,1.083.494,1.332,1.471,1.416,2.483.212,4.977.434,7.433.851,19.464,3.3,36.482,11.616,50.385,25.7,23.228,23.525,31.914,51.9,26.1,84.346-4.218,23.545-16.527,42.5-35.524,56.971a89.251,89.251,0,0,1-45.109,17.988c-2.6.286-5.206.586-7.809.88Zm67.052-99.544c-2.036-19.4-10.1-35.2-24.488-47.623A68.382,68.382,0,0,0,99.075,44.289c0,3.1.031,5.87-.008,8.632A5.933,5.933,0,0,1,95.2,58.806c-3.909,1.57-7.982-1.318-8.13-5.779-.1-2.89-.018-5.786-.018-8.737a7.394,7.394,0,0,0-1.41-.132A72.268,72.268,0,0,0,64.3,50,70.362,70.362,0,0,0,28.652,86.087a72.13,72.13,0,0,0-5.495,20.244c-.2,1.5.2,2.251,1.915,2.167,2.425-.118,4.865-.082,7.294.018a5.665,5.665,0,0,1,5.519,5.829c.015,3.515-2.414,5.868-6.254,5.954-2.753.061-5.508.011-8.637.011,1.983,19.521,10.137,35.453,24.726,47.945a68.243,68.243,0,0,0,39.33,16.4c0-3.16-.045-5.928.011-8.692.076-3.766,2.68-6.449,6.159-6.436,3.267.011,5.779,2.792,5.853,6.507.029,1.489.006,2.979.006,4.468v3.8c14.651-.665,34.123-8.277,47.895-25.006a69.415,69.415,0,0,0,15.884-38.907c-2.719,0-5.074.031-7.428-.015a12.943,12.943,0,0,1-3.208-.32,5.811,5.811,0,0,1-4.032-6.483,5.644,5.644,0,0,1,5.217-5.078c3.021-.144,6.054-.032,9.527-.032Z" transform="translate(-0.002)" fill="url(#linear-gradient)"/>
        <path id="Path_757" data-name="Path 757" d="M553.436,527.42c2.9,0,5.45-.018,8,0,3.861.032,6.546,2.448,6.617,5.918s-2.709,6.109-6.625,6.151q-6.581.07-13.163,0c-4.46-.047-6.834-2.482-6.838-6.958q-.017-14.407,0-28.815c0-4.287,2.412-7.042,6.123-7.04,3.464,0,5.868,2.876,5.881,7.1.019,6.968.006,13.934.006,20.9v2.734Z" transform="translate(-453.996 -416.479)" fill="#ee4345"/>
      </g>
    </g>
  </g>
</svg>
